<mxfile host="app.diagrams.net" modified="2024-01-20T11:35:44.011Z" agent="Mozilla/5.0 (Windows NT 10.0; Win64; x64) AppleWebKit/537.36 (KHTML, like Gecko) Chrome/120.0.0.0 Safari/537.36" etag="06UcIjTl8PBLeebzYvVs" version="22.1.21" type="github">
  <diagram name="Page-1" id="feaAWZhiSIrRRcYbr9gb">
    <mxGraphModel dx="953" dy="446" grid="1" gridSize="10" guides="1" tooltips="1" connect="1" arrows="1" fold="1" page="1" pageScale="1" pageWidth="850" pageHeight="1100" math="0" shadow="0">
      <root>
        <mxCell id="0" />
        <mxCell id="1" parent="0" />
        <mxCell id="_OpdDlDjI2bTZTibYh-6-1" value="" style="dashed=0;outlineConnect=0;html=1;align=center;labelPosition=center;verticalLabelPosition=bottom;verticalAlign=top;shape=mxgraph.webicons.github;gradientColor=#DFDEDE" vertex="1" parent="1">
          <mxGeometry x="167.8" y="110" width="102.4" height="102.4" as="geometry" />
        </mxCell>
        <mxCell id="_OpdDlDjI2bTZTibYh-6-2" value="" style="sketch=0;outlineConnect=0;fontColor=#232F3E;gradientColor=none;fillColor=#01A88D;strokeColor=none;dashed=0;verticalLabelPosition=bottom;verticalAlign=top;align=center;html=1;fontSize=12;fontStyle=0;aspect=fixed;shape=mxgraph.aws4.mainframe_modernization_developer;" vertex="1" parent="1">
          <mxGeometry x="180" y="290" width="78" height="78" as="geometry" />
        </mxCell>
        <mxCell id="_OpdDlDjI2bTZTibYh-6-3" value="" style="endArrow=classic;html=1;rounded=0;" edge="1" parent="1">
          <mxGeometry width="50" height="50" relative="1" as="geometry">
            <mxPoint x="218.5" y="280" as="sourcePoint" />
            <mxPoint x="218.5" y="220" as="targetPoint" />
          </mxGeometry>
        </mxCell>
        <mxCell id="_OpdDlDjI2bTZTibYh-6-4" value="" style="endArrow=classic;html=1;rounded=0;" edge="1" parent="1">
          <mxGeometry width="50" height="50" relative="1" as="geometry">
            <mxPoint x="540" y="157.1" as="sourcePoint" />
            <mxPoint x="620" y="155.9" as="targetPoint" />
          </mxGeometry>
        </mxCell>
        <mxCell id="_OpdDlDjI2bTZTibYh-6-5" value="" style="outlineConnect=0;dashed=0;verticalLabelPosition=bottom;verticalAlign=top;align=center;html=1;shape=mxgraph.aws3.ec2;fillColor=#F58534;gradientColor=none;noLabel=0;" vertex="1" parent="1">
          <mxGeometry x="630" y="114.7" width="76.5" height="93" as="geometry" />
        </mxCell>
        <mxCell id="_OpdDlDjI2bTZTibYh-6-6" value="" style="endArrow=classic;html=1;rounded=0;" edge="1" parent="1">
          <mxGeometry width="50" height="50" relative="1" as="geometry">
            <mxPoint x="280" y="157.1" as="sourcePoint" />
            <mxPoint x="360" y="155.9" as="targetPoint" />
          </mxGeometry>
        </mxCell>
        <mxCell id="_OpdDlDjI2bTZTibYh-6-7" value="" style="whiteSpace=wrap;html=1;" vertex="1" parent="1">
          <mxGeometry x="390" y="114.7" width="120" height="60" as="geometry" />
        </mxCell>
        <mxCell id="_OpdDlDjI2bTZTibYh-6-8" value="" style="shape=image;verticalLabelPosition=bottom;labelBackgroundColor=default;verticalAlign=top;aspect=fixed;imageAspect=0;image=data:image/png,iVBORw0KGgoAAAANSUhEUgAAAYYAAAE2CAYAAABlSjWQAAAgAElEQVR4Aey99WMU1/svfv+B72/33s+bZHdmVqPEXXEo7toCpWgEq9AClXeFQqFClRaKFIpDiBvB40KSlSQ4ESgQ23ggyet7nzO7dJsGa5EAk/YwujNnnrN7XvPY6/lfkP4kCfQyCXR1dcG6WXfPej+tv0h/T/PZnua9HjRGvakvD+rry3L8f70sDyo95/MjAeuJoqdeP+h4T595HvZZPxetP8m/p3mvBz1Hb+rLg/r6shyXgOFlGWnpOSUJSBKQJPCQEpCA4SEFJZ0mSUCSgCSBl0UCEjC8LCMtPackAUkCkgQeUgISMDykoKTTXk4J3MvW39N+i63cWlL32md9jrQuSaC3SUACht42IlJ/eo0EaFLv7OxkEVK07KlZJn5adnR03D3H8lnrz9CDWe/vNQ/6jDtiLUNal/6evQQkYHj2YyD1oJdKwDJh0eROk76lWU/21uvW59O6BSgs67S0nE/HpD9RAha5WZaSXJ69BCRgePZjIPWgl0rAMpG3tbXh5s2buHjxIoqKipCVlYXjx48jKSkJcXFxOHLkCA4dOsRaVFQU246NjUVycjI7j84vLi7GpUuXUF1djfb2dgYQvfSxn3q3LIBgWT71Dkg3/JsEJGD4m0ikHS+SBCyTDS3pz3qb1i1v8JZlS3Mzyq9eRU52NuJjY7B961Z8tf4LfLBqJZZEROD1WbMxeeJkjBoxEkMGDUb/0FAEBQTA39cXfj4+CPDzY9uhwcEYPGggxowaiSmTJuKN11/H4sil+GD1R/jqy6+xc8cuJMYloiCvAFXlVbjTfps6B9D/nfRP192luP+v/X+Rx+hFerbn9VkkYHheR07q90NJgCZ8awCwNgfR+u3bt3H9+nWkp6dj165d+HzNGiyOiMDUyZMxILQf3F1coFUooOTkUHECVJwKKk4JFaeAiheg4vmHbkpeBV4uQMkr4e7ijsEDBmPGlGlYvngpvvpiPfbv3Ye8nBzcunETnXfuoKujA10dnWIz+zgsz0JL6U+SwJOSgAQMT0qy0nV7hQRoArVuBBQEBmTSOXXqFH744QcsW7YMkyZNgq+vL7RqDQSOh4IXxCYooOAVEDgBCgIDTt0DOFgAgpb3bgqeg4KXQ+Dk4OUyCLycbdM+rVqJIP8ATJ00Ge+89Ra2/LIZWRmZqLlVjc47HegkgOj2LL1CwFInXkgJSMDwQg6r9FB3JcBMMp3MRNPe1o7ioiJs27oVy5ctw9jRY+Du5gaBQECgyZ/e/gWoBAWUbJ8AnqemAC8ooeCVUHMqqDlaKqDmBKg5/qGbgpdBJcihtAIEBhYCD4FAgwCJrico4OPphcnjJ2LVu+/h4L79uHLpMgOILtKAOsXnufuM0ookgccsAQkYHrNApcs9eQl0f3O2+AdofydF+9DkaTbBoLMLVRWViDkSjdUrVzITEfkClIIAQU5v8Dx4OQeBo8ZDSY0X2JKO0YTNcxx4noOa52HH8dByctacVAr4uDgh1NcTg4P9MaxfIIaE+KOfnxcCPPrC1U4FLWcDDdcHGnkfaMgcJZdBLRfvo5DzUMgFCLwSApmY2DbH7i2arQQ4qLXoHxyCRfPmY9uvW3HpwkXcbmtH520yNXWi604Ha8wP8RhFby3jx3jZHi/1NO/VYweknX+TgAQMfxOJtKM3S8B6ErGsW4CBhYfevsMmzY722yg+W4gfv/sec2bNxsB+/eGg0YoTvwUA/rYkQCBzkQIqOQcVJ4Oas4Wa7wMHtRyDAr2w8LVJ+GzlMmz+5nPs3/YD4vZtRfLh33A0ehfSYncjLeZ3pET9hvgDWxH1+yb8/suX+GH9B/jvO4sQNmsGxgzsD19nJ2jkMqhkchEk5OS7UICAQslRH0RgYiBl7qNGoUSAjy/mzn4de3b+jhvXrgMWULjTITquH+PAWWRrWT7GS//tUpZ7WJZ/O0Ha8dQlIAHDUxe5dMN/IwHL5GFZWjuTCSDutLUjPysHaz7+BJPGjYeXmwczD9Fkq+ItDuOe/QB0jkKugJpXQMvzsOdtEerdF28tfA27flqHEzG/QXc6BleLTuDWhWzUlxegsfKs2KpoWYBGWlqt15fn4ca5M7hSlArd6XhkJe1H8oGt2P79WqxevhCTRg6Cp7MGGt4GKjkvOrhp2b2R2YpXwE6lRmhAEN5euhyZp86grbEZuEOmpcfrjLbI17L8N2P2oM9a7mFZPuh86fiTl4AEDE9extIdHqMELJOHZcnA4M4dFnZqNBqxbs3nGDtiFFydnNlEau0MFmRy9lYumnDIjPPXpiRzDqeGRlAh1NcHH7+zFKmHduB8TgpqL2SjpSIfLRW5aC7PQUtlDlorc9BckYXmikw0lWegpTITLZVZrLVWivvpGLW2qmy2bK7MRlNFDm5eTMf5wmTknDyIhMO/4Jt1K/H6jNfg7eougoKsGziQ/8OsSSjkHJzs7Nlz/rZ1G2pu3GQ+lMco5qfq6LaMpWX5OJ9DutY/k4AEDP9MbtKnnqAE6N33ns3sRyBfgsWPcL3qGjb/8gsmTpgAr74esOM10FJIqfntXyEnhy85djkoeRmUHAeFjMw3aijlKijlZk2CkyHQ3R6rli1A2pFduFp8Co1XC9BWcRbtFXloq8hDSyWBQz5aK8XWUkn78hhgtFbmorUi525rKbes56KtMhfNrOWhuSofTVX5aL5WgOZrZ9FQmY/rZadhzE7AsZgd+OazdzF55EC4aBTQyOTQ0HPIyeGthpKnqCkNBEEDlVKNIF8frPloFa5cvMCc0sw5TQ53Kxl2PsGxki79YkpAAoYXc1yf66fqPql1oAvUOiGGnpJDmUDBVFeP2OhozJk9Gz5eXtCoVLDjVdDKlVDZctCYcw2C/PwRGR6Ozz75FP1CgkCag0ZQQyVXiROunIOrvQbhb8xAysEtuFJ8EnVXCtBUfhatFWfRVpH/V2AgcOihtVbkgRoBCDXLtmXZXEEaxp+tpTIXf2lVOWgoz0aV8SSKz8Qj6rdNWDZvNvxdnRlAqGXkg1CKwKDQsmgplUIBDxcnhC9cAH1xMdrb2tBBORDsPxFgJWB4rn8Oz6TzEjA8E7FLN72fBLoDAwFCB3EPdYmcRe0trThz6jRLRAv0D4C9VivmHHA8NBQ1JOfh6+aOsLnzsfWXzTiWkorczBwU5RfireVvQUWhpzIBGjLJKAVMHD4QUTs34cLZE6i7nIvG8gI0VxSiueIsWisLrFo+2irz7t0qctFWnvO31lqejZarWWi5mn7vVp6O1vIMtFVkof1aHpor8lF/OQ9XCk/gePRveH/pXAS6OYrRTRRRxQngCSR4NQReBQc7e0yaMJHlPrS0tIimICut4X7ylo5JEuguAQkYuktE2u5VErDYnWlJjmaDTo8PVq5Cv6AQZmdn+QYUdkrOWl7A0AH98cWnHyM1Pg75mZkoKdLhQkkZ0pKP4uP3/wsvd28RFHgeAW7O+HbNapzLS0XNxWy0VBaguTwXLRV5bNnMTEcF4v5KAgnSHHLv2VqvZKLlcjqaL55G4/lTaDx/Eg3nTqK+7DjqSo+hvjT5gc1UmgpT2VGYzh+D6cIJNFw6jfqLp3BNn4YzcTvxXsQs+PTVQCW3ZYl3PKeGXK6FglPCXq3BiFeG4/TJk4yPyTKQBLTSnySBR5GABAyPIi3p3KciAUv4KS0JDO7cuYOqqip8//33GDpoMAMESgITo4g4aBUqjBs1Gr/8uAkZp05AV5iPS+fKcLGkBJdKS/Hthi8R6OMDZ62DmIsg8Fg4ayoyU4/gxjlyEuczv0BbRbb4tm/2E5CPoKmcTD/iG3wrgUJ5FtquZJgB4AwaL5yCqewE6krSUFuSilojtRTUWDdDCmoMyagzJNyz1RsSUK+PR50hztziUWeMR21JPOpK4lBfloLq0uMoL0xBwu4fMXP8UDgoOQhyyrUg34OSASMB5MD+/XHsaBqI/I/JT2JyfSrf2xfpJhIwvEij+QI8C2kG1jxBTQ2NSIiLx+SJk5i5RKMgriIKK6WEMwXGDB+JzT9tQk56Jkp1BpwvKcWFklKU6nVIjI1BxIJ5cHW0h70gh8r2P/B3tcfOn77E9XO5MFUUoKmSfAE5zITDgIGijawcyLTeUpGNlvIsNF8+g6Zzx9FQmoZ6AgB9MmrMjdZrDUmoNSTes9XpE3CvRqBg0sdZtVjUG2JQZ2nGeNToExnA3ChOhf7EYXz85kL4OGuhlttCKaPkOXPmNi8gwM8fR1NScLut7bFHLL0AXzPpER4gAQkYHiAg6fBTlgADhg503L6DC+fOYdV778HNxQXkZKVMZDIXaTgB/QOD8e2Gr5CXkYWLRtIOynDBWApDkRHRh2OwasW76B8cDCetkmUeK23/N2ZMGgFjegIaK86ikSb/axR2moXWCmoECLloqRKjjCgUlfYTGDReOI760lTUGcXJv86QhDqj2CxgQJP2vSZ9y/5aQwLu1wgcrJuJgQUBhnm/IQEmfQLqdQmoKU5CZX4yNn+xEoN8HGHHkvEEKGUcy6CmnA1fL2+cPH4c7a1tT3kQpds97xKQgOF5H8EXrP+kMZCWEBcTw2itibdIpSCeInK48nBxcMKbEYtx6ugxnDeUMEC4VFKGczojEqJi8MmHn+HV6bPg3tcdaoFoJvrAUSXDV2vfx7VLRWi+miOGjpafQVtVBlorM0RgKKeQ07NoqipAc2U+Gi5noLYsDTVGMgElos4QD2buMSSh/p7t3hoBgcP9tAk6ZgEQy7JenwiTztz0iWjQx6NJH4cWQzwamfaRhJu6NOzf9BkGBfgw7iYNJfFZch4EAR5u7shMz2AmpRfsqyI9zhOUgAQMT1C40qV7lgDVLrNEHlEoJcteJlqHzk7cvP4HvtnwJZztHZi5iPiDLBQRrwwagt+2bYNBX4zzZSUoK9GjpESHo2kpWLtuDRYvjsTECZPgZN8XWt4OGhslAp36ImXvr2i6konmqyeYD+FPU1Eu8x80leeBWsvVbLRfOo6GkiTUkb3/Pqaf3nbs8K8bMCjQAwobGyjkKvCcFpytAoJcDj/PviyUlbQwi9/GWv7POpzVOsCA1qW/Zy8BCRie/Ri8dD2wTEps2dXFnMtUe+B8WRmWREQyUwjxBJGDmTiC+jo4ImLhIpw+fgLnS0txvqwU50pLUJCXi61bNmP58mVYtDAMUyZPg4uzC+M7UtjIMGpAP+SmxaGxvJhpCe1VZDKiJDRzowgkcxJa4+UM1FH0kBkMRO3g/hqA5dzesLxhOI59v6zHoAAPqCmhT64EL+Nhp1RDYWvDKL3Lr1xlJjoCB/qzHodn+SWUgOFZSr/ne0vA0LNcpL1PUALdJyRKyCo1luCN2a/f9SOIUUc8gv0DsP7zddAXFuFi2TlcYKBgZI7VTz/+BJHhkYgMW4x5cxbAx9OPUWLbKQTMnDwKhryjaKgqhOlqFtquFaDpSjaaKvNZFBJRW7SyKKRMFlZaZ0xBnZ7MRAl3W2+Y8B+6D8ZkVBvT8OuGVQj1dIQ9b2ZxlRM5n8DMcaNHjmL1Hai0KP11H4cnOOT3vbQEDPcVzzM5KAHDMxH7y31Ta9MFFaA5V1qG2a/NFEnuWJU0gWkLw4cMxdZftqDMYBRBobQMxWcLsGf3Try3YgUWhy/B4rCliFy4FMMHD4eDygEOggKLZk5FScFR1Fdmo77iDNpu5KHhShZaKgoZMDBKi/JcUN5BfelR0YdAjl4KJ9XHo1ZHZqSeWncNoqdzHmVf9+v9822KYDIZ41GtT8GXqxbC30khRmJR9rdgYZUVsGDefDSaGv7yBSSAeJZ/EjA8S+n3fG8JGHqWi7T3ESTwqD9syksgcwYtybyxODxCrEFAdRDkPLRKNcaOHIUDe/biQmkZa+eNpSjIzsWWzT/jrTeXISIsHJGLlmDJomWYOWUmPJxd4KBUImLmVJTlHoOJmE6vZaGpKh1NVRloZuR3lNGcg1bKT7h4BnXGo8whfDdUVBd3D0CwnuytJ2/r/f9k3fpa/27dpI9GvT4KppJEVJ2Nx9vzJsLDXgEtqzuhEutLyCgRkMOXX6xHW0srq2RHwEw+nu5j2H27+9eh+/H7bT/qZ+93fvdj0vaTkYAEDE9GrtJV7yMBkQCvA3U1NWySoslKIyhZqKWdQoUJY8Yh5nAULpWdZ5oC5SbkZGTip+++x9LFixEeHoaI8MVYErYM4fPCMTAwGH21AmZNGQXdmVi0VBWikYCgigjrctBURSYkCkUtwO2KLLRcOs2S0OoMyWCRP3dzCCjyKPE+7a+Tt2h2ut/59zv212s9tMnoHg7xekMcGoxxohmsNBXnsmIwe8JQ2CvkULBKcwK0vJIBr6PWDknxCSyMlZUNNfsc7jNk0qGXTAISMLxkA94rHrezk01KlIBF0UesWpmch6Nai9HDhuPQ3v1mTeEcS1jLOpOBHzd+h2WRixEZEY6IiAhERixBxMJIjBsxmhHgjR8ejPS0vWi4SuGn2YzfqLn8LJrLC9FceRZNlTlorMxAy7k0mAxJMDEA6DY5W/kXrH0N1uvWE7j1/n+ybn2tf71OmdXGFDSUHUXD+TSYLqUjK3Ufhg/0h1rgWPKbmnwNcp459IlS5MK58ywSjFW96xVfDKkTvUUCEjD0lpF4jvvR3YzwoEeht9RrFZWYMmny3TKWFH8/MDgUv23ZyriNyNF8vqQM2ekZ2PT9D1gWsRiLwyKYCSk8LBLhixZj1vTZ8HNzwwB/N8Ts/RE3LmfezUtoupKHlnIdmq8WM99Cc3km6i4eQ70uFiaDJctYpKEgrYEam5x1BBZkFiKzkqVZzEQipUU9y2mgpDPxeC35JShPoUe/hOWzPS27AdM9tAHWLwPRZdA9qc9/NvFYAupKTqDxQiZar2aitSIdrdeymTltz7Zv4e/tApbfQJnR5gpxFK1EEWCNJpNYHpSouu/RehrPe53b0/7un+/pHOt99zu/+zFp+8lIQAKGJyNX6ar3kcCd1nbs372HZTFbCun4eHji808+FSktSstwsfQcCvPysW3zFlFTWBTGgCF8USQWLlyK2a8tQD//EHg7q/Hd52+hynACLRXFZrpryk/IRxMrrJOHtvJMNJeloYEmV/PkSxnEYmaxSEPRoI9jCWQmfTLTJkwGMssQJUWsyG+kT2J0FDVGMg/Fo8EQg0Z9NEz6WJbNXG2grOi/J6lZ7vevl1bA0KBLRIMuCSZ9EigL23QuBU2XKFO7iNV8aKrKQtP1LJiu5aK2shCff7AUznb2zLlPOSFEJULhwG5OfREXFQ10WIcD3GfgpEMvjQQkYHhphrr3PGjdrWqMGTEKgkzkOyKb97zX30BRfgEzIRHn0ZkTJxkp3pyZszBlwkRMnTgZM6ZMw6szXsOECVMR4BsKB6UGb0wfg6IzUaz4TXN5gVgwh6gtiBmVkePlouniKdRRFjFN9ua3bUYtwdbFN396+2fHyO9AZiZjPOpL4mEqTUJ9aQrqS9NQV0pEeSmoMxKoEJDEMmCgN3kGCiyq6RG0gPtpCN2PmQn4qI8mXQIaKLRWnwRiY22+fBKtV4kAMJcBo+lyJir1abhYkIzzBanQZyRgxuTJDBAsYcCik1+FiWPH4dYfN3rPl0PqSa+QgAQMvWIYXp5OUDTSmeMnGSMqvbWSxtAvKBgH9+xD5ul0xEZFM9NR5MIwhAYGsRrHZP6gCc1erYWTgwNUKg0rWOPn4Y592zaihrKaK7PNhXHE5DUxTyEXTZfSmaOZ0VjoSDsw8w31OPEmMj6kupJkmM4dRfPlE2gtT0dLeSbLim6+koWGC6dQV3KUAY0YzWQBFlr+qZH8aw2hx/6JJiTxGUhzSUbjBepjFqiUaHXZSZw9egCHNn+NDauW4/3Fc7EqYjbWvBeG9956i8mSs5ExWZLDn2RPWsPvO357eb6A0pM+lAQkYHgoMUkn/RsJWOzHlhDVD95bdbfeslapAuUrfPvV11geuQSvDB4CR629SIdhBg6awAhEaDITODkEXpzUZk+bhJwTR9B4jSKOaHIUifDEzOZsRo1dZ2ZBZVrAXfORJYmNTD/UiBU1SQSQ82lovnIaLayWM5XjzEf91TxUGk/hYl4yLuUmoqroKKoNx1BjEJPiaKImU9QTBQYzUFjAiJznppJUtFwhvqd8lBtPYOfPazF19BC4qNXQ2gqsYJFa9h9o+P/D5Ed+BZIja2YmVooGmzZpCmpra//iY/g34y199vmXgAQMz/8Y9vonYFxIHR1oaGhAZmYmBoT0uztBkTbgoLG7qxlQPQELCIiTmMCOebi4gkp0ent6QKtWMyfqjAljkXX0IBqriCU1E22MIjsPVHuZJkwqeEMEeHcdywwYSGswE+IxQEhmE3xtyVGmDZCTmmo4N1WcRVVJBjKSD2D35q+w7qM38d7iOVgVOQdffvgmDm7eAN3xA7ipS2GkekRw92SBQQQxERjI/xEPU1ka02RqL2Zh08ZPEeDrxmpbK6k2NGfPSoDynACBl9+V911gsAAEx4P8OzExMXd5lCyUGb3+iyV18IlJQAKGJybap3thy1v5vZbde9P9vO7H77fd/bPdt7t/loDhypUr2Lx5M8aPHy9mOPMCm9yp/jLZu0kbsAABaQgefV0xYsgwzH71Nby5ZClzTFMew/vvrUSwfxCjvvDt64SonT/ARKUzqSQm1VmuJD9DDkznTqDeSHkKIm21aNpJZFFJFJlE2c21eqqdkILakjQ0XjqD5quU75CHmos5yEo5iO8+/wDTx42Au6MWas4WarkNtJwN7Lg+CPFywsqIWciK34GbxRYqjSdoSmKRU+RXIFMYOcTjWJU3qjiXnbIXY4cPglLgoeA5xkRLle1YdTtO1LJIvvdqVPktMjISra2tDBwIGLqPqfV29/F90Lb1Z2m9+1/34923u58vbT95CUjA8ORl/NTu0P0HZb3dvRP3O9b93J62rT/ffb37+QaDAW+//Tbs7OzAU00FCpk0mzJYSU5z4R1yQg/uPwAL585j/EgH9+5D1ul0qwI8ZUhLScWMKTOglqtgL+fw3ZqV+KPkJKvD3E7O5soCNFzKYNXUxElUjDoS3+YpmkfcJqBg5qOSowwUyPxEldqqSk7h8LZvMHfqWHjYa6FlfRWg4KgehAJKc0SPmpfBRSvHp2/PQ8mpA+xarEJbd9/AY9smzYcikcgMRpFQBAzH0Xg1D79+9SGCPdzh4eCIYf0CMH38MMyc8gqmjx+CEQMD4OWoZVTcJPMeG8djwIABoHEiUHhQJnT38X3Q9oO+H92PW28/6NrS8ScjAQkYnoxcX+qrdnV2gpKmqF28cAHhixaJNRWY+YLCJYmiQSzNSdqBnUqNwf37453ly7Fr+3ZkZ2TiPKPCINK8czhnLEFRwVlknD6DuOhovP7abKg5DTQyHm+Hv45zeYnMzt5GwHAli0UPURgnJZ1Zit0wjYFF9oj5ACwnwJiIpgsnQU7l5ooCXC5Mw/frPsDQUF9oBBlzzlItZYFTsprKDBwYQCgh8MT+aotJw4NxMupnULjqY3c4/wVURGBgkVPk5KZno2S2C2fw0yeRCJ8yDF+vikT01vU4E/0LchK34nT0JsRuX4+fP3sTkXMnoH+ACzScDdO2VMzcpGKkhUqBg6e7Bzb//Au6OjpB4yf9vdwSkIDh5R7/J/L0xJZK5TlrblXjvbffgZ1KwyZZtZmaQc2roZBRQRklyHcQNn8Bft+xHQU5WThfamSkeqVGI3Kzc5CUkIg9v+/Gzz9twpfrN+CTjz7C+FFjoRHsoJILmDV1LApOR4klOqmuwrljbII2sXwDc41lqwm2uiQBNYZ41Bji0FiWgvarGWi6mourRSew/sO34O/pDpooeV5+t6kFHu5ODhgU4IvRg0IweugADO4XCH9PB8yeNBgZMb882RyGu/23OMsTUUchq8YUNJamIvvQRmQf/ho3CqKsCAD/GjZbfGob9mz6ABEzJ8BVrYVKpoYgU0IQePCcLQPnBW/MRXtzCwOHJ/LFkC763EhAAobnZqien44yjeFOB3Zs2wY3ZxcGCqQZWIBBIVdALajQPygUX677AuknT+FiWSmj1Dbqilkh+927fsfGr7/GRx98iLeWv4nIcDHrOTIsDKOHj4KD2okBw6RRg5CdtpeV5Gy+lAVTCTmDE3AvYKg3JqDeSBXZEtF6+QxIy/ijJAvfrlkFfzdHc/UzDmpBDmc7AeNeCcX7y+bhly/ex5HN65G6cyNSdn2P6G1f4ffvPkLCjnW4mrEXTSzZjTKh/zohP97tP4GhVkcmpSQGDmJFOTpmnV39135UGxJwy5iKwmP7sH71UgR5OEMll0HB8eDNDn+KCCszlkjA8Pz81J5YTyVgeGKifYkv3NmFi+fPg/j/KcuWfArWwED1iCnBbde2HTAUFTOivFK9AaeOHcf2X7fis08+w1vL3kQko8CIEGsuhEciIiwCkWHhGDdqDJztXEDcP+OGhSIzZRdaKrLRUHaKZQJb8xZ1n5gbKWtZn4DG0mNou5qL2gv5OPDrDwjxdoeak0PFESMpj0FBXvj03TAk7/0OFzOjUKtPRqM+Cc0s65iS4FJRbzzKJudGfSxa9EdY0lv3+z3e7T+BQaTxoEpzlM9AZjNaimG4fwLEn+BgMojRUzWGRFzNj8avX7+HUG8nKMn5z6mY7yHQxw/79+yVMqFf4p+u5dElYLBIQlo+Pgl0duK7jd/CxdlZjDYyOz01VBtAzmPimHGIOnCQZTmfM5aiMK+AUWSs/fQzvLlkmbn4TiRbRoRRIR5aX2zeDsfYUWMZMKhkPMYNDUZW8k40XjoNkyHNKjS15wihZgIGXQJazlMU0lkUnUrC6EH9oJLLGYg5KFUYO2QAdv24Fuczo1HDHL5xTCNo1kWjSRfHPk+OYMbOahApNJ5OHoM1MFCEkrgtgoQlN4PAwKI5/AkMDboURvlRr4tCnfEIKgujsPnLVfB00EAlEx3UBrAAACAASURBVNg4UaW81e+uFIHhHrxJ1o7hh11/0BfrYa9D50l/T0cCEjA8HTm/VHepq6nF2NGjoVaa6wAQo6egZKakYQMGITYqChdKS1nLOpOOTd//iPfeXoElBACLSENYcu8WFokxBAz2rlDLeUwbPRA5yb+h4fwxmHRiOOf93tIb9aQxJKH1cjZuluXiiw9XwFHJQyXn4KhSY9IrAxD/+yaWxEZRSxQa2qg/gibdERbRJE7GZt4kQwrLgaBEtxpyPj9JSgxmovoTGMTEPOvtP0Ggp+ev1yWbaTwOo8FwCLXGaFzMjcH7S+ZCK+9z19w3fcpUNNSbgF4KDBI4PJ2pRAKGpyPnl+ouqckp8PHyhlIQM5YtpG2uDk44tHsvzpcYcLGsDJmnT+GrdetFLWFRBJawimwECkvv0xZj1IgxcNT2hUYuYP700Sg89jsaylJB5HIUtdPTxGjZR0R6JmMqGi/noCz3KAYGeEAl+x9oBQ5DQ/wRve1LXC9OZRxEFBZqMohEeeJ1zRnSlCXNGhHn/dl6MzAQcNUyVtloNOij0FgSh5v6ZGTE78BAP6e7wEBZ6LqiYgkYXqpf7N8fVgKGv8tE2vMvJfDxR/+Fs6MTBJa0RmYKMXdh5Zvv4JzOgPOlBuRnZ2LD2rVYGhGJJWERWLwoEosXLcbiRQ8ChkgMHzoSdipHaOQ8VoTPguH0fuZMbiSH7AOAgcpfEtdR9fkMHNn1AxwU/4GG+x/4ujnh+7Uf4nqhmN9gMsSiwXBEZFjVJ6LakIZqQypjUqWcCEsGMpHpie1JZz4T4FlrCN3X7w+IN0qoJjQBJ5nC4hj1OIHFpbxofPzO63cTDImf6vDBQxIw/MvfwPP+cQkYnvcR7AX9t7YRt7W1YcrESawYDAECazKORSelnzgFKtGpKyzCD999j8Xh5D+IYMvF5EMIMzfmTyCfQg9tUTiGDBwMtVIDFWeLL1ZH4kr2YVY74U/n670nyaaiNBBJXkVZKj5cFc7elJ2VakTMHIULOSLA0Js/Y1tl1Nuir0LUECiaiY6JINDT8m+Tt4Gyq8Vm0VqeydJcy4GYWU26RJhYJnUyaoqTcGzvRjhoeChkMni7euHr9V8BHXfQ1XmHLEqs9YKvmdSFpygBCRieorBf1FtZA0NZWRkG9R/AJtw/eXkEzJ31+l1n86H9h7B08VIsjuhh4u8JDKz2hc9fiAEhoVAICmgVttj+zYe4VUQTdRxYKOoD7PwtxceZdnHVGId5r49hIa8DvX1x7MAPqCk5cl8z1IMm9D+BwhqYrN/srfc/3XWLVmNhl20gEj59EpqMqSg9/juGDw6EUiaDg8oByyKXoqvjNgMGynXrlHy+L+pP957PJQHDPUUjHXhYCRAwWPh1kpKSEOjnf5e0jUJTKVT1lx9/YtpCYW4+Vr27CqQhRJCj+W7E0cOBxPw5byDY3x8Cx8Hb1R5Htm4QwzWJ/8j494S27pN5a1Eq6vSxuFp0GG+FT4aHnRLvh8/H9cIk1Bmj/iUwUH2GGOaw/nMiFt/O6Q29e1+e5rYIWqKpjcxtJgagIhnf5cz9WBY2CxpODrVcjZnTZ8JUX4eurg5RW5CA4WF/Ci/MeRIwvDBD+ewexAIMBA5ElOft7mkFDGLFsIxTp3Hp3Hns3LaDgUL4wnBmKmLgYKUR9Gg+sjo+a8ar8HJ3h5LnMHZoPxw78CPqGP9RDMtofpADuKUwEY2GONzQxyD1wHdYNGUEsmJ+Ry2FpRqj/9XkTc5qqvpmosaK+MQzs41Yce3ZAoPFnFVrIB8KmccIFCghLwZV+YfwwxerYc+IAlUYN2oCzpWVoquLTEld6JIYMp7dj+sZ3VkChmck+BftthZz0qeffgpXJ2cxqc2c2Obn5Q1DkQ7GYh1WrXhX9B08oqZgyWOgSm7uLq5Q8RzCZk3G2eSdaNDFokEfgxojTXr3N9E0F4m1E4gr6Y+iBFzOjEFNcRrqme095l8BA2ksZSe341r+IZZLQKGtzJ7PkuIeHRgsPhPL8p9qGPT5asNR/Pp5BGpLU3GLalSzqnNxqDPE4JbuCGJ2fQt7+X+glikxfMhInD59xqwxEHfSi/ZtlZ7nQRKQgOFBEpKOP1ACFlAgjWH58uVwZPWFxWxnMiONHzWG1XJOiI7FUnI4W2kAD1wPo4xn82fCIjFu9Fg4OzhCycmwdtVSlGfHoIkBQ/RDAQNFLonEejRRU8YwUXOLrKW0/59OvvS5auNR7P9xNQ7+uBpXs8VsaXJa07EHRUv1fF8xUY0m9gdpQn//vPhZcX88/jCcwOyRPkjatQG3WN4FOcTjUWuMYUyt6XHb4aGWQW0rICRoAA4ePowudKCrowOQTEkP/A28aCdIwPCijegzeB4LMNBy7ty5sFOLpHkECtTmzJyNUr1RLNm5KOzRgWER8SSJlBivDBkGjUoNB7UC2zZ+ilpdCpp0FJtPwECT3f01Bjper09GvS5FTIjTxaJeF8M0Btr/9wn23tfr/iZ/s+Q0dnzzEWaN9MPZlF24ZUhFDct3IE3m0XmULNdnwPDIoGUBhnix9sSFfEwb6ovwqUPwh/4obhkpKU8EB9Ke8pJ+wwAPBwYMvt6B2LxlKzq7OgDyPksZx8/gV/VsbykBw7OV/wtxd9IULG3atGlQK5QMECzAQLkKZXojPli5iuUsPFBL6K5RECgsikDYgjAM6j8IAicgNMAXR377AXX6ZDRTVvJDAgObDPWpqNcdZcBgcRaz8p56ckzfGwi6H6MJu6EkCS3nj6L90nE0XClC3O+/YLCPHbZ/vRrlhYm4ZUzGrZI41JSQmerRNJJaXRxjTL15NpqRAna///22LaDSWJrM+ma6oseKedPgJv//kBmzFbcMR1m2tmhSikdh6k5MHhwErVyAm4sXvtjwJQOGrjt3JO6kF+JX+mgPIQHDo8lLOhtAJ7pwB524fecO7rTfRkf7bXS13UZBVg6G9R/4F1AgcHhn+ZsozMsXk9nCifLi4SKQ7p5HpqSwSCyYtwChwQMZed7s0QOQdfgnZg6yvJWTw5eib+43Yf792COeT6YhYzJqjakwnTuJpitZaKnIY0V+msuzGAX4wFAfTB0zCBcyDqNBFw1TSRxulFB9aDJf3aslo1Z/FLXGI6gtOYBqYxxOH9qC2aMG4J1FU3EplxzaZPJKRoM+ha2LTu0ENOriQDxOjcVE2xHNZEDO9IbzJ9BSnoOWilx0XT2Lrz9+Fyq1HHPnTsKNsmOo00Wh0UC5GakwHNuFGWP6Q6XgYe/gjA9WvQ8ChY4uGm/p72WTgAQML9uIP4bnvdPVCWqWWs5UfyExPh4DQqmWs1iy06It0PKtpctx5sRJRCxchMVhYjTS3Un/QSARFolwsylpzuw5CPQPhVrO4e03pqAkbRdjUxXpHigs9J8Aw8NrCAQqVA6UyPMaz51A69UstFXkicBQnoe2iizUledj0vhhsFfLkHrgJ9QXx6FOdwR1FEp7T1AQ/R11+hTUGejcg6gxxuPUwV8xZWgIxg3xR/Keb1j1NlbB7W6SGvlLxNZkiAexvNbr4lCrT0DDueNoKc9CMwFDZQFuX8nG6cT9UKp42GvkOJu2l5U5NelEh3vpiT2YP20EFLwcKpUWSyMXMzNSR2eXBAyP4TfzvF1CAobnbcR6SX/JdNTR2Ymm1hbs/H0XQkJCIJfLwXEcqzX8V2BYhpSEJAYKSx5VYzCbkUhjeG3Ga/D29GP02GvfWYCK7CPPABgSUF+SgtZLZ9BekYO2ilz2Rk4lRdsqMtFUdRZfrFkNNxdHLJo1AVdyYtBkjEdDMUUq3UtbMJftZER3Mag3HGaTe/qR7Zg57hUEebni169Wi0l8FAZLGdl6iigSK7lRKKqFdpuFpRpT0HwpnVW1ayJtprIQ7ZWZuHkpH65O9nBQKrEqbBajDW8uodyLw7hwej/enDsFCk4OBa/C/DfmobO9nbkXJI2hl/zonmI3JGB4isJ+YW5Fb5EdHag3mfDT5l/g5ecLOc9DUAhiqUiz09kCDssXL0F8dAwIFP6JxkDaxZKIJZgx7VV4uHtBK8jx8+fv4FYxvcFTRTaR1I6iih7dlPTwGgNNvlQytLEsDW1X0tFeng2qFU2mmuaKfNypzERTRS5yTichOMgfznZKJO7dhHpdItr1RNtxf2Bo0CWZQ29j2bkFKXsQMWsq7JRKvBsxG5V5B1BHXE/6GNTrY1BniGWRWOR0r9EnslyMWuJzKj2O5qvZaKaKdhUFaKo4i9bK02i6Xoi3wucxP4K/kwMKknbDpI9Go+EALqcfxMrwmSwMmIBh1vRXUfPHH+js6AIFJkl/L5cEJGB4ucb7Hz0tRRsxDaGjQywUf6cDTaYG/PTTT/Dy9YGc5yAwJlWB2f8thXkswLBw7jwGDCxUtVtUEkUbhS8KN0cdiaGpYgSSZV2MSCJwmDZ5GtxdPdiEu+Ob9xmzKb01Py1gYP4JQxIrH0olQW8zjSEPrZV5zFxDGkNzeTZMlTosXvQ6HLVKTB83DOdOH0azPha1BGTFZpOS7q8gwXIeyASkI58BmYcScSEzCh+/HQY1r8SoQcGI2/EZbjFTVjzEZLpYFoVVbUxiNadrjCm4pU9mvo+Wq6JvoaUiH82kzVSdQVtVHk7H7YWzoIAjr8TqiDm4URSPZuMRXM04jI/fnA+lXA6FXAkvVw98tW4damvq0H5bHHcyHdL3gL4Pj/JnHbXW02cfdPxR7iWd+3gkIAHD45HjC30V+uFagOH27duoq67Bj99+Dx9vH3ACz0BBIeNgb8vDqQ8vgoOV1kDZyqmJyVi8KJxpDWzi/wsdhhkE7oalWkBBdDozgr3wxZg6aSrcXN3g6+6IPT99jBoW3//0gEE01yShoezoXY2BTEkiMNAEnIPm8kzcrirAmfg9CPJ2hVJugzXvRuBiOjG1Ut5EEmqKaWIXq69ZaxFiKC1pDeQvicdNfTy2bvwQzlotHFQCVi6egXNZ0SyayMQotEVz0l0KcGMyqukepcfQejXDbOrKRjM5yC+fRENZGm7qjmPcgACoeY4xymbEbGehuhWZUfjivQioCRg4JeOQ8nZxxdrP1uLGjVsgcsQ7FGxA9bwphPUR/h408T/o+CPcSjr1MUlAAobHJMgX+TIWYKBJ4datW/j5hx9BZSB5jgPP84z+wl4uoG8fHr4yDeyoUpsVMIwfPYbVdSbn85Jw0ZlMlBiL5i/CwnkLsXD+ItA2le6ksFRrjYF8C38FBlcEeDtj/8+foIYikJjGILKXPmlTkhjRlIg6Ywoaz59A65VM0ZRUKUYlNVQVoLUyG51Xz6DlQgaWz38NWpUKal6OtavfxNWMfQwQGox/j1Ai38DNEspIpvwKKqpDmdzRSN63EaMG9We1qAcEeeD3nz7HH8UUbkvaBVFok/mMTFyiDJi/wZjCtJqmCyfQeOE4TBSBpE9Bo06Mavr+0zehFGTQqpUIf3U8buSnoirrCL7979sMGKjUJ1XbIye/l7sX1q1dj+vXrzNQoBcDCRhe5F+7+GwSMLz4Y/yPnvCusYBWSGPo6EBtdQ1+3bIFIUGBDBRUghIaTgmlQkBfmQxjFXZY6O4PN9VfE9yGDhiIguwcLJo7H3NnzcZr02dgwthxGD70FQwbPBQjhg3HpPETMXPGa5g7Zy4WLVgkgoSl5rM583nalOnwcHODj5s99vz4XzM3EplTaEKlt2yREvvvIakP70d40GcpKskSmdRQehRNF06i6XI6mq5koq48F81XzqD9XDKaS47iTOxuhAb4QWAgKcenkVNQmUPhpEmoJ62B+RxIcyAfSQJulYjaj0iLHY1aYxT0Z/ZiRfgbUJOpTpAjbNZE5CftQp0ukYWpiiVFqawn+R6IqykRtbpEVOVG42LGQZSd2gvjid0wpu5FacpvyD3yE774IBKCYAteoYBfXwcc+uEL/JEdjU1rV0HBcVDJaVx5aEl74AX4ePvh240bUX3zlpgJbUW3Si8ND/p7kEbwoOMPur50/PFLQAKGxy/T5/6K9EOliKMuMhl0iK251oSDu3ZjWL+BEBS26KOWw16mhct/NBA0fTBR+z9Ic/dAlq8X+qlVZo2Bh5rj4OfpjoTDhzBu+Aj4urhCqxCgFcRjKrmM1VvW8DycNGoE+vpi1KjRmD17NhYtXMTqPC8OX4KIRUvw2vTX4e/pBzeNGlu//Ai3iM7CeAQmw2FGCFfLMpfJdv/4gMD6WmSyIX8GMZM2FB9BY/EhNFE1NGMsqABQtSGZ1YgWE9koqS0Va1YsgLNGAYFXQ/X/Jt2d365Boz4FTYXRaNQRoCWzaxLlBfkX6vWxqDNGo7YkBjUlibihP4rd334MXxcnyHkVvPraYeOHESjP3g+TMQZ1JTGoLomDieSgj0K9MQnZsb9i64bV+OSdMLy5aCYWzp6IeVPGYtyQ/vBwcYGMEyBjgK6AvYrDguljUJ1zGFu+/Ah9FDy0tgJUgg0c5P8BL1D4sRoDAoKw4+ctaKyuA+6IXNz0/bhDfoeHAIfn/kfxkj2ABAwv2YA/zOPSO2BnVyfTEujH39LUhISYWIwdMRJUplPgeRCdtppTQqOwxXh7DjG+PvgjaCAuBYZisBUlhpKnuHkNBoaEQinj2efVciXEpoJaTmYLy1INpVwJpVINby8fTBg/kZmaGDV3WCTmvj4PIf7BsJPL8fVHb6LqLJmSomFildYofl/kJbKezB/7uiGJOWyLUncg/cgm5CZsg+7YXlzKisb1Qprkj7JwVopeqsyPQ+LuTfB2soOGV0MpKDB+kD8aDGlo1hHzKlFlUMlNsSRpg454m+iZaMKPRW1JIqPVyEvciYWvToRKUEAj74MxA3wQs+0L3CQHNismRBFKRAkSjxvGo1g6azRcVTZQczYsYY3MfXZyjlW8U8pVEDgNBLkSWp7HYH9P7PjmE1QWH8K+bz6DvYyHg40CNmoZewGQK2hstFDJeQzpPxD79+xFo8mErg7xxYG9QEjA8DA/q+fqHAkYnqvhenqdJTsy+RRaWlpw4uRJTJ02DQqFgoWj2stU7C1SUMgw2k6Og/5eqPENQptvf5T4hWCgWg0VgQcnQMkroeCVEKgug0IFuZxnDJ7E4kmgwICBlnRNtk8JBaeAIFfAyd4Zo4aPZhnPkeERCFu4AIP6DYCdIOC9iNdhPEUV16hMZbSoMZgJ6x47GJg1EHL40rWLju3BsvlT0T/AHRNGDkHknBlYt3IZfvvmE0Rv/RJJO79B/LYN2Lz2XcwYORAOAgcVp4QgKNDPyxG1huNoYCBGGogIDOQfMelSzf4CcirHosYQx5zJ1wsTsXXDBwhwc4ZGbgMNZ4uFMycjM2E3anRJaKIEOkMsbhoS8IfxONaujICnI2koAnheA7nCwQzESqiY/0AJF40GEwYGY9u69/FH0TFcNR5A7A9r4fIfHg59lEwjVAgyEDAo5Rr2MkDjP3r0aMTHx6OpqQmU2EiRSg9jTnp631zpTo9DAhIwPA4pvmjXIA7+jk7cbmtHwdmzmLdgAZRqFYs+ogI59jYKFgs/zE6JPT5e+CMwAB0+vrgV0A9b3FzgoyDyPA4qXsmAgZML4AkklAJ4QQ53Bw0GBvpi1OD+GD98CEYPGcC2Xe1Ie7BljlaVXMEmMSc7Z4x8ZSQWLZiPiPAFGD1yFJztHPDq2GE4E7UZZN4h84v4pv1PWEgf3uzUwJLLEhC382uMHBICXqGEnFdDkAuw4zjWd2cVD3c7JVzUPOw5G2jITi/joVRowQscZk4YimrDMeYHEM1IlO0sRiExYNCZifyIdI+akfI0EnE2+TcsnTUBTgoOSk4BZwcnfLxiKc6dOowWXSwaDTGo0VFNihRkxm3HnAnD4KISWHSRklNDJbOBlpfBw1GDMYMC8da8KTix70fUFiez+s9V+n2I3/QFNDIOGlsFHJU8QnkF7HkBAgN3MfpMUCowY+ZrSM/MRFtrq5l99cF+hhftJ/KiP48EDC/6CP+T5yNn8+07uHTxEla+vxpaR3sWlkqlOjVysj/LMJoXsNvVDxdDQtAc4I12fz+kBQRglB0HjWDLCukwYOBUUPIKtu3l7ohXp4/BmvcjsH/H10iL24n01P04Hr8L+7Z9hQ/fmYvRg3zZpES+CTJV0Ruue193TJo4AWFh8zF9+gx4e3gj1NsVR37dgBp9CqO0fpKJbRYNhBy9JkMijh/ahMljhjANiuNVLFNYQyY2QQlOIABVQeDJZEPakgo8LRUa+Hk5Yd/mdaghkxGLIiLTEwED1YiIFaORdAR0BHBkUjKDA9VTKI7H4U2fYFgQFUEiDcwOwT6++O3rj/FHTjRjmG3URzNaEKLsOLn/e3wQNh1zJwzHjJGD8dr4AYiYPQafvzcfSXu/QRWVQzXGo153GE2UaV10EHGbv0IfFc8czkNUKqx28sIIhQIOMhtoCNw4XvQ52GkQuXQJSowl6Gy/LdX+/Ce/sV7+GQkYevkAPZPudXWh+sZNfLvxW7h6uDNQUFCUioyHk40Af60Ntri4ocZzIK73C0R1sCeuBwZipYMGvJoDp5BDIGoFAhG5Ana8AmNfGYAfv/wAupwENFbmo6lKbA0U6nmtAI2Veai+mI74vd/j1QkjYC/IoCKfBKeGWtAiODAYc+bMxrz5CxEc1A+OCg4/fbYC1wvIPi/a6EVweERSvEdwVLNwWF0iynNj8fPadzFygB+cNeQ3kUHDy8ELCnCCEjyBAgEG8UbJ5dAKMrwyIAg/rX8XVYVUvCeONWuNgYCBAIGV3TQv6XnERvvjcDl9L9a8PQ/ujvZQcOSP4TFxWD8k7PwW1YVxaCKzmj4GDUYxv+FmcQIMabuRF78dxcd+R8XZONSUUhJcPOrYOeS4j2LO++rCKMT98g3+R82DE2SYpBRwyCsEX7i54hW5DRz7kFOaZ3QnnCDA0dkZa9aswbWKSgkYnsmP9MneVAKGJyvf5/LqzU1NiD4UhQEDBjBQ4DlKWiNQ4OHLafGRuwvKAgPQEBCMm6G+uBXqhzRvD4wR5JAL9myCJJOTkoGCEnOmTELakd/RdK0QDZVZaCnPR2tFPlrK89iyrbLg7r66SzlIPLSdle3UyDlWg1jJaeHi7I4JEyZiYVgkBg8eDgcFh1WLXkPp8f2svgILVWVv2E8OGFh4KXujT0FFdjRifv0cHy6ZiZkTh+GVgQEI9veAr0df+Lq5INjLA0MCfTF1eH8snzMeUb+uwx+GVFaGtKn4MBp1R5jTWdQYEpnGQE5nymhm/gYzOR45qKkRrTiVDc2M3YK5U8bCXqFiDmEtb4t5r45DZuyvqNET6yvlWZAJKoYtWX0KI2khZDJKRgMzWxGQkpziUaunaKp4VOhikPDDRjO1iS2mqGxx3NMPx/188UHfvvDj7Bg40PeAnNmU2BgQEICd23fAVF//XH7PpU7fWwISMNxbNi/PEXOuAjq7GI12XnYuZk6ext6EZQoZbAXiQFLBV8bhXfu+yAsMQV1wIOqD/VAd6oebIQOwztUZfhwHrcwBHNmlBUqQEvDquJHIPbofjcQnVFWAlioDTBfOoiwrEfknDqEkKxE1ZXlov6pD29WzjL66qiwdW75eA29HZ6h4cnyqoFKqMXzQMEQsCMfoEaPR116DGWMG4kzUz0xjaLjLk/TkgIGylMVqb+QToLDYJFTlxyInYRuO7FiPnd99iC3r38XmdSuw46v3cXjTGpzY9x0uZxxkYazMH6KLQyMrLCTyIZHWQNclMCAHMtVh/lNLIE1BzM9ooOgr4xHcLE7EoZ83YFRoMOxY6VQe9lriUpoF3cmDqCZ6b2MsY2mtN1KSXCKqjaloIF+MmWqjkUJu6VmIY0qXyHwY1/TROPz9BlbrQqmQY5raBule3ij080KyjzeWOzjBW07+DTXTikgrVPIyjB41GsePHcfttjbml6LvkFTx7fmfOiRgeP7H8N8/Af2WKV/hdgcqLl/B6rffRV+FBhqekqBk6KNUQCsosUCrRZaXJ26EBKExMBB3/Hxws18gyoNfwVxHB9jL5bC3VTE7tFKhRoiXN44f2Y6mylNoqjyB5iodik+dwg8ff4SIN6Zj9qyxCJs/HV++vwLH9m7FrdLTaKzKRHNVNgqPRWPu1MlQCgLkSg4cL8OQwGCEz56DEUOHwt5Og2DfvojbuYFNpI1U3J5N1g/vTLb4Dp7e8q/8SNZ0GOL6vftuMsQwYCDSwKtZ8fjhv++in4cbVHKOOfY9Xeyw/qOlOJd5mPkOGgxRqKcQVkMSbhqP3bc0KIFRdcF+bP3uE8gpkY6XY6ZKhkxfXxQEuKPE2xXxns543V4LO14FuaCCUuCg4GVQKpQsa73MIPobpFKg//7n2BuuIAFDbxiFZ90HlrjQiYbaOuz4dSu8+7pCY8uJnDksvFGGiUoBsW4+qAgOwbX+wWgKCESbvy9uhgZB7zcAU9VKaGQyaOTkcOWhFhT48r8fovpCPlqqMtFyLRslWclYNH06PBX2UNvKQW+maoUMbmoeEwYF4NvPl8OQF4Xmq6dwy3gSmzd8BCc7HnKlLeSCLXzc3TFi8DB4uvtAUCjhqOGw+4ePUVMUD1Mx2ddTmFP36U30957Ie+7DPwcGpklQfgPRbRtToT9xEKsiZsPDQcOcwgpOhlBfN2z5cjUq8swmKRbGKxLt9dwfsf907Rv5+7Fpw/sM1DWcHHPUHHL9/BgwFPq5ISvQB7td3TFeKWZEU3ixQIEFnABXByds3PAVbl3/Q6oR/ax/y4/p/hIwPCZBPteX6epCe0srK6YzcugrLENXJePAyykaSYtBvBzbne1xzd8f1UEhuBESiuaAQDQF+uFGaAhOegZitJIcxWReUELN8Rjg74fC06loLC9Gc0UOMyO9HzkHjrY2cCKnspyieFQsacuOk8FO/h/4etjjo5VhuJx5EI3nTiNt388Y1s8bvEIOuUKARq2Bg9YRCoUdzEo13QAAIABJREFUeEEDtSDDj2vexvXcaJiK42Gikp1Ejf0IDuWne+6/AQazY9oYh/qSWFSXJCAj/lfMnz4afdVKFsJKuSPDQrxxaMsXuHaWzFJUu4HKnh42+xR6BjKi07iWdwDffLaCRSQ5cDIs1PAo8PdHgb87ivw9kB/ojbPeHvjJUYuBvBwcr4Ugp/wIyozmMCA4FElx8WhtbpZMSc/1ZCB2XgKGF2AQ/8kjUAIbJSaxZUcnyi9fweKwCPamz5LTeAEywR72Sg1WOzrgvJ8n6oM9URMciNpAClENRG2IP64Hh+CgqycGKWRQymXgeQU0tnKsXhyOayU5aKwQ/QalmbEY7GmH9xfPw1efrICrkwYKgcj2eBAwaGUyqHkN/D19sfmTt3Cz8BiKkvchYuYUNukJgh0UlD3MUeirGgpBCTXfB998uBiVWYfRSPxDrGbziwkMd/0b5IcwHkZtSRRuGOKRtOd7THmlP+yUJBtiRbXBxGEhSN77PW7pEtFgiEGT4dADgaE85wA+WxnJckhc5LZYYiegyM8fhf7u0Pt6Ij/AEwY/J2R5OmOFo/i9kPF2LCiBIq+INPGNmbNxrqQUncTA2iHWAZeS3/7Jr/PZf0YChmc/Bs+kB5aynMSWaaqrx46t2+Dm3BcKOcfCRIk8jVcKmK61x9GAANwM9UF9sAdqg/xRFxiEhsAAVIb64YpfIH5xdkGQQsaYOXlegJ0th8PbN6H6YjYayrPQVJ6HuO1f4+fP3oLxzBGkH/0NLg42jJLaQSFHkIsdglycoLbVQivvi2lDByH90HaUZyfiy/eWw55oMmRqMQpHbgMtZ8s4fqiucsqejag+G40GFvsvJos9XS2g57fwnvvwzzUGcnTXM9ZVyqWIgqmE+JTiUVmYgP0/r8Gw0ADGS0X5H3a8DK+NHYL0mG2sfgOFsIpRSPfqazwuZOzDysVzQZqih8wWKxxV0Pv5oYiAwccTZ/09UOzviCL/vjjk44WpdloISsro5qC2Jac0D0etPTZ+9TUj27N8vyRgeCY/7399UwkY/rUIn88LWIqutLe3oyAvD68MGQqFXORAojBTNafA0P/nA9jl5obykBDcCPVHfaAfazVBAagNDkBZqBfOefnhq74u8FNysON4xiTqyCmQkxaLuopsNFSmo6UyD5eyElCRG8ciYLb/9D7shP8NZ5USS16fhrht67H72w/w6qgR0Mq08HZ2wVerI1CtP4rDm9ZhRKA/Qj08MCzADVOH+mHprPHY+NkKHI/+FZUFMeytmLKfKeqHsoh7npTvNSk+zf3/BhjMEVGMbjseFIVFz1lrTEJFQTQ2r1+Nft4u0MhtmUPaXsHhjSmjkZW4i/EtURLdPeViSEDp6X2ImD0FGhsO/pwcH7nYweDjYwYGD+h8qbkjP8Aduf7e+MXFEUOVNoyBlTiwyNdALxWhQcE4deIko1IhbZSa9Pf8SUAChudvzB5Ljy3AcOPGDax67z1olORIFPmNiB/HSaHFeo0DLgT5oTaYtIQQ1AaGwsTAwRfX/L1QGOyOEk9frHN1hQ8VmTdnx7pp7FCcmQLTtUw0Xj+NlsoctF/NQx3F2RcfwIfL58CBs8UAb39kJx5ArTEON4r24/CWTxHq7QaVUokFrw7B5Zy9uJC+H2l7tyBp989IO7gRGUe+R1HyLlzKTcB1Qypq9HHMhk58SdUsm/g+E+Az9z38G2AQQ1eJaK+xOAUNxakwFRMQxqOmJBoXs6OxYfUS+Lk4QM3CWJWwV/KYNXEYTh7ZihrdfcJ4DYnQn9yLGWOHwd6GR7DAY62nM4ze3ijyc0OptzsMPp4o9vGDzscHej9XZPv2xedaFVyVSsiV5OMQxO+PQomIsDBUVlaKZkqJYO+x/F6f9kUkYHjaEu8F96MgpLauO2hsb8Dp5ERGxWwrqODYRwOVTIH/re2DiXY8TnuHoDGgP2pCAnGjH2kJgWgMCMAt30AYA3xQGNgXRi8PfOPmikCFAHtbBYuDd9VqoMtIQWNVDlqrzqC9IhMtF8+wesk3ig5j3qzpcFLYInz6aNwoTmH00RSOeeH0bny4ZDajlpg0ciCyEnagRkdJYams0AzTBgxU55lqHBMBHU20lB0sxv+zZK5nPvnfG5j+3r841v86yoRmABeDBspcJnoMM/8To8cwP5OYGU2ag6g9iOG5RN0dh9rSRJSe2YPPls2CrwNlRasg5zRQK1UYNTQExw78jBuGFNSUxKDWQKR7BBRirWzKdSg4thujg32ZthGg4bDNzQVGbw8Y/dxQ7OcBvY8XCuhlwM8DBl93FPp7YZ+fN2ZoOShVNqLT+j9Kdl/Hvs6I2r8X7Q2NaOwSabnJpGRp3X8Clv09LbufK20/HQlIwPB05Nyr7sKAAV24dqMCC6ZPhSCXw0ahgdZGA3u5Ap4aW3zr1RcVwcPQ5t2PaQx/9Pdly+oAf1R4B6AowBtFAX1h9PHAJk939FcIsJMRSZ4CdgKPnGMxaKykspfpaC/PQNO5kyzT93rREUyfPBGuGhk2rFzA4uwbKGNZF4sbBbFI3PUt/Lw8MXZwCItKqtUfZQV4xASwJ0uSd09Ty2MCm78CA03McSyhjZ6dKC8aGWeSaCYiUxE9szUw3K9/1foYmEqTUHZyN5bPnoC+dvaQ83YQBA00AoeJg/1QpUvFLarzYIgSAclcv6LamIjMpN8Q5KCBipMjyI7DYXcPNrYlvm4o9PdEsa8X8gM8cDbAFSU+pEH44HRIMDa6OyFY2QcU4mpnqwbPqcErBEweNQIVFy6ggcxJVqBAk3/3v54AwXpf9/Ol7ScvAQkYnryMe+UdGtvacej33XAm1lROAVuFFjJBCXcbOZar7aALDEWj3wC0+wahLsAXNcG+uBXoi0sB3ijz9kGRnydzRBp8PbDLzxvDlMT3L4dMQXTaHOIPbEfN5Uy0VmYyYDCVHGPAcKM4CjOnToSnA4etG95lb/70tkwTY70hGSWnDmJF5BuYONgbpw7+iFpGQUFZwVTdjOoX3PuN/H4TZ6849re+E2cRaUAUgpqE5oun0XL5DJrOH0edUWRZFbmTRM6k+z2DyZiEOrO5KDthO4aGerPkM86WY0y4Lvz/RUlGNG6WJDCqDMp8NumIgDCRmZlSD/4MF64P1JwMQ+0FpPr4wkgAwIDBC0W+3neBoczbFZc9PGH09sVJXx8s06rhZduHhRTbqIhyXYCjIGDzTz+i1tQoAUOvnAHu3ykJGO4vnxfyKL20VV67iYmDRjC7sCCowfFq2Kg4jBJ4HHULQotfCJr9AlAfQJqCL+qCfHHdzxsGMiv40kThiUI/F+aQjAnyxSQVRSXZwEYQ7c0b136I6+fT0VyZgfbyTNQZjjJguKk7gjcXzoGnpg/2/fhfVDOzSDyjfqaQzBtFSTi6/0esXzEL+fE/s4mTWEapCM2tkgTUGJ9jYLDSPAjgqEBPjV6k1W64cByNFflopnYlCw3nScMSmVYJOJnGZPX57iBBEUsNlMuhi8ENfSLeCp8GJwc1o/y2s1XAXWWDS/mpqC4jvwydR+enokGXiJsFUdj5wxpoZf+BxtYGkx0UyPIPZKCg9yVTkjf0Pt4sMolpDL4uuOhJzQMGby/sc/fEOM4WNmob/F+1wMgW7WQyhAQF4GLpeRa6ej8NwPpYT+sv5I+wlz+UBAy9fIAeV/foB2dxOLe2tmHLL9vgxmsZIRoBA1VUc1baYpWTA276D0Kbnz9uhfqiqr8Pbob64VaADy77ECi4Q+frCZ2fJ4r9PaD388SpkADMV9nAjvsfyBValjE9f/ZUXDGcQHNlFpovp6NWn8omwlu6I/jm4xXwte+DQ798imoqWGMgx6rFbJKE64VxuJy5HzcKyRYuUk8zYGC1CZ5jYKBnMU/uDBSMSagtSfn/2XsL76juff3/D/itdde655xCkpmtY5n4uCXBvUrd/VRODaie3ltvqVChrqd22lLDQwhewQkhjraFAC0eQgpU4PW7788kEGhLDU6h32StvWaP7dnZ8nk+b3meh61Lp/L16rm0rKthx9o076P18zk0N4pxj4joSc1h/3fbt9HxMV2ULmNHnegjTeKRu6+lKN+Lx7DxZRqc2a+Y9XWz2CRaSnXiFz2V1rpp7KgrZ938dxn+zxtwGw5yNCdX5HiojsWpjxVQE5N21QhLw2FqYulUUnVCJgQF1MUKqYkXsTCe4H9yPPjtLjiEGe008YqukmXwxPCH2dHSsq8QLddh59/RfwQ6geHoP0eHZQ/bQUHaBzdu3Eiv0p7qBtYNUcu0yMvUON02KC9O0Jooprk4xurecdb0TvBlaZwvYiFVdKyNCjAEFDDUxsPUxcMsSkS4I1sjYHXF0rxYmptQgZ+6RZNoWTuX1s8/3QcMW+rHUzHqZVL+TD547h4l8NZubSkKqWlxt0lprwDxC2hTTJUZ9rGfSkqD3L5oob6CTQ1T2bx0OjubFihQaG2qUqqzrZ99qixCBTB/CTDIsdshhj11Uoiexh03Xk6eP23JKbySFx+4iQ11U1QHmHxWooUdtdNoqZ/E53Pe5pqLzsYwHARtg3/m57A0FKUulk91PA0MjeEQ9dGger44WURlqohFbYu0sn4QD3Oq28CvFHFNlU4U8mIiEGLF8hXKDbB9cnJYLujOjRzRI9AJDEf08B5dGxerTuEtvPzyy3h0A8s0sMRVTddJOjVG+HJp6lbCjuKwKjSv7SHEthQbozFVcFz4f1aWChjiRdTFg9RKiiEeVt0rzwc8JOwu+DK9GA4XLsvJmy8NZ+vns5HZbzpikOKxtFZO4YweRbz/3F1sqp+iIol0Lj0tMS2dRvsWZVgjNYa2wvMP8vTHTgShZv3SQSTGO/XlfFldxpblM9nQOJ1d6ySNtIidaxawY+WnbG2YqjgZChh+SSqpQYx+xtFcU0ZT5RROHdAb27SxNA1xlaud/qayCt3eIJ8ZR0tNBS0qiptE/axXOaFnKQ7TScQ2eLCogM8DIepieVTHg1THoipaEGCQpSYmhLcQixPpx/poHguSUe7z5lHa1pkmBEmPU1MEuIcefFDxGuT66/w7No5AJzAcG+fpd+9le8TQ0tJCaUkJPkMn08rCsnUsS6e/18PHqT7sSsbZXlpEc1IMeIppjRazpSCiAOGT0gBVqn2xUAFDXSxGfSzMqnCA0cVF9M52kJfhxXL6sHQHZ5xczNrGaQoYttRLKikNDOuWzOTDF+7nvWfvUBGDtJ22A4MwmJvbBn+RuBZpaCmQqmhCyUYfO0DQMdUj6x2BYUvDZDbWTWHuhBd57v5r+XrNAnatnsv2ZTPZ2iAMbkn5tKfY0l1LB2+v43NhQoss96aqCTx/761E8wvRnW6lTnv6SX1Zt0hkMUbTUv8hO+qFKS6F56lsqi9jUcXzFLhssiyNpMfF84kYawoD1MVzVXtqVTzCwpRIYwRZFgqzLBShPhKlLhpVXIfGaC6NsTAT4705zcpVAofm/zn8eR0alqkTCodoamral8r83Rdz5waO+BHoBIYjfoiPgh/YC99/+x189z0fjHoPcWOzbA2v043T5abQncHIbJOdkSTreqdoSRazPVnKxuJiPkvGFOtVzRxV4VkihXykKFkXSbE4nqAqWcTc4jA3uTx4dD8OW1dyCR49i8lj32TDmtlsXFnOtpqJfLtkKq0y8C+ZQNOc99QApTpklGroWGUwI1LRAhZb69t69Ns6kuR1STt1HBCPpfXtNdJ6KwY6H6guq9XzKrj9sgs5d2AxzVJwbpyhOBvNddPS3I12DkftVDY3TOOrxulsWjqdzY1T2SzHQtUfhOA3geWLR/H80zcxsE8MvzsbtzMbT5aLPFPnkdtv4Kvq0WxsrGBD4zQ2N1QokNrZUMZXSyYw5tWHlJhhhm3Q3W1RlVtCndQXkj5q4oVUJdL1BakxpBnQEjXsX5bE5RqJsjQc4hm3QaF9HA63C39XlzL+EeLks08+xbc7xSN6T6fI3lEwJPzcLnQCw88doT/D+3thz3ff892ubxjUr79qJzQtA02zyNZMunkdzE+VsKV7iq3dEmxPFdOcKmV9MslSYbzGAiqloIhOMiC0dSPVRpJUKT2dQioTAUYWFpEUYTXdxCPbzjI4u38vNq2ay3pJdSytoLV6Ks214k0s9pblbKuWtkkxjpF00fj0IgXaAzyP01aVxxII/Ni+bq+Z3gYMHyrQW/7JRAZEiugZyWHxx6PThXYhtu2rraRrElKAb6mfQGt9mvy2tbZMFe03N8xg1YIyXnr4FvqmCvAaGbgdTtwOCzvDSf9klLGvPM7GhlnKBEiIbBsbpirznh11E9hWPZamhWN54JbLVHea7jIY7PfRGOypisvVCT+18SJl1tMRCH6wHo+qzwinpTweYaDbgWlZuDNsnIalQCcWitDavD09QemsPx/1o0onMBz1p+gw7GCbEc/cT2ajZzmUb6/DcmEbLgJOB3fk5/JV9z582SPOjlSU7cVJNhaX8EVMUgVSbJaiowBCesZYnShUM8a6SEz1t9fG8qmPFzIhmeAsp0FOloEvy62Y1AUOjbdH3kvz8hlI+kQYy9vqxtHSmGYttzSme+kFJNLFZyF4jVfMXwUeKr8u7ZoT2l4/dHfOjw3IR8tr0iKaTieNQ5zbln06iYBLJ1aYw6vPPoTIesjSXDeG5jrxY96/fF37IbuWvEdr9Ri2VpdRP+t9nrj3ZnokQ8pYx+304nH48DpsYjnZDL/1GpbNEfvQybTUyzGV3yxToCB1ixbZft0Eln36IRee2ltJpXssJ1fl5lAfLKU2Xkh1Mlc1GoiL2w/AoEPEUBsVWW4BkEIWJhP8T34eBZqm1HA1w6O8r02nxtgPPlTKq50Ob4fhnj7Cm+gEhiN8gI+KzbdFDH+/5FIVLbhMi64uL/lZOj3cDuYFS9koWkgilFccobk4ztpUkmVh6VP/ITAsSUhve0DlmYXPIN0ry4K5LEjEedjvI2xa6DJr1f34NBdJv0ntlLdpXjpT5dW3iHS0EK2k40YRudoF4ipoqZWWS8mBtzuytdcYJqrXZTA7Wgb6X78fAn5p+Yut9VNY9ulEYrlusj0uzj/nNFUHSHdeSRqtjedQP4lNtRPZIKm3+eP56P3n+N9rzqMkmK0c9ixxuDNceA0fha5srjj3VD4a97KS5BaLTzmWO5WVqJj3CA9EgHkCrXUCQpOonPou4Rwbj2YSMLN4sKCQ+nBSpZDSbakSLUrUuD91dPC6SGQsLi6iMlFAXSTK6GiSE0wd8f02zGxchoXbsDjt5MF8u/ubzlTSUTEoHHonOoHh0MfnmH23XdlSqVvu2UvT6jV4LBduIaAZFplmNrFMB9fmmGxP9qUlUcyW0gQtxTE2lMZYkYgqUKiLSk1h/6Ag0cMSxV8IszQaVlyG2kShIjw1xiKUxQP09pqYhkaW20eWcCQcGZzVI8yq2ePZUDMzPTgtlW4kYf1KB9J+YFCRQ714FlewoXoKaxZNYvWCCWxYInLT6cjh1w/IR0fBWmbssu+SOhNBwZVzxnLagBSWrpGfk8ftfz+L+RPfYfnscpZ9ml6qp4+h7LUnuefma+jftyfZXknNOLF1B7aehc8yCOT4OW9wX0a/9gifV41l87JxbGv8gB2No9lRO57W6nK21lawqW4KayrHsfLj19lRP56vFk/g/Vcex2NoeDWDHi4H7wZD1EXCip+wRLWqyrk/NDCk6xBSiwgovsPiZAnD3DYFloalCTAI6TGt3NtQW6fqDNKhJA0R8ncwqe2Yven+RDveCQx/opPZ8V9p7xlXj99+x2MjRihZZOW3YFjYmpduWgYTIkG2lCT5JpZQraktiSQrSqWHva3Q2AEU2meKAgz18RBLowGWJNNSzMvDIZaFgiwoDnFrJI+EnoHTMOjq9mBZJv6sv3B+/1KqZ03ky+oKJQW9RaKFhnJVT0gTucrZVjuJjbVlfL5wIhPeeJrrLz6dK88cSPm/H2fbUmFPHx2D/G8Bpy0NkgabzPbaqYp5vL5yHA/dfgVuLRPTaZPtzCDf0onl+CgNFpLIzyHP1Mh2ZmJpTrJsF7plYls6hX6bbiE/V5w5kHGvPMYXi8eyUTwalo1mS/27bG/4kGZlBTqFTVXTWTanjA9efoiLToox453hyt2taeE4bv3HJWqi4HMYnOR2MjccozaajgglhdQQCal0Uvu5/7FH8YUWbov4Nkg7a0M0zBuRInoYmXidor8k0aOhrj9R8pVGiIPBoOPzjtdx5/ofcwQ6geGPOe5H/FfbIwaZle3euZPePXuqcF7N3HQLX5aHs3wmq7uVsrk0zLbSGC2JEjYmUywpCauoQJjNtQlhOe+PGGRgqE6EaIgFWRotorI4wIKSKPXROCsjMQUUZaVxrtKyiGg6WaaFwzTxin2nsysDe5cw9e2nWVM5ma9qytnaKJ1GopOUZvduqZ5I1cy3GH771YTzPHgMJ9GCbF549E7VubN1abqN87cMzH/0d0TAbmudSFFMp1Uks2snML/8JXpEC3BrLhU52IaOqTmRR4kkZHFbJjk+m2CBi1TYz5mDSnj4tiuYM+YlNi6erPgIijkuKTrFkhaJkQo21lSwav5EJv77SS46/QRy7S5ced4ANgjjun4iyz99n76psHLEy9VtLsyzWRaOUic1pHiQJfHILwKGBcVBloYjLAtFlUd0Y6SA2aVxLnCb+B3tktymSmOGgyFlDCXXpYCBXKcdQUHWO//++CPQCQx//Dk4Inuw9/u9fPv99+z5/nvl5Wy7XGrm5nEauEyTAt3NfaEAm7uX0lISZG3vON+FSvispJjKlBCXAkgqoToWUF1JHWeKAgwinifKm5UpAYYYNbEEjeEoNUkRXgszKhTgZM2Jx7BwyExX0/DYFrqWRSrP5t6hl/DxmBeom/kmKz59m1Wz32HZzDeZ+c4TXH/pKeTYXXGbkoow6JaM8c6/RtLcVMn2lbP21Rja+Q7/qQFfopq01HXHrql0ekjSYVIz2bB4DJtqxDRIIqF0a63UFaSldFPjBLbWiZfCNFprylSX0ZfV43ht5L30TcYpSYZIxQPqUdZ7lMbo0zPJqSf358Z/nMfLDw1hztjnWV+ZjjyaVT1mEjuqJ9JSXU5r7VTFaN5cNZVVn4xn6qjnue7iwRT6MvBpWcQKvSz8+EO+bCxnc+0EZr73LH4jC0t3U2S6uD2Ux2fBIEuSQmwT/4VYGzAUHbLGMK8kyPJglFWBOAtTIpuST00yyr2BIsKmC49pocx8RH1XNxg3dix79+5ps//sTCUdkQHgd260Exh+5wE8ar/+DbRK+8e3O7nvppvp4hNPYDehriaaK4u4uytVsd60Jkr4skeE1lSC7dEkyxIxqg5RaOwIED+1/lkoh8pUkCcCufTWs9Btgy4uF5blwZ/lQtfdmIZBUZ6bcwb3YcgV53DzNZdwyRmDSRQGsMXKUzOUlHPQb3P79ZewsnIqrU2L2L58ZtvgXN5GfpN8vQzA7cuRSzU1CymsdpoCpq31Il8tnT5SDJfZ/zRVL1lY9gzTRj3KwqlvsnL+ODbVTKK1Zhzf1HyQ3kch8zVIDWUc25U3wkQ215SxbMabLBr/LHM/HMmcD55g4bhnaJj2OmsXjFGdXJsbytjcMJbW2jJ21U5SJLVtjaPZ2jBepaWaayfxZdUY6j5+i4nvPMnQq88nmOfHpXygvcScNi/cezMbl05iU+MYvqyawAPXX4HfIexkmxLLYlJBiPpEDp92y1bdZsuDSWqjIZYkRDPpwKix4/MFxYUsCxexulD8GkSeO8TyQJyKWDf6mxlKsdXjsJV1q5z7S/9+KXu/3c3e72BXJxn6qBxCOoHhqDwtv3+n9nwLX7OXr7duon80QabLg2H4yM2yMV0aF+WYNJUOYHcixZc9QmwpjrM5lqQxGv7ZLpSOg8KPrS9K5SsN/0XxUp7OLqS/5sSwsnC6ZbC3yOvqItfhUnLQlqFhu3QM24lhOjB0J6ZyktMp8ru5/vJzWPzROFrXVdHatICWlbMUIOwHgnZAaH88csAgLaZbG6axrXFaWseosYLmhslqke6qrQ0VVE97nUsGl3D2iSXcd/u1jHnjKT4e+y+qpr7Nqk8/ZP3iiWyubZf3kBTaJLbVlCs/Z2F5y3ZEfnyb2JSq1l55bQrNy8RkZ7JSQ20V3kdDBV/WlvHZwnHUT/+AueNf4o2Rt3PV+ccTzXPhM53KA9prGHgNk2tOP5nVi8rZ1DCBrY3jWTVnDANiASWyZxluBrvdzI2X0BDLYW6pn5pYhGUCDDGRVz80MCxKFbI0XMRngbSZj7Ckl4fCzCvuzlU+C5+hYeo2hubFlMlJQT4b165hz/d7+aYzc/T7b/YjsIVOYDgCB/Vo2KSkaneyh4+mVBA1fZiGD4clto8ucv6P3PZKpJDmZA++jYb5qmeI9d1iNMXiKnVQ8zPtiT8GBh1fm58U1dWwSi3UhEt4Ka+I07QM8rSuaHYWDtNAN2wspwePIxuv04dLRRE6lm2o/LrfY3LlhWdQ+dE4dqyrUqY/X6+bx44/EBi2LZtCy2cfs3P1PHZ/sYBvPp/HrpWf0LJ0SjoKaJCi+nTeevpu+hYX4jYz8bpNenZLccG5Z3Hv0Mt4+eHbGf3SQ0x56wlmvf8Mc8a8QOXEV6kuf4OaKW9QO+3f1M94m4YZb9M4a5RaGma+Q93Mt/ls/lgVmaydPZbZY17k3Zcf5vF7b+H6i8+hT7JApd+kJuPSXNiaWxENvXoGg/sXs3jKKDbWSrQyHiHITfjXY2RrTkzLg8t0c6M/lyXRYhojeSwqzlOObY3hWBt/Jc1b6XiOO64vThYq+08BA0klLSwpZHm4gJp4nGcDuRQaTpyq1uTF5XSTp5mMffctvvluN7v3dCLD0TBeHLwPncBw8BH5kzzfuwd2s4c7/nkrQc2tBt+uLr9yWOuhmVSnUuyKp9gTC7Gxe4jPuse2/a8LAAAgAElEQVRYEY3QIEzng4rNHQeBX7JeK22ssTBCfBKZhLpokg+LwlzptklYmfw1O4OuLieG5sKXkYO/Sw7+DC9ep6WsJU3DSb+eKSa8/wot66oVKLSKfPe6uexYNYvtajYtHUztUULHxyMXMWxfOZ3WdfPYvbaSb1Yv5tvPK/l6+adsa6xgc8N4pffUXD+V9VUVvPDgbfQrDeOxNCVt7tRtxTsQmRCPnkk4103PWCEn90pyzvE9ueTUAVx17klcd9FpDL38LG664lxuvup8br7yPG684hyGXXYGb428i/WVFUx5/THO6pfCb2m4DF1FBqoeYxhYhhdT82M53Pg0nRN7hKl47ynWNwg3YgItteP4anEZ15w7GNupYZhuilxeXgyFqA9JnaiQxcl86iNy3iIsSUjH0aFrDEsShWkb0IhoKgkw5LEskkNjuIhZyQi9DR3d1OjiFhKem8JMnWuvvJRv9n7Dd3v2/EnuuD/Xv9EJDH+u87nvv9nzHbR83UrvPj3Id9j4szwc5/Fgm07+YWeztbg7rYkY3yZCbCqN0NhNBPGiqtVQBoNfAgA/9ZnaaEQBg2j1i6Z/Y1SUOJNMKu7G4zn5nOU16Gs4CGU5lB2ozHDduhuvw1JS4AIM5515EiuqP6J13WK+XjufnWvn8vW6ObR+/tE+UtyPp5OOHDA0i5nO2gXsWruI3V8s4uvlc9hWP5ON9VP4UgbeGiGUTULy/ZurKxj11N2cd1JPCn0mlp6FZphK4lyX9k3TrZzzJG1m6e0dSE4s/ccXr5bJ9eefQs20dxn11F30iRWpWoyhe5TPtmXamIZs04ute/CbNqf1LWXi64/yVe0kNjROYHuDyJCUsXjyW4Ty5HsGPt2kj8tFRSLCinBcubYJgVEY78J2lyaE+uihr4fqeCF1UWlXlVRSiMXiBR7zszQist1hrvFm49MzOc7nwuNwUdhVJ54I8dX2TSDSST9j/bnvou5c+Y8dgU5g+I8d6v/wD30HlYsX4y3y4zNMcjNt/uLRyDWO4/WCOK3xUjaVJvi6OMaWVJzqYuksEnntEFWpQw8EPwUI7a+LJLN0tciAImJ7S5JBZSRfE09SHynm41CCV/153Oy1Gey3iPlMXHqWkuqwDRngDM49/SSWLZqmHM12Nc1TwCCz9a+/+ASR0fhxUJDI4cgBw7bls9ixZhG7mxawU/klTGNj7RRmjH6eV5+8k6lvj2B9pUhNCHu7jG01k1g4/iXuuv58Tu0TIyfbg+6U/9NWchGG7sIwbHTDVIv4YvzU4tJ0Ljl1EHMnvso7T91Br1gRluZB1yVNqGE59bZCs0Yk38vlZw1i5vvPsnFJOS21k9nSmHaB2143jQduvVrVdGzTUJacf/d7WZQKsSKUjvSq4sJFKEJSRAIMjZGfLjzLOVcMaZFij6ad3kROozaeo4T46qMhXiwIE3Ucx1+8mjKEKsg0sXM9lH8yE77tBIb/8Mjwi36uExh+0WE6Bj/0DTz/7HPoBR5MUycv0+Cvnq7ErP+mMt6HlkR3vuiVYmtxgk3ROFWJuHLtaowGWZw6dE65HQB+6lG8gsXgZWEqRGUyrJi0K4JBlssAEy1EBgtJNc1LxhidiHJ/OEi3rsfhNgxF4jIMk5P692T2pFHKtGZ303x2Ns2jVSKH1bNpXSqdQR3TRx3XjyAwLP2I1i8q+WbNPFpXTmVr40SalkzklqvPptCrc9rAOJ+UvcwmKSJLi2qtyGWX8WXVJKa+M5L7b72aCwb3o1c8iN8UMxsNW7gKhkMt0on1U4tbMzjv5IHMGvsio567kz7JILZTZv0eLCNT+W0HfdkM7l/Kg/97BZXTXmOzsKyry9hZLfLlIlg4ic9nj6cklkuGS8dlanTv+lceUS3JeSwNBVgcFwvPMI3RQipTBQoYloUPzXyuTkhkUEh9JM1laIzIZCCfqkQaLKaHSujr+Bt/9WZh6xa5WSbOXA//fHC45Ds7I4ajcHjpBIaj8KQcll36Gs6/4hJcLic+w0DSF7rt5Ex3VzaU9KIl2Y2mnsV8WZJkdUTUMaNUx2KIBIawmYXU1nHpCAIdXz+Y/CafWxYJqDrF/GJpXYywNCKF6ACNsQALZcBIFrI8VKgiCRlMKsJRTnV0UXaQTsuHmLz0TMV4/5Un2dm0mN1r57JLagxr00Y2LctnKRE6AQfhFbQv8lzJTih2dJvGUr3oMZWxeu57bKmbphzhmkWHqU2eQiKMND8h/XioiKO5cSZff7aQb1bPY8eKKQiTeWN9Ba89djsDEoUU+DSG3zGEFfMEEMppqRnH14q8JxpFUxTbe3HFG7w18k7uGXoZ//i/1JAM5D3iBRT5TbINA4/mxKuJRIWOTxObTAPhnoi3wbkn9GHm2OcY89q9nNg9QL5tEy/MY2DPEFedNYgRt/2D6e89y5olE9nUUM5mZZcq+yGEtgp21k3jxXtuwOnKUGmoXN2gv3UckxMx6uIFKn1UFQ8rAmN9tIiqRKHisjT8XMQggnsqYgjTGI4o9rOkoyTaqI3JxCDBhS4HDluji+0hX7MUEPY66xTYcSAwHJZrv3Mjv/sIdALD7z6ER+cGdq1rIdCvmHxHFwqzdP7izSbHaXFfjpuW4jgtIrNdWsLa0iQNyr9Z2hJFIyeMWHaKp/P+5cBUQhoYfs37HT8rrOkAn4dCfNwj/fpHwQBn+hy4NRNby8FlGoRyc3jkjlvY0bSYXevmqGXn2sXsbKqiedVstjSKPIaAghjgtA/q5WyRdkwFDKLaWqH0lbY2TOTtx2/m8/nioTxBiccJMKhZtAKWjts4RMTRMJXWlbP5RvyZV4harDC3p7JmwTheHT6EPokQPWMh/v3k/Xy5qIztNRNpFWASe9IGsSudSLPyrS7nq5rJ1M4aRcU7T/HWM/cy8t6h3HXTldx01flce/Hp/P3sk7n4tOM57+QBnHtif84/vh8PDLmcyqmvUTn9ZV56aAiP3X4tLz/8T8a+9iA1U15hY5Uwq8XLooIt9VPaHuX5ZDbXT2XNJ6MZkPTjcGmq2F+UZXJVgYu6SKTDuZZzcuD57jgp+C3rK8IF3FXgV+f3v3w5FGSZ5GUehytVyOYVXx6dN9D/43vVCQx/0gtg0UcLyI0HsPWu5GU4yXR5yXU4+CAWU37OzaliNpeWsLo4rnSRaqQukEiDgrSa7geFHw4UvxcY6kWZNRaisjgNDHPCQa7PEwKeA0PzqHZVqYtce/G5rG/4hJ3r5rJr3VzagaHl87lsXTr9R4FhawdgEKE6iSA21k/izn+cwVP33MSmmjK2CedAUlFt3U2/NGKQQbd56XRaV81M8wpkkFfgMIU1C8bw5D03k8p3c3L3MG8/cx9Ni9s0oQR8lCaUKJym/Ra21E1ic105m2UAbxDznCmsrx/PyoXvUvvR6yyseIHZE57mk3HCg3iST0c/T3X5v1lfNYYtjRNUumpjnRS+Z7GpUdzxJrOlVkQJJ6nH/am2NNBtrZvBs3ffgMs6DrfTpqvlI+k0GFMknURSE0ifi/Tj4QUGKUK/Fo2SY+j8TSKGDAOX1gVXwM+0cRV/0jvw2P63OoHh2D5/P7n3Lz3/MrkFuWS6s8jJ0DANi6gjg7rufdmSCrOtuJiNJSlWJsLKplNkLgQYBBT+E8CwoERE+ELqtxfFwjxalIfX6KJSXi5dx+XUOPP4/sytGMXX6xewc918dq2tUhHDji/msW3ZDDW4pz2R90cMyuxHFaClQC2DbrnSBnr50dvoFvQx6fURimsgRDU10LdFDIdKIbW/p9RgZYAXL4nGMrY2ir/BRLa2RQHLPh3DLZedTsTnVK2qD999E5Uzx7ChfrpSi01rQqV1oZrrxtMiXULiPVE7XhnxqK4hZdIj9qZp32shwG2vL1ctuttFgE+ARRjXdRMVI1pFB22/L+AgUVBL/SQlWy7S5VIIl4iqpmIUvRP5ymrTk+Xlb14PF3myWVmYYGFJzhEFhrpoHrOSpcQtHU23yM8wyXI5yM7x8fDwR37yGu584487Ap3A8Mcd+8P6yx3FyGTDQ24Ygt/jpYvXxJdp4NM0TrU1Npb0Y0txhC0lxawvTrJUVFRFMC0hZjzhdE44lo4S0pHBgbLbkkro+LqsH5xeOPj9g5/Xx4r4tFuQldI7HxNNpjDvhoKkrK6qndbWddxOg+7RCK89M5yWdZW0SptoU5Vavl6zkO0rpM4gqaT0wCezflVzkIFTtYxKKknSKeV81VjOgmnvEPQ6OHNAksXT3mdj/Uzlqyy1ABk42wf/Qz7usxoVMOiw1Let15Yzd+xLSuTOY2URLMrh8gvO4F+P30n11LdUekfY0VsEjGTwVgY649lROw5xVGupqWBHzRR21E5lR+0UttdMVq/J6y1iZFRbRnPtRLbVileFpKXK1CIOb8oKtUEAROQyxLtCOAsiVT6ZLTXl3HnNRXhtJ35nWpKkwGPxcjDOqkCY+rg4tR14Xg8+p7/reTyf2ngpgz0WPqdOXpbNcW4Dr+3iggsv+En57U5BvcM6RPyqjXUCw686XEfvh9uBQR53797NKYMG4bZcdHUJC9Ymx5HBP3Oy2ZHsyZaSMJtKUqxJxVRBWPrVBRiWSDpBQOHn9PcPoZvzcwOI+DlIK+SckhDLBRiiRVRHA8wKhbnUJyqsXXApnSQXuW43t93wd75cMYcdTQvbgGEJu5oWsWPVx2wTOYqDgEGMfJQTXK3oGolcxSQ21E9gbd1ULj2tN7l2FkMuPYvViyT9Mk0ViX85MIjVpugctVmNSi1jnwWp/O4ENteWM+qF4aQiedimA0vPoEcsn0tP7cfwGy/l3efuZfa4V/hsvqSDprG1YbqqBUj0kk5vpcX3xKdCooL27Sv3NUk71c1gS20bqEnEIXULiR7qyxGTH0lViQOeAEOzbLN+BtPfeZLiYK5qay3McOE2xKnNy4J4SnUOfRbM+wG4/9x5/DXvVyfzWB5NcWOOj3yncFdcZFq2MvDp1a2E7du3/6AzqSO34ei96/68e9YJDH+Sc9t+IwkwrF69mn6JBJppYprZOE0XOdpxvB4I0JIsYUtxkK9KUnweDyOz94OBQXT1f82N/2s+K8CwNFKkiFBiANMQLaQ2Wkh1JMbI/ALynX/B5TTx6G5cmsnZgwcyb8Z77GiSjqTF7GpaoghmX3/+KduXTkmDQIfic7My85FOnClqlt1SP44tdaOVOVD5m4/itU1C2RZP3z1MdSmlLUXFb7pNv+hQ0YMChHZr0XYtI2mVle8LMEiKp4w1VeWMuOsGAjnie5GBS8vC5cwk4DHolwpz5sAeXH72idx45bmKU/DkfTfxr8fv4J1n7uTDl+5h3KsPMP719DLutfsY++o9vP/K3bz9/P38+8mHePPRB3j/6XtomP6qcmNrrhVQkMK7FNRlPyQ1JTWM6SyfN4mLBvfFbRoYmkmu06C/3pUx8SD1sUIWlQRYETpy51uujapEDksjEZ4vLCLP0QVTJMYdHnTLoqSoiPr6+k5gOMrGoU5gOMpOyG/dnY7AMGvWLPoWBcm0LdyZPjLcHnLMvzErUcLWVJKtySDrixOsiAapi4pXr9y8+yOGIw0My8PS3x5iQSpEY7RI+UVLm+PEQJxeOQZuzcKttH5sUpFCXnn6HnasrWTXmip2twHDrtVz2LFsmkqdyIy/PZUkM2xxSEunZcpoqfmQFmVaI1IQEzj7rHPxGU76RrKZ9MoDpIFBZuZipfkzKaV9wCBgkK5hSIFbFXoVII1T7bDSmrp0zjjuHHo5+V5hPRuYhgtbSGhaenGLP4WlU+D3EA3kURIL0TuWom8ixYDiEgaWFDOotJiBpSkGlCToUxykZ6qIXrEYvcNRbvv7OVRVvMIWSS/VpIvPkt4Sc560/elkNtTN4qH/vYEivwuX6cHUbEwzk+FFedRGCqhJ+aiJSatp4ohNBAQYRMZbJgRlkTi5jr+imR78XXxkuSxK/H7GjRungEGu/fbruOPjb70nOr/3249AJzD89mN3VH1TbqT2dNKrr75KqCgbW/R5svyYlk2++79Yn+zBdpHXLknwWWlC5fcltyyeCxI1yE0sN7BaDpFzPjgfLZ8/VNRw8OfF5KcuJnLO4hed1uIR/sTCSIhH/T5iGS7+5jbJFOc3y2TYtZewtu4Tdq+uZGfTInZJWkmRzD6iWZRHVdE1DQ6SWlI1BlU7kHVpT5W0SlrJdMaEl0jmecnVPZzWty9zy99gS+N4WurGsFPSN/XChShXhWkp5oqnQnp7si2JDDr6L7QT69IppTSHou0z9eUs/ehdHrz1Sgq8Om5LDHgsLN1WiymsZ91Gl8WwMQw3luHH1LPTKqSaDORu5ZVg6WLiY2LrTjyODPrF83l75P/yZeU4tW/ba6XLarIqgm9rGM+2xnFKiXXCm0+o9lmv7sHWs/HqWZzg6cLkZIzloShLksJZKKIhfiCh8efO/6HOtbqGDrp2FqXyWBYOsChaTJH130ph1+X0kuOwyM3zMnLkyH3XrlzHnX9//BHoBIY//hwctj0QYJDl3nvvJbvAxue08TpylEFPSe5fFdu5ORWnuTjF0pJ4GgjaAeGgm/lQ7Yvpgf6XtzceuK2O32tfF2ARUl2IikCQ8115OFwOnLapTOpPGNSbGaNf59umSnatlVrDwrQsxeezaW4UFnS6G0cKr+nI4adn/utqx/PcA7eSo7vwm27+ft5JLJvznuoQaq2V+kF7SkkG/bTXwwHAcIhUk/AFVJ5fdQNJyqmcZbNH89pT93FC74Ryo5NIwaU5cZsy0IvonUQUptJNskwBCwtDN9XrtryniV+CjtvQKfC6OfekPrzzzN18MW90GhQEAFUtZbLqlGpeOpHNjRNZPvd9zj+5BzliBap5yLR8hLv+jcdjecwvidIYFV2suOoKq00eWGP44fn9YTPCwWDfESwO/v6i4kJWiZhirITu/kzVCGEaHoq6Wli5NsOGDesEhsM2ChyeDXUCw+E5jn/4VjpGDFdeeSWebB2vAgY/LsPgrEKd7fFubCtNsi2ZoiElpKaOEUL7IP1jjwdGBAff+PK848Bw8PovA4Z0V8z8eJQnQhFKzEyyNR3baZGTm83j991Cy2fCZZDupEXsFoBYM4+WFTNVD79EDdLW+XOubpsaprFs7liuueQURJI65PfyP9dcQtPiSWxrFGBp6/hRj+koIQ0MPw86mxsEGCTCSDu2tTZMYlNNOWuXTGH+5Ld589kHuOHS0xjcN07Er5FjdiVb74JPk8cMfHoXPNpx6jHflUmy0MMpfVJcc/EZPH7PrYx97Vkqp4xi7WIpTLeT+9LAsF34Gw1j2VJfptpx77/xMlVLERCSVuX/9rk5qWsmM4pTyninIV7AqpCk8oIsLD5QG+uH5/fHromOrx14/g/+fmVKZLiD1EdLOKfQjVf4KqabwgwL3adz5pln7ksh/eE3UucOqCPQCQx/kgtBIgXx0ZXHU045BZcrC7cuaqXZqgX0lkA2LYlSNvZIsjme2NeeuC/0b08h7WtH/eU3/u8DhvSgkt6GpLRCVMRDDMv1Eu6aqXwFNMvm4nMHs2Tmu3zdtABpV925RoBhAa2rPmFbwxRFVhNwOGS7aZ0QwGbwVd1E5k9/kcH9Y/h1m0RugBF3DGGdijik/TU9sEt3j1hyqhSSIsT9dCQivysRg+IS1JWlO4Pqx9OqiG2S5pnC+uqJNH76DpUVrzJnwotUvD2SD14YzptP3s0bT9zFGyPvYNRz9zHhjceY+eHzzCt7jcVT/k39rPf4bN4ENlQLH2JaGzFP9lMWAQjpvhrD1oYxbK6fxvh/PUmfWERJoYjAnmFp/DXb4gLDxeJUd1aE81gW87Mslk9dXPSsogcA+8EDu3re8fo4aP2HEwEB+f3Xj0igiH5WXSTFLYV5uI0sdNNFfqaF7tLo1asXu3btUtfun+R2POb/jU5gOOZP4f5/QEChubmZvn37Ypui4mnhcfqwrCxeCBTSEk+xukdMAYMChEPUBvbVGn7iMz/3fsfBouNnf2y942elS0oKoq8GCxngFM9nG4fpIhrO57Wn7mHH6kW0rlnE11JrWLuQnV/MoXnZdAUO6ZrAoQfv5rrpbKwfw5eNH1Dx3pP0isbwOVx0ixXyzIhhysxGGNEy6Aoo7AeGdFrpUMDTDgxSh0iDyjhlwSnFYKl1bGsYh9QAxBdha0MZm2rL+GrJJNZVTWTd4jL1+OWSMjbWTFJcB+UZ3eYbLVLe6UK5yHdIVCOWosJrEJnvyWypG8PmhgnUzfyA808YSI7hxaW5lReEbjnQbZ3+To2JAgxFQZaHs1lUksvCZJCGSDqt2PE8dDxPHV//pesdvy86SrXCkwlFeb4ghG1lIGCfm2WhWxqpVIr169d3Rg37b+U/fK0TGP7wU3B4dqC9i2PlypWUlpbiEpN3UyIGD6aVQXlhlJZ4glW942yM/nAg+KU3/JH+nLRQLovmMSUc4VK/1EcMDMuNben845KzaZhdRmtTJTulS0nAYc18Wld+kiaPKUvMQwPD9gYpKI9lS+NY1lVP4oOXRxLN8ZJtZdEjlcdrT/wvX9XPULN/IZMJe3hfxKAUXX96++nCdboQnW6bHc/2+rEdFnmeXhRDW4hxijQnHVFS9G4Dnw6RS3v0sqNWiHDtQJUupAvLWYn1CTA0lLNmySRuu+o8Ah4PLqcLSwGDiWE6yTY0cjO6cL0vn08S3akSkmH3PBakAqwIHBgxHPZzHBXznyKqpfMsL47h+huabZLtlHZqJ5FIhOrq6k5gODxDwWHZSicwHJbD+MdvpL3GsGDBAoqLi/EYWZgKGNwYdhdqikoVMKzon2R9UIx0DswLHzXPRaUzFmBuJMnQYNoeUxVoDZNkKMSo5x6jtUnMe0RQL+2NILWGbUo7SVJKUjT+6cG7uWE0LQ3ilVCuGMGrK8fx5tN3UORzkG1p9CwJ8vLIO9lQP0MR6NKz83aew6G3rX63re01PeDLwC/RwXi1pNM+MpinO5dEIkNaTEVWQ0lrqNbX9oK3MLLb00Udohf1HZHikLSYyF9UsKOugvU1U3nsrhuIF3jxaLqKtKTzSVplLV1T7nHi2BbJdHFjdiGTe3ZjYUmQJbF8GiPiw3DkrgchMS4QPaZohEW5JWjuv+BwCRvfVLpY4XCYGTNm7EuF/vF3U+cedALDn+QaaG/zmzx5MvF4XAGDEIi8TheG6ziaQr1oScRYPjBFU8GBxcYjOSj82m0rTkU8wrxQkhsKsnEbf1PWlaa4njltbrj4HOpnj1UpJdW6ulY6lObRuupjpXSquooOAQzbGkfRXFtGS/VHbK+dwrZl4/hsyXs888j/4Lc9mC4n3ZMFvPjwzWyoloJze5tqe7fSIUCnjU8hfIg04ayczVKAbkwP/Ntqp7Gtdipb66aoCEEIaQIImxvHq06irXVt77UBhEQDSrJD5DDUttMRhmxzS0O6nrG9voLmJRN59t5hFAf8+My0A5y4s8kxcwknxGmg28LCdmNpORRl6dzutqgJB/kslJ7N/9rz9Gs+3xgPMi9ZoIBheW73NmDQVceZNEYEg0Hef/99dSe2X8d/ktvymP03OoHhGD110u3dvsi/oFJJe/bw4fsfEItE8RhunFZXXIaLSKaDL0oTtJSE2ZDsSZ1y2NpfHPz54vGBxcSf+3ylpA3iAeX3vDwUURr9NVFxiIuowWFhopj6SJxVwRCrggU0xHKpKs6lsjSPhcWFfFyS4JFIEd1Np2rpFMtKl2Gq9Fi8MIfXnxxB82eLlUfDN2s/Zffa2bSuns/m5fOUWJ2wfiX/Lqb3+1VG0/yEdh6C6jQSvaJGSS1N4os5o3jyf64kW/fiNXSSET8P3nMNny2ZyLalFek0To1sdwrbaitUZKJkKhomsKVhPFsax6WlMtpBqb3tVT125D90AJaO77VJayihvn1RRxvAqChoOi21H6noQBjW2xrGsqlhEisWlnHvzVcTKIxhGPm4DB8ezUp7OogJkKarriS30yLb4cPrzMc08lRh+ny/xaTu0rpawJJUDo2RfJZGg9QmYjREo6wIR1Q7a1Xq4PPf8dqR9QOjDVWs7lB8ro1FqRMiXSKf+ckUIeNvZGsubN2NuMgFCot49ZV/sXfPHnUdq+v5oOv7GL1Nj9nd7gSGY/TUtYNCOx1IzbT27OWN114nFAgqD2XNzlAkt6Rm8EW3ONtLwqyPd6cmeSCh6dfM/n7JZ4UsJ8VHMXgRU/lqkdhOphex/VxbEFGSGFN7FTGjZxHVqSArg0FWFIb5OBTm9nwffTP/SrYzA920MUyPsq2UXn6XM4tLzzpFqZaKo9tuAYZ1c1T7asvnCxXh7cdAQQBC8vgHppkEPERvSF4v4/N5HzL8f64jx8rAqzsJ5fi57ZpLafj0Q7YtFcOfsbQ0iHS2+B6MZ5toGUmnUxsp7mejlXbQ+MlHYVH/1CIpJmFopz0dNtdX8PHYV7jo1EHk2TZep0a204nH6VS8FbEMjRb3INKtH8dZucqtzZPpINvhxtDd6JZBROvKFc5MxidSrAyFmV0aYl63CI2hIpaHgixOphnx9dEDB/5fcg0c8JloVMlvVCfyWJBMkrQzlJifpdzndArz83nmqadhz559d+PB1/e+NzpX/iNHoBMY/iOH+fD/yME3jgKGvXt5/pln1QzMrbnQ7UzFA+jp8tLULamAYU2khOojDAwNERHHS4ODOHlJBLEoVcTCVHq9Lp5LZSqPBcWSdw6zPJBkQaQbrwajnK87yHVk4DIdOCwNzbaUR7Jbt9OexoaB39Z47L5bWL/8Y1rXCrdhNrvXzWPX2gW0rkzzGtRgXSuzcxn0Oy77Z+zCeZBlHzg0lLFs3tuKrZxn2HgyfeQYPi4YPIBpY55mQ8NYmus+ZFvtaFrqRY8o3S4qBDNJS0na50Dg2f9bP/d6OmU0VW1HmMzti7ivibKqgNGmhg/Y3DCRlX70rb0AACAASURBVPPGMvLOofQIBfA4LdyGjwJnFwqcf8GjOxWZLadkEMdfcSunXHcXhSecj+4RolyWAg+X7sRpiwR2FgUZTk5xevggEGZucXcWxiIsSQkgFFAbExtWkS85PMBQE89jYSJJd6+G32ErZreha+Tl5PLQ8Ac7I4bDP0z85i12AsNvPnR/7Bd/DBi+//Y7nnjscQrzC3CJLo4rE8th0s+bo5zaJGL4IpxSXr6iaNq+COv4gBneDwqR+z8r3/m5zzeKI1gsTFVSDOULlFl8Q7SAerUUMb80m2WRPNbnh1iZn2J8sJjLvF685t/4myeLrrZNpmmgm2Jw71Szd7G7dOsGtmHgMpx0TxQx5u2n2da0gNa185T9p9Qadq+eTfOyaTQ3TGWLMurpCAoHD9xCFCtjx1KZpcv6BDbXjWfFnLGMuH0YAY/ISNiKqVwi7az3D+Pz2e+n5SekTVS1tKY7l9r9nSVq+DmS3Y+BhKS20u2o7UXntKtci9RDaieyuXYcXyz+kNGvDOfM/t3JNcQz2sbUbTTdwCvGN3omWW4/+f3OpvfV99Fv2Aj6D32YQUOHU3za2Tg9fuVz4dWkY02Y5YYSWHQbXvpqGbyQF2ZxtJRFCdGxyqcums/SUBH1kQPPf/t10/74w+vhwM/XtEUMtfE8KuNJ+mSbZGdZChg0zYnfl809d90Fe/Z2ppL+2GFl3693AsO+Q3FsrRwMDGrv9+zh4QcfoiAvT0lt61YGHs1mUHYe67ulaC4O8Vk4xaJUwQEEpI5kpMOxXhcTHZ4IlcUBloi/cziPz4sKWFFUxLJIhJWBAFWRMOOTcW7O8VCsHYdhZtDVY9LV40Y33QrQfA5dzXBF9M5tOHDJYkrOXMPWMzh7cD8+Kn+bbU3i1yBF6Pl8u3YBO7+YzdbG6cpnWbyOhfiWns236xz9xExeZubV09neMINV80cz8v5rSQRtJVNtO70UWD4uP3kg5W88x+oFFWysrlCy3pJiaq57FzHfkbSULD8PDvuNeASUJE3U3DCB7Y3yOJHmxknKCGhT7XiaFr5PxVuP8vczTyDgNvE6BRQ8WIZLkdcMuytOl42WFyE2+DL6Xv8QvW56kp7DRtL3xkcZOOxBjh/yMKWnXYlhFyiw82pyLDV001CcApehETezeKCwkMpIMSuCkbSGVkLc9n6uxnBwzeHA5zXxGA1xEUvMpzqeYkCOi9ystojB0BQw3H7bP1XRrL34/KPX97F1ix7Te9sJDMfo6fuxG0eKd8Pvf4D83P3AILIYx/vy+LJbim2pICtCCeaX/F5gODC1cHCxsS4WoyoZYWFJgNpEISsD+XwRCFMbjfNpKsX0WDfuDuQTc/0Vp+uv6HoGHqd0qdgYmoXLmeZfeLVsXO5cTH8uuseDpB1sUSdVhWiJJrI4e/AgZkx8hy1fVKk2VsWIblrIjlWzUS5t9ekOIBmoRTLjx2br7a+JR/SOmo/ZXj+FzUvH80XNe7z5/O0M6hEl185BnM+8WSZhXzZDLz2Xae+/wKoFY/iqZjybhbwm6qtqkE8P+u3b/dHHtshiH4hISku6lJSkRTlN1ZOon/0+o197kL+f04ug14lP0kZOKdoKKLgxTVORF23rODR/HsG+p9H/slsYcO399Bv6CH2HjqD/jY/Qf9hw+g55hhNveJxuAg6eIryWC4/mxGs4sQ0Np2njcGuEjUzuzSlgQbAbywNxFiQDzCkt+l0TCQGGxpiI9eVTE0txYq6HvEyJdmQSoCtguPXmWzojhqNoLOoEhqPoZPyaXTkYGFRX0vd7uP/e+w4ABhHSO8GXx1elKbYkilgaijPvdwNDuhMlDQg/nE02RiNUJ9IRQ50AQzSMdCWVdUvxaDLIKW4v+c4MNLdOli1pEBc5mcLSFsKTie3OxpsTITc5iOTZV9Hr6puInnwOXn8Ql9PGLUqjmojPWUoHqm9pgrdefIJVVR/R8sWitALr2oW0iJnP0mltxLEydqgi809EC5LKqZ9Ea31FWnNJWkIbJ7OutoJpH77A1eefRLggG9u21UDq0TOJ5Npcd9FpjH/tSWpmjaZpwRi21LQxkn9RSkn8E9LRhXg1r6ssZ+Wc8cye8AYj77uFk/t3w+82sC1NCe25xKPClOKxpRjNlmkoAqBXM8jx5+LNLcTKC5JX3JfSs/7O8dffTb8hD9JHooahz9D3hkc58caHSJ1+CXp2EcJzcLcJ9emGB4/uxWXYFJkaN/hzqIglWZQMs7g4LXD4W6PJdmBYGsunNpbilDwf+W3AYFgCDD5uuenmzhrDrxkAjvBnO4HhCB/gI7X5g4FB5DDYu5cH7ksDg9z0pplBtiMNDBtLRSOpkPpQnPklYv4uA/pvW4SAVifSFfE2ue64eDen0wfiHb00EqZBXOASEjEEmR8J8mEkyPU+k+LM/0I3LCynjUfSIZobzZQuGRdu201ebgGFvQbQ+7yrGXT9ffS8aQTdbnmEftfdRenA88nxBRQoiKS49OXbhhuxAs11m1x90VlMfvcFViwsZ9OyT9m5Zj47Vn5Mc+MUVWBWbaxtXsrpttX2mX0bV0FqDEveY82no6iveId5495g5uiXmTbmBca++TC3DLmIcLQIw3YqNrGkYry6Rr5lcUb//jx953XMGf0MddPe4LPZ77Fu0Rg2LpmgPBPaC+BbayexqXqikswWIFn5ybvUTnmNT95/mhfvv40rTjueZI4Hd1aW4iEYphfdysE0vSpaMgwd3dIxLFFmTftWeJxevJqTbD0Tn6FhiZSIN4/Y4PPpN/QB+g0ZyfE3PEb/G0fQ96YHGTD0bopPvxgzO4Rp+lTa0ef04NZ8uLRsTNPG68rg/AKd8nABnweD1EtLqshaJNLnuT4mtqzp1+T1Q11LSxISMRSigCGa4pR8H3mZlgImoy1iuO2WdMQg94tc29KfJIusd/79549AJzD854/5YfnFg4GhvV01HTHkkmG68WmZ5GSaDMzJZlsqxoZ4HlXRhLrBD11sPjBVdPBnl0UKWBrJZ0kioGaUVfGo4icsiYZYqLyjC1kaKaAhHGByJMA/i7ykrExMXccwfGRZXgxTZv6iAOvEZ7vx5Ycp6nk8PS+6gb5DH6Hf0IdV4bT/0IfoP2Q4A4cOp8+19xAcdBqGT1zpbEzDVoOaWJdK9CCErhyfi7NPP4mnH72PjyeNomH2eL5YMJ418z9kkwzS9el0jTwqzoAUnWvER7mMdQs+oOL1h7nj4gsZGCnB6/aQ6ckky5WJT3eRyC4kWVCAz+XGadhopheRjxaQkihG0jwFnhxOHdCPW6+5mGeH38Lolx9k6jtPMXv0S8wZ8yIz332W8f96jNcfu5uHbrueay44mwGlSfJchtK3cjuzcMvArls4LfkN+R9NfJL20bOwTV0dO0nDiE+DaRhKb0iBlGbjc3gJdHUT6OokM89H5NJ/cOYVIxk0RI7po/Qd9hh9hj3KoOsfoNtpl+H2R5G2USXtrVkIZyTTduF06RTqGZzrc/GG2L1G81mcDLCgOKQ8ulcGw6wMBqhMSYPBoZsXFiUj1MXyWRbxUxdJMCjfjc8h5kUWluEkJzubW29ORwxyc8i1vIe2ZW+6IK0i4rb1w3IDdW7kkEegExgOeXiO3jd/FBj27mXEww9TkJdPpgCDM4OcLIs+Ph9bimN8GctlSSypyGcHD/a/5nllIsJiKShGItRHQ1SmAkryoD5WwJqiApYFA0wPB3gkEqCv18SwslQHTI7DSeRvmUih0xJPAtuD1x8g1G0Qfc+/lhOvv4dBQx/6ITAMfZD+Qx6g/5D7GXjlLQR7n4DmzVdGN25NHN/EFU2kH8S/QGQWxBpUp8jr4rT+3bnt6gt57v5b+PDFR5j2/lPMnvAy88r+pZRLa2aMUuqltdNH8drj/yQalcFewzC86KYHmdGKb4I7y6NMdZy2A59mqBmvP0uiHhuvZpKXZaiuKVMX5nEmLj0Dl/M4vFoGXkcWOU6dXDNDdQ/5NKmpZOLVRVZcaiVpAx+HgIzmweuwFVvZ1KTILqk2iQ40HC5dCSOKZ3K204NPc+HTLPwOnXxnFlkegy6udBTmsE0ctov8QA96X3IbA667n/5DHqbvsEfpe+NjDBz2EKdcdzc9T78MT35MdXoJB8Ir3hAqKjFUDSKc4eRcl8nr0TyWROLURSMsKA6qa0i4DkviYYSbcqjrZz8w5FIbSTAg1ybbKb4TNpapkZPtR4rPe79P8xg6geGPH3c6geGPPwe/aQ9+DBik+PzkE08owpDD9ChgyHa66Ob1sqE4wdpoLlWxJDVRUTA9dFRwqPcrEwkq48XUKrOXIuoS+VTJEg9QFSripUgBV/hMIllZ2LoXTc/F1H0YhhPD1QVla5mdS0GiNz3PupoTrr2fQcNG0GfoI/QZNuIHwDBgqKQ/JGp4gOOHDqfv5beSVzoA0+XFrTnwyixb09JmN4aXovwIhbkBPKY7PZOXVlfNiUfLIt/dldKwjxN6xTjvlD5cdf4pDLnsLG684lz6xAvxigeEzMSzXOQ43BRk6ORlGridXlwqJ69hShut+CdnWspTwOc0cbhMnJYT03YiaqYiXCezecsQJzYfpsOPYUh6z4VledFkYBTvYwEDFXl40Uw/wj8J2h5S+Xl0i4WIBwP4TbEFldl8WyeSaeK0nXg8TpJ+ixNzPFzqd3G230N3nxePbSmTIzn3PkcOhf0HU3rhMPpfdx/9hz1CX0kpDRvBgCEPcOKQeyk56wpygmFcpguPw6miOJGqsCQiEya4aXCWsKQL4jSE48wvLmRhcT4NkQC10RjVsUNrLbUDw9JoLjXRBL39opOUdrCzDJ08fw733HX3vhpDJzD8piHhsH6pExgO6+H8z23sx4BBmKMvPPe8Irg5LA/Sry5aSQm3h/UlxXwRyWWxAoZfWWM4CERk1iigIDUG4SYsDRexKBLm3XiE2/J99LA1vM6umJau/JsLurrJ7eomw7b5/4Je8iLd6XbShZx49V0cP/Rx+g59gj5DH6XfsIeQ1FG/YY/Qb1iHVNI+YBiuQGPAkBH0vuA6CmLFuC2Z2Wbh0iQKSc9Cb7h+GPfd9wDnnXcBffoOIJ5IUlBYhE/UWi2ZdTtV1CJ8CAEpj6HhcjpUakuX9I2lkW07KXYZ9HWZJF26GoTFVU7ATWbvpmHisCyybElpuRWjWBVypZXWlEHVwG3bajYsA65tioWnpLtkluzCJfUBkUU3DAp8Xkr+zzBnUM8EF53Yh39eejYj77yRh+6+hXPOPp3cnHzcDi/ZWdlKX6jAzmJQtoM78r1UBCOsi/RkQ0k3tsd6MjtQwmW2TTLDSUEXC6fhwx8tIXDShcTPvobeV99Fv6EP0VsA4qYR9L3xIfoPe4DeFw2hoGQgHm8+Pt1UJknS/aVZbrq43Pgtg1vcfmaEIlTHRd4ij2pJG8bEL/pAUcaD6w2ViSh1cp1Ec1kSTdLdl+5AE1tTqQ8JwU3arNslMQ4ABg5MJf3n7rD/t3+pExiO0fP/o8Cwdy9vvv4G4WAQp6oxZOFyugnaLpq6d2N5KEcBgxSOf12HyYHRhWgtNcbkRhfyU5iPI3GeKQpxusdNtqmRneVVs26nx6EklsWlLEe0evISBPufTd/L7+CEIQIET9D7xqfofeNINZM9ceh9nDikjZg17BEGqOVhJGIYKMuw4ek2zOsfZuCVt5M64XR8+UWqk8mUNJJuY+hO7r33LjZsXM/adauZ/tEMXn79Xzww4iFu/t/buOa66/n7FVdx8cWXcu6553PqKafRt3dfPJbk7C0FDsVaBlf7TV6Ihng3luCVQIgHcvxc7fFysstLymXidTlx2FlotnQGucjO8igQFp0ij5ZOZeW5TC4880QuOGMAJ/aL0b80Tv+SOIO6xxncp5jzTuzF1eecyN3XX8yrj/6Tj957mC8+fZf1CyZS/vazXH7xGXj90pYqKqkufIZND7fF7bnZzAlE+SZUwp5YnI3dImzqEeDbWIDmVDH/jkforWcpzSTTyCbHGyB0wnkUnXQhkTOuptvl/6TPDQ/Q58ZH6HXTCHre/Ch9ho6kz5V3Exl4Nt6cIpW+Eqc108zCYZg4TQ/FLo2RBX4awyFWRgpYnAoghWUhM3aMMNPAkC5Sy3W2OBFTwNAYy2dxPEXClYXlsNqkTkyV+hRJjPZUktySB1/fx+hteszudicwHKOn7uAbR2ZZ0pU0+oMPiUUiiiSWrTuwdR9+w+az7t1oDOdQlUjR8DuBoSpVyJLiIhbFo4wNRrk1O49SQ1jJMouWPnsfLhG+M524xL7S7yaY6Em/s67j1GtG0O/Gp+gz7An63DSSPjc+Rr8bR6ic94kqtTE8zdjtCAzDHmLAkOH0vf5eel11JyUX3Uz8rKuJnnwBBT0GYedH0G2f6u13mQYlqTij3nmDpqbP+HpnC998v4vv9n7DN3u/4fu9e9m5ezebt2ylqWktNdW1vPXvt8n2yD5bFGo617ot5nRLsqm0lB3JHrQke9Oc6MWaeB8+CffkXwUhbsnxcYbPJCU1B3Eks9P5f3HNE2CQlFSupXHNJWfxxnMPMObfjzPxtScY89LD/P/svQecVOXZ/j8UW9SYGAR2p5xzpped3me2UJddYBtN6lKWYqcqIr0oxRJjjDExxZjk1ag0e4uigJ1eBDS+lpgY04wtSvv+cz+zq0gUk9+LkfBfPp/nMzuzy8yZ55zzXM9939d9Xff97BrW3HEDWx/+JW9ufoC/7vy10lt6e8cKXnvqV9z5vUWc3bcbDkOa+iwELGZihpkhQRe/imf4faobf8+U8+fyHG90lVHKm2XlvJ7P8kY6zbPlXRjs0nEaBh6rG7uk13oPIl7fSKx+FPF+YykdNY3uFy6g57Ql9Lj4anpOvp6eU79N5cT5ZOqG4w3EVJ3GqXdWhWmrzY1udGKS38HziRQvx2NsyUkDowDApzcOhwPDpmyW7SnpYwixIVtGQu+kWGma5lKpPhHR+9lPb27tYziG1qJWYDiGTsa/cyifBQyy43rkoYfIpjNougOPrRjDVkg/bM/meCFVwqZMTlEH/y8Rg6QQHsvGuT4eZrDLQYnNqrpnhWnkthrY9GJlXu+3OIkGc6T7DKPywnlUTbmS3hOvpufUa6icJumixVRPvUJ15lYr+YbvUDXluk8Bg0p7XLiQigmzyYy6mNTAc0jUjiRSP5pwQxORulGEe/TDHyvF5fSr9IyY++TTGRbNn8djjzzMH37/Bu++8zYf/v199u7fx4GDBzh4YD8H9u9n30cf8eTadTgN6XA2yNs93JhM8mZFKR+m4/w1l+Kt8jx/Lc3yTj7LO6VlvJMv5/VcOWuyOa6NhTnX76FW1/DpYqNpK/RiSKpIitbmIqpKU1wxcwqP/Pxqdq25jbe2iGS2eEc8qJhRf915P3/cfjcvPPFzvr9wCtWlWRWFOGx2IhYrvR0ai0MBns1keb1LF/5UlufN0qxigj0YjHGrJ8p19gQLdC/zLB1Z6tQ53+cnbDOwKekMK74eNSQbRpCuayRZO5JEQxPpoRfR5dxZ9Jp8BXUXLaPnlKV0uXgxlRfNobRmGG5PSPklSEpJaiHikd3ktXN/Oo30qsgGY7toKmU+XbP6J2DIZAqaS5kwT6WyhKzfwi41Bs2N3aIRi0RZvXKlSiUp2nVrxPDvLAVfyt+2AsOXMq3/mTdtAQf5NJWX3b+fZ595lnwu1yw8J7l+J1a7mTXJDHtSMTYpCWRJJX0+93xLJsnmTI7tQlPMhNiaETOXqGIhrcsmuDUZZ44/QG/dgku3UOwoUCulYOmxWbBKpODxk8r1oceQyVROvpJu079Nj6lXKWmGXsIyUsXky6meImOJolL2nHqdSmnI86pJV1B5wQK6jJ9JpnEysUHnEuo3lpha2EYQqx9NqL6JUP0YEnUjSVUPIlxaScAfx6l7lVe03+ljYH0/rl66hLtXr+TFPTv54x/f4u2//pX3332Hv7//Hn/985+48XvXqwXQrtno4/bxTL6cD7MpiCUUm+vNLin+VJ7ib6Up3lEjzTv5DH/Ll/KH8q5szZdxVzDIJYEAvd0GXntnLA4z0oDmLbbhLrbi1DXquoa45Pzh3DR7Oqu/vYgVP1rEPT+5god+eA0rb7iGeRPHkAr6cFp0Ojp1krqVc1wOfh5P8FJpOX9Pp/ggnea3uSwrggGmdehE19NPp+hr7WnXvh2mdiZMJ5j41ikmJvkiRA0bhk0UVW24S7uTrBuq5ipRO0qBa6xuFIlB51AxZjq1FyxQIN1VIohpS+k1YRbRLjXNtGJhXNlVl/R4t5sHEmk256LsTJcgTLRtmU/TVQ+/tjZlRDsryguJKI/EUtj1M/EW29GkB8WikYjHWfPYYx/XGNT1fAg4/GfuptZPOXQGWoHh0Nn4L/5ZAcOBA7RYezqt0kVsJ1ik08HbgdviGV5KZNmcibL5C0TzJCf8bL6cXYlYwSshH1LF5ftCcRaVeKjzOoiJyqnZjEvRRLWCt7Bw7O02nLE8qb7DqJowk2qhSE6TCEHkGZaqxada9SZIemiZolAKjVIN6V+YuJie586mYszFZIZeQKz/OKL1owspEEmDfMFIdq8nlOyKxxtXKRS7zSDgdlNXU8Wll07iphtv5KH772fntm288dprvLBjG+ObxhSAQbcytMTJW6U53ssn+FumC8/nc/w65uXBkIcHgkEeCAV5MBLkkWiQdbEQ21Nx3shleTtbysulee6NR5gd8NLNaeASqqlFV45qVqMIzWbmLKcdj+6h1B+kIhehdz5BfaYL5ckKQnYHns4aiU4aWZ+V60p8PJmL82Zpjvczad4uTfK3XJ4HkkkqO5/J100mTG3a0q6NiRPlZxlt5TUT84w4YWcnwp2LsOkO3MksqdqhROuaCNePIV7bSKJ2uJrXaL8JZEddTI/z51E1danqlO41eSmlA8diON0FOW+r0F+tTHQFeC6SZmM+wLasj+1KVPHIdFUxXxIp9hcjKe4Mp+jo/haRTnLNiJGQRjqdVtaeEi2olOh/8X14vBx6KzAcJ2dSbigZb7/9Nj179sQtXsm6oQzXO3nO4rvBMLuTWQUKW74AGDblomzMh3kxEWFzOs7t6TgLggFGGHbStiKcwtG3CovHXGD0yGeJjaQzSDzbg+6Dx1N/wRxqp0iqSJqqvk2vqVdTPXUZfaYuViklSStVT1lGbxmTl9DrwkV0O2cOeUkXDT6fSL9xhCRdVDfq3wKGeMNwYjWDiHTviz9eWkiHWEUhVdhLNnKJOMMGDmTqRRdx9ZLFXLN0KeVZSd1oKiU2y+Pmo1wZb+bT3BVJ02QxU3nm1yj95tdJnfkNEh1OI3vW6XTpcDp9zzyD0R3PYoZF51pPiPuiHn6TSfFKugd3hss51xMmY7apgvZZTiv+zk50zUKxsxNF9o5odk1RX62uYs5yd6DYblOU25BF5xy3j9/FevDH8jwvVyZ4s2ua33Yt4+Ue3bkm4EE7tR1tTe0wtT0ZU5v2tGsBhn+AgoDDFEuAlLOYcFEBGJyxNKnaIcTqxxKubyJRN4pk3XCidaMI1Y0l3G8sqaEX0OWcWfScvJTeU66k29DzcXpKcAnjy2ZDN4q5zFfCxmSWjfkStmUCSpJ7m3S5H8ZcO/S5gIKMPfEMP/CH6OzsQKiTrlhaDqtNWdG+8cYbCDC0pJKOk9vyv/ZrtALDf+2p+/SBtwDDvn376NevH17NQKw9fWYHZmdnLvW52JbKKWDYfljof+hNLD/vTId4Menl2VSMG2NRBnudRIwCxdNmCENFw6pomYXXhO/uDiRJVw6hz+gZqlGtZsoV9FG002sUMFQpYLiSvpI2mtzMOBJq6kUL6Tr+MvKNk0mdfS5RqRvUjyFcN5pIw2hVS4g2jCbaMOpfihpK+jcS6DeMaMNQkn0GEiuvJhjN4XaHMKxunOJ/bNNwaTphr59cIonXcCpabVjTWBDw8HZpOc+m4zR2KuIbJlNh0W13Em1Np3CKqS0nmtrQ1mSijcmkHk9qZ6LDaV+j4hsnM7XjGTxU4uONslI2p5PcWFLCYLeXoMNLidmKzSFppm9RYj2LKsPF+b4Y0/wBRritJBxOvuXW+JZHo8Hl4OloOX8s7cIfuub4S0UZfy7txh/zvfi+zY2zTRvam9pjan8ypvbtC9FCCzi0NTGig41Kj51wcbGqNxmRJMmaIcQaxhFpaCJZL8AwQgFDuE5qNSOJSjQ26BzyTTOoumARXc4+F8MdxCFNb4aNsL2YZSXSr5JhYy7Itkyw2XfjyMAgtGaRzXghlWeez4PV3pFAkXR1F4r0spH54IMPWj2fP31Lf6XPWoHhK53+o/fhLcAgO67zzjuPoMOpCsIuaaIyihnmsbAxnVeppB1fAAy7k2F2x8PcGItQ5XKiG5JG0NCNgh+CAIEaasGwU5LIUdF/NNXnL6By6rUqMpCUhCh89pp2DdUyplxJn6nL6Dt5MVWTl9LzwkVUjJtJZvgkleeONowhVj+SeP1IBQBSQxAGTcsQYPhXwCHUbyQyIg2NxOuHk6wdSqrPICJd++JOdsHt8qJr0lgmHPpm8x9FU7UTMezMipbw2y5dWB0K4D/lREymNoVFt80JnGA6mdNM7TnZ1I72pra0MbUt/L6NiTZt2mA60cSJJ5gY3PFUtmSzvJsvY3ePMu4vTbIqEOFq0YHyWtAdVoZoTu5IiL1pOU+Esozu0IFz7QGSak51SnWDGf4gt/yj/+LWgJ/VkQBPpiK8kunCTw0fvhMlWjBhat+Ok0wm2jeDgooc2pno9fVvMdDrIWqRTmw7eihOsu/gwyIGqdWMIlI/lnjdJ3MfHTCB3LBJpPoOx2b3qY5yzbDS02Xhp5Ewm6TzPSe9MBHl0idufYdvLg59LhuRbao7upQJfhE+LMZrdijJD79uMHTo0I+jhZbruOXx6N0hre/078xAKzD8O7N1DP9tS35WbqjLSMs8QwAAIABJREFUL7+cuNerJBHEV1dcvSqcHXgmW8rmbFxRBw+9cQ//WVID9ydiDPcWKKC65sFv1vBLh7Em3cyyqHpxOIIkyqroOfw8ek+cT/dpV1I2/Tolu1AlLCPprm1JGU1egnQtV50/j7Ix00kNnUi0/wTCDWOaF/yRJOob1RBapQBEy5DFqwAMAhajj1hnSKoUSaEWIUATFkpr3XBiDY2EaoYSr+iFN57H8Eaw2r2ISJ30CMh3iup2FoaCvFXaldUeHx1PKKRlZNGV6MDU3oTpJJMCACnyqufNOX2JIEwnfA3Tie1JnX4KT6TLeS9TwRvdMrzWI8OHmSybU2X0NKTr180Mf4KXe5TxXjLMLQE/HU4w0VDUgXGOkEpr2e0aWcNMf4eZ83wOFsVc/DzjZls6xwOhDHWdO/NNiRTamWivgKlwjKrW0M5E6vTTGO3yE1VS5XaMcIJE38FEVSpJCvaFiEHmM1I/jnjd6I/nX2o6kdpR+PK9P+41MDQzIz06DyZEBiPKJhFIbLZv/SJg2CaCi7kEz2fLqPKIrad0obvU9Rl2OrnkkksUMLSAweGPx/Btd9weWiswHCentuVmEoC4+eabyZYEKbYXKIE+iw2P4+s8kcmxJZtgR+rIns8itXxjIkiZzYJm8+AtchMuMuOzdlaS07KYugIZclWDqW6aTp+Ji5Vyp2qWuljE2q6k9+SrVJ66z+QlVE9aRPdzZ1E2egrJwecS6zeWiKSKpH5Q15IiEiAQYBhBUnb69SOaQUIiiJEFYFBRxJGBIVU7kpSwbuS9G0YR6jeKkOyKJS0ln1UzjFjvwYS71+FJViiAsAk4aE7ihp1lAS9/y5TzoNPHGScKMLQppJIEAIT1I0N+bgYEKfS2jJNMZ9DBdCJNnTqxoSLPm/kkm1IRbkvEuDoYY4xfJ2HWcFmcTA6GeLlbnh2lYYZ3PJOTTG0p+bqJ2c6UkhIvcpjp5dL4TjzJfelynk+VK/bTtnxXvu30EP76qZzR5gTatmlD2+bjEfA6uRnAvKedxAXOEiI2q3Lzszenkj4PGKKq7jBSpZcEkCPVQ3FGy9Ct0guh4detzPC72JSMszUTZrMoqqblWpLHT7OSDt9o7EiH2ZpL8mS2lJDzG4SKRXbETbHDoTYw11133ccRw6EbnJZr+ji5Rf+rvkYrMPxXna7PP1i5ofbv369usDVr1lARi1PkcGDVPZQU65hdp3N/RHZ7cWWacvjNe+jz53Ixro+4yHfsgGEVrR+ho3ai2FmM2+YmHCmjbMBIep83h6op0pcgvQfX0mfKldRNXETfScuomXIVvS+8gm7jZ5JrnEj87PGE+4+hpEEAYERhSPqiOYUhbKNCKqmRVN0wVRgVcCg0ZQk4jG4uQh8ZGBLNkUa0YSThfqMIN4wkJrvhmtGk+o4h0G88wea0VaJ6EImu1fgjSXRd6ig688MGfyzN86DLz2mnSu7+JE5UKaN2mExS5JXcfmG0Vekkeb0wTjvDxJAOZ3CfP8GDyRRXRtyc79SpMRx4nU46uRykzhSJcTP13mJeS3fj+2YrZ5zWDtMJp6B/08RlrjR+s/gzn0Wj38aufFf+mipldyTFAyVx5js1Qt9sh+kUEyeYTqC96URFUZXoRYDhlGZgsH6tLVMcIQUMor/kiKYKrKTPjBjGE6kf/3EUIbWHcM8B6P4EUhz2mS2kXE6ujQZ5MRFjezqkrqOtQn3+F4BhZybMpkych2MJDOfpRDqLUJ+Hzg6H2sDcc889ijjRcv22AELL4+df9a2/+bJmoBUYvqyZ/Q+/r9xELbutV199lV6pUjo7dIKdDaXT08ln5gZ/jOdFFVUVDo/UxxDnhpBHmem4LX7VjOS0dULzOPCV9aFsxGSqJgrvfYlKF1VNvYaqyVfTZ8rV9Jl0JX3On0+PpkvID7mA5IDxxKR4LLv+5pRQS4rok8eW1E/hUVJKn/xOgKSl1vCv0VYFYFqiDElDxYWvr7j7UtBuKhRZ1eujidc0Eulao7yPS+xWLol4eKc0yX2BEM6TTi5EBqaTaGc6oRAZqJqD1B1ahtQZCqPoJBNdv3EaY4qKWeYJcG+0jPsjGW5IhJlYYiHo1fAVFVHkseB3FbHaV4FxWiE91cFkosdZpzDGF1eS1G5rB0b7rDwUzTJJM9P9jK8TO+0bmE8+iTaSxjqxLaY2J2CS42rXTj0/XQCqTTtMJ5uwndqeic4QXodNWYDq6e4qApMITVJFBdpvSz1HUktjVVpPXg/3G4G/Rw0BW0ClEDWjiAEeF/dGs7wYSxXSkekUL8ZTbMkW0kqHbiwO72PYmithYy7DTwJJrM4ipawa7eygg0OjLJZi586dH0cMch23/vvqZ6AVGL76c3BUjqBldyWPH374IQOrarHZDcLCF7c7OMttY7rdz4Zsnq25wJG1ktIJfhQOKCcvp8WvfAa85k64PW7S/UZTKcwiZRm5TBWahXaq+hAmXUnZuPnkhl5Aqn+TKmwWFqAv7j/4T/5doZYhQDWWcG0TkcpBWJ0efIaFiSU+3i9L8VA4QuqkUwupozYnFhhAkjaSHfnnjHbt29LulLaccYKJwKntOdvcgVsDMbYFS3k8nubmcAULrTFcuhmnYeaaQBklp7ZHO7UtFUWdmObx0EXJeDuw2TszzmNwkxHkrFNNtGtrUummE1S00haJVto2Ry7CkjK1a8M3BKDatFU1kMSpp3GO6CQ5bDiL7djLatT5EDG9z5rrZO0YQv3GkKgfRbBhKO4ulZQUefCYdexuM1NK/DyXLGdPPMWGvPgrpHlZQCIXQ+jN/wwMn2glbc4G2JwrY55D0ptW1XwZ6ySKtAaV5d147733WoHhqKwCR+9NWoHh6M3lV/pOLcAgUYOMaZOn4HOKwqr4AjsUq2iIWeP5TDlbVMTwyY17uDzG1kyCX8XC9HI40G3i7OUo6PboBumeA6kST+Hm4rIqME+9UtUTqictIT38YuINBVBQReO6wq70sxajr+I1SUkJMCTVcY1RwBCrHoyzJIJbs3GO18ufynM8FonS5dQzmusJkkKS3fjng0Khuaw9J5rac5KpDV8zmehoMmE54wS8HU6h+sRTqDjrNG50lSthuhKzhcEOH5daShjpDjPQHqC7bsZliHmNi872YsZ43PzYmcBzSntFmxX20QlSaG6pcRxS52jTxsRpzewkYSYNOr0TIzU3Ad2Gt5MDf88BxI5wLiQFJ+m3VF0j0ZpBuLJd8CipcZ2418Z3okG2p3LsTsZ5riyhxPP2JFKKhiqGTUcChh3ZEFsyFYyyGOo6FOkUaYz0OVw0NY76ONKVVFJrxPCVLiMff3grMHw8Ff/dPxwODDf8+Ick3T6sTgPDKj7FBvmijqxJlynHrcPB4NDnW7OSI48x1u1R/0+E4cx26XLWiUa60K1xmlJDbWEeFdhHy1SPQunIacQlhy+LkHDjj7AYfRXAEBUJjRZgqBtDpLaJeJ/h+BJ57FaNYQ43e8rzPPkPd7KaM84sRAdtpW+hmbb6OdGCAob2JxR6CkSe4oS2mE6SnXyBSqropGeaWBquUHPptlrRnEXUdLSR0g18djtneotU2sduFe9lnQqnzgxvlAn+GCPtIWqtTrJndsQ46SROawEHYUmdclhRvK2JsYaXnNvGmR4rZzl9RPoOI1orKbp/jt4EwIW1JfWcTO1wEr3644iksesudF2jj9dgdTzM7kScXakQz5RHeb40xc5Uiu0ioHcY/flwraRdmRhPJsvoUtwJm11kzR0U2TWSDi/Lli77GBhaNjX/3Xfi8XH0rcBwfJzHf/oWjz6zjvJAmGKXAIMT6WcI2DpxSzTOhmxCUQ2FZvhZQ+iI61NxFvpKFEVVNPOLHVYVfXhtJWT6jKR64hUqjSTeCWLFKb0J0rzWbfwMkv3HqrRFCzh81mL0Vb0mNYYWqqZQNAUYEjWNhMsqlUNbX7ubX+czPJuIMeRbHVQDmzCQpLDbRhWZPz9q+JqpjSr+KsqoRBdfK1BaTxAwOdXEJKuDy21JiuxWznJpmF1WPNZiDEPjLLcd3WXQ1REho4fwme3YXTaShpWcZqOLRaOXRaef7qHREeRcZ5SL9AiTi4NM6RigqZOTPsUGVWfa6HVmMUuNJN2LxcRII+pOqVqKqrd8DjBE6kaQqB1BumYoyW61GK6Q0klya1bO9bl5Lh1nTyKk9JGeKY3wbF48GCSlJLTVwyKGw66rnYkEy2NpgpaOGIYTs+6kk8eg3F3CfQ/ep6KElo3NZz3+08Xd+sKXPgOtwPClT/FX8wFvvfMXqjJ5rLqGzebEIWkBvZiLfQ42ZnOfCv0PTQPIz1JQ3JhN8BN/mApZuDQLVjG4sYqvsZNgroruYy+hz6QrlDezsosUiurUZUpFNTlg3MdpC9mlft6C9FWAQ6RhrNo1p+pGqKJ0uHYM8ZpRxLvXYXP4yPxj0fp+NMiGbJwxnTs2dz0XwKCtMICOFDG0awGQAm20k8nEGW1MdD65DdM9Cc51+unRwYZVds2anWiRDbPTQsrwcMGIsaz68c9Y+8ivuefW5UyaOIWEP4S/yILNXoymdcYhEt92K36HRtCuEbbraoQMjYpiK12tDnrYPFTaPdSbDQLWThTbDQKlPdX5+Lz5VhFD7UjSorpaO4xoWZVyixMXurRmYam/hG2puPL53pEOsCEXQVzZNmcEGCKoPoUjNLltT2WZF/Di1sTy1INZc1Cs2+gSivH673/bCgxfzRJxxE9tBYYjTs9/7y/3H/iICaMa8dudyrRe5CB0w0Jv51lsypQeGRgyESRvLKJ5jQ7pnLYoSWrdsGPXDQxfnNKB46ifdDm9lY+wGMxfo3oZqqYsITvkvE9SSccYMIQbxilgSNeNaK4zjCVeO5p45QD0QAy3bucSr5PnS+OcbytW1FTVu6CkMU4+IjC0kXRT2zaFWoQ0w33NROyUk7nWl2FKBxsOV5Hyug7pfr49bQHXz7+cKTct5u67VvH8cxt4ced2nn91O5tf3MYzG57nju/8mCGlVbh0DaduVTLekpt3WWzKm1kc4zTNhlnkSTQrJTY7fk0iQw3D6IxHL0ZzOJVHdoEW/M9pJAELUVmN920iXdNEqHYonlS56n1waJ2oNWzcGhbHPokypds5xNZ0XMliFIAh/IXAsCmdp5+rCLduxWXxYNPceKw6A2tr+Ii9rcBwDC4zrcBwDJ6Uo3JIB/Zx043fI+XwYZYOX6sMM2HjdJ6KfNqK8fCIQaQOtuQiPJnKMz0QwtBFwkBX2jZW3YrZ8BCt7E/1+Bn0UcAgktrfbvZrXkrFyEnEG0Z/HDV83k71q3g9dBgwRGrHEKsZRbJ6EN50ubLrbDSKeSLpZYrLRjth+khTmyrsnnJEYDhFRRQnYTqxnVI77XNqJ2bF83RzdMbhOg2vpQiP4WLszNls2bqb7Zs3s3X7Bt7atIOXd+/mtZ1bef2FLex6aRuv7djFru17uOvRx7jkkosJpWIFzSPp0paakdWO0+4mIR7KvftSVt+XdDaP4fIpevLp/iKCxcX4iuxEol2IfU59QZ2DutEk+0wg3bcJT59BWMMpRJ3XZfsWY9wOHk1VsCWdUt3OW9MF176tqQybM6kCWEhn8xEihqfiaZKOb+C2WHF2dqPZ3MTMdpZeeQV7D37UCgxH5YY/um/SCgxHdz6PmXfby0E2bthI0hvCY3NhGKIwaiZe1IlLsnm25GK8lArxQrqE58qibCxNszuVZqcUE3Pi6Rtncz7ELUGDhLsj7mI3iTN9yuReRPlKwgm6ST+DKKcqBzapOYiW/zVUjJ1FvP95RCVNI+kJ1ZfQqDqRIw2fvWv9T4HEP6W1GkaTaC6Wh8sbCHcqoavbxg9KAnxb8xWax046RTWSqa7i5nqDMH+kdiAMpPZSe1AF50JPwukmE8POKmaJL0NPq41il3hLSxrOjtfp4/77HuKlPb/hxd27efGFnbyy+wV+s2sH//vSS/z5rbf4y5//zBuvv85vXnyJPbt3s23rVtatX8fPbv4JZ9fW4NDspCvraVr8fWbcej9zb3uQ6Xf+mkvv/DWTf3A7VaMnogelac+B1Ah8WmdSuV7ka4cSbhhOoN9I1bOQqBuDSIjEGkbgHziUsl7jyXUdiMNhV+5tAUNjjt+OdC5vzybYLnIqzeMTskKMzfkSdmaC7E4m2JRL8XxpjF2pIC/Gw2zLprgiVUZpUWc0vZhih44YEEXtPtY/9jh72X/M3DOtB/LJDLQCwydzcVz99NHB/ez9cC+9u/TEZXOg24UGaSZaXMQgn08VD/ckIuxJh3i+NMLGXJpdyTQisCfWnVKU3p4Pc2+mhP4B0c13EuroRdet2PTO2B0ecv3HUjlpGVVKTrsADGLV2ePcBcT7n4/sxqXQeygwiEzFfwoEvuhzVG69mdcvP5dIP4MvgeY4i/P8GktdoQI1tM1Jqo9BKKim9sI0am5qk56Bk0SvqB1fN7WlXXsTusnEZdYgU0MJPP5ifJbO5DrY6eB049ZFxVWnslsPXti6nZf3vMhvdu9iz85tvPabl/jgvfc5sG+fcpXb99Fe3v3bO7z2yqu8tGcPe158kUcfeZjxw4fj0Bz0GjKWS36ykrmr1rJo5RPMXbWe2SvXsXDlWpbe/hDTlt1AMF2GxWrFqZmxGyVEyqtJDGykpN8IBKDVuVHSIY0E+w8hWz2WRKYvdkPHrlspdbn4QTzECykx4zmU3vxp0bxNuYJhz65Ekk2ZFM/nouxKlPBiIsrzuRTjPH6SAgyGWXk6eMQ/Opjgo/c+4CMOHFf33fHyZVqB4Xg5k4d9jwMc5OB+mD19Jk5DlFYlH23FZzVTarXycC7NtmSc3ckQm3MRdUO/kJDUQITn82G2ZxLKneuJfJw5oQAe3YbD5kQYSm5NTOKdhLrW02PCbKqnLm2255TGt6upnriY1KCLiNQ1FSKGuhZxvIJ+0aELdsvi3MJgOuqPh7FwPu/95ZhCfYZhTVXQ0V1ED38R53o8dDrxBEwnt8d0qqiptuMUk8hviwxFe0wntEOYSN+Q2sIJJqKnn8bCYI7xviAlRmeVOtKLrejxFA5PEsNsxa3r+BwOLrloIi/v2slLL0ik8CJ/eusP7N+7jxd372HihRfRu6qKW27+GXs//Ih33/4br7zyCg899ACjBw9Wfto1I89jxi33MG/VOhasfJwFd6xlwfL1zF8h4wkW3v4A83/4S0pS5copzWZ1UeQOEq8fRKh+mAJniRYEHKRLPFE3jHCf4XiCOXTRyNI6Mcjt4f5clhe+QFtrUy6spDF2JVIqvbQ5G1HR6PZElMfyaXpYzAQsReh2K1bNgtdqcPGE85Vj2wetEcNhd+6x8bQVGI6N83D0j0Ii9IPw618/hsfnVx4Kul3DbrMQ1mxcF/DxbDbPi8k4W9IRNmcSvJAUC8YYz+Ujip++KxXm+VycX0RjlHt1OhtiFarjs4gHsAM9lKXriIuUaqqAgxjxVE+9kr6Tl5IZOplYv/FEaxpJHAIMh4KC/PyVA4MqvhZ6LhRtNdcbq2ajzNKRJsPJ6BOK+abJhKSHBABEdlu6jqUvQbqRC/ITJzLZEuA7rix9pUHN6EiwyIzX5qRsWCOX3fwrxs64CpfbiyH+yWYzcZ+X1bf9kt/s2snLL+5h794Pee9v7/DTH/8YS1ExnTt2pKGujm1btnJQvKn372fDxg00DRuu1GBrR1/IzF/cx1wFDE+w9M71XHHnk8xZ+SQz7lrP3LvXseC2+7lkyXdx+RIYNjd6IEqqbiCx+qHNvRwFYJDzkKtpxN+7P5orgEOzEXCYmebz8lxGgOHwGkKULalPxkaR1U7GeSGWZksqwVbx80hE2JDNcGPIR9RmxtCKMRw2dIsZv9XO/Xes5KP9+3hfLtLWf8fcDLQCwzF3So7SAf0jWjiw/yBvv/ceqVy2kEoyDGXB6TB0zjFsPNa1BzsSCbalwspha0eyUJTekI+q1MGulABEnMcSKcYEnVgcnfCYDXzi8WA1MBteyhpG0OfC+Yq22mvKMuXf3HfqMkpHTyfab7xa+JPi0yzg0LxDPRwcjpXn6dpR5Mr743QE1G6/0uNgrMWtUkQCANKLIJGBdBgXm0x0OeXrzLKWsKwkwzC3g5DeGbe1mKDZIBnO0ThrEQtWPMCiOx5h0arH6TN4OBa7S4GDT7PRv1dPtj73LC//5iX+9s47vPfOu/zq1tswNA3dpjF86DD27NoNIpB44CAbNm5k9NBhqjO6YdxkZt/6IHNWrVMRwpI717J4+XrmrHqaS+9+hll3P8miOx9m7nd/iqckjVXzEO9SRapBPBmGK7CWiKEAzqPJ9R6Ft0clFs1QTneldgvfi4TYkZZGtk/3KRxeaN6UjbMtlWJnIq0YSzvTEXYl4zxWXs5kt4FLL0QKErE6rFZSJUH++uZbChg+aAWGo3TDH923aQWGozufx867NQPDhxxk6mUX49A17Gar8oG2GHa6FHfml6VlbMtmm4Ehyo5UHPFi2JiLI93Pu1Li5hZlQy7FsrCXsNERl8WO2+rGZTPQNYNIeSVVE2YgDm0ypMmt79SldB0/i1j/TwNDS+riWAGCw48j1jCKYJ8h2KM5Ojl1KnxuRrq9eE5pyzdOMHHWiSacXz+JOouNeb60GvV2BwHtW/gs3+Cbfg3NHaBr3VAuvOkXXHX7Gr5721rm3PUEU+97nCU/X4432w2b3YPdYiPkcHDt0sXs2f0Cf3jrLQ7uP8Dv3/gd3/vu9UybMoWHH3xIpZckxbT3wAGefvY5hg04W6WGBp0/nXl3PMrsVeuZv3IdV6x4nEUr1zJn9ZPMWv2USjEtuvVeuvcXsx03rkiebO1QInXDiKjUkfgxFIBBpDCSVSPxpFNYjGJ8Vo0hup27s0kVOaru5iOwjgoeHwl2ysYiI9eRbCjS3FnelUprseqe1wTsLBZ1HZ43YTwHD+xj34ED7NvfWmM4dhaNT46kFRg+mYvj66e9cOAg/J0DPLp2DQGHQ1FOxZSm2HBS4rAyz+vn+UxGOXFtzcXYkU6o2sLmZmDYKQXobESJpC2PBKl3adjEvc0i+km68jJ2BaN0aZyoPJ1FZbVu8mIFDGLZGR8w4eOIQTR4ZCFqWYwOX5SPhefi3eDs34i3rBpN91DR2cIU3ctSV4zLrVGu9uSZG8gwzOUjZDdjcRZjiL6RzYrV0Ih409ROmcVFd97L3OVSFH6OZbc/zbI71nHRw2tZvGIN5y++gSJHCLvmxGuz0i2bYd26Nfzvq/+r6gkCDgf37UeKz1JfOLBvvxr7Dhxk7ZNPMbCuAV1zM3TSHBaseJzZq59knoDDqjXMW71GAcL8letZsvxxzp13NfZgBIfTINFzkGroCzaMJtQwlkRdE0np36hvVG53wcoReDwuNHsnwladSwwfa8uSbMqHlPvap4vPhxai46hrJxPjhXScbdkIO7MxNmZyLAvFCEn/hVUaLA1c4k6nWbjnoXv48MBe9u87APuOr9vuePk2rcBwvJzJw7/HPhAFY4kY3vvwfaq7dMXdyYZLc2M2XKoQOKK4mCdyebUr3JaLsEOoiJmUohxuk5pDSiKHMJvyEdYmE1zg9SilVrvNoxqsXJoZq91Jtn8TPSdfRdW0a6mdtJjeUoyespjEoHOVEY8I1h0tYFA1CVVQ/gw57rpGYn0GE+szVPk8tPxtiwy3PD8SAEmqK9tnNNluA3F5ohQ7ivEYZxIOFBHxWnA6OuM0OuHWOuMzF+MtsuDWXGi6n3iqOxddejXX3vIwi5avZ8Y9z3PZ6g1cetczXHbXWhbfsYYFK59kyR2P0m3gaMQcyGm2Ena7mHnZdHa9uIu3//wXBQoH9u5TkUILKMjjvv0HeXTN4zT0rcXlLmHktAUsXP44c1Y9ybyV65l916PMuesx5q9ay+Ur1rLw5tWku9eiO1zE0zEl+yFmPCX1TQSVyKFIgzQDQ/0IfF0HqIXbYRSRMRzc4I/zXGmM50pLlLlTC031sx7FnW1nRqisUbblwir1JKY8EzSHYjg5zHZ8VhcOs41MJsFfPnibj9jPwX0HYe/hF27r82NhBlqB4Vg4C1/2MRyEa6+5BsOq4dAMpGPWa7VR4rTy3VSOXfEMInWwMR9QrJIN2aySOtiVjLBd3LcyYTZmUnwvECanCx/fhdsi0tDFiBdworwvPc5dSLep36Fmovg7F9zbMiMmK6e2woJcEGk70sL8r/wuKt4ODRJ5DFduY5G6MYTrxxGTIndVf4LBkDLeSfYVzn4TIeX6Npxo3Qjl4Hakz1C2obVjSfYZTiDTXaVg7JqmIgK3zYLTqmFoBrpuxqF3xmUrxml3EaiopnHZDcy681HmrVz7uePy5c8w9841TLnpl9jiGSVuKO563SpKefDRB/n967+FfftBogYxXdq/X5kv7du3T9WLfv3wo/St7o3vH1ISTTMu54o71zBvxXrmrlzHpfc8wrzVT3D58meZt/wJBk2+jBK3+DEEidQMVA52AnxSR4nVNxLsN4LwAHHQG0GqejDBaIQiRwBfsYdqp5k1QS87Mz42iLezKih/mqJ6aJ1hWyqLmPYIiGzPBHgllObnsVKSdrnexK1Nx26T7m2D+XPnKlLEoZf8Z+kjHem1Q/9v689fzgy0AsOXM6/H1rsehJdf+g1+UUu1CTNJw2Mz8GpmxjudPJkvVbRVualFI2ljRoqI0WajdylEixVokl8l0gz0uPFZ7IqVZHZYMHSNQLCU7mNm0GPKVdRI5DDlSvpMvYrypulE1MIsO/WjBAzi5HYIMMTqmwjXjyVROxJfvicOux2b00/52eOJDjxHubVFmz87UvfZ6qItYCHAEKtrIlXbSKJnA65wSoGDpjuw2XRshhPN7lSezJI+MgyDUFlXJiy6loV3PML8I4CCAMaiFc8UQOPO++l33iQ0w43bahDy+bjk0ov5za49fPDOu7D/oEolvf3Xt/m6OT2SAAAgAElEQVTLX/7CRx99xMED8OC9D1DZowehZIYJc5dx+fLHmbviSQUMc+5+nDl3CWV1HdNvuI1gvgeG4SaR70miZvjHfQuSypMISoAh1H8k0ZphJCsH4HC5Mdt9eDQn57idPJeNsyXnY1Muws7EF3TKp9KK1bYlG1DX0QbpmHd4CVvMSkJFAEG32PA63YpldXi9+Ugg8Fm/O7ZuruPzaFqB4fg8r5/+VgdRhc0JTWOVnLPDpistHI/FSoVWzE/yaSWpvCchTltRNmWkUSnBjmRKiadJb8POVJw12TyX+LzEzRoWw0Fnp7iD6XiMMN0GnUevyVfQZ8pSek1eRp9pV9H9nFnK3/moRgz1Y5TNp/hCiz+0AE+4bgzp2kacsTwOXcesu6gaNYnSMZcQGjCeYO1wtUuWHoYWEPisRzlO5Qtd10iqZijRHrU4YjksvigWTxhLSQRnKILf8OIy2/HEUgybu5A5t9/PkjueYOHyz48WBBjmyu5+1TrmrXiYOT/6H9VjIDUfKeRXdu3K+jVPqKhh398/ZM+uXdz0w5u44YYb2Lx5M/v37eee1XdTUVZOLFfO+Yu+w6LlTzB3ZQEY5q9az2UrH2fOHQ9SM/xcvO4QrnCMeJ+BpGrHHgYM4oU9gkj/EST7DiFcWoVNKwBfwGXwPb/0skgqyc+2bJTdsfgRJS8kotgkf5eUbuc4t+Wy9NFt+IutaFZDRQwu3c7QQWcrwGsFhk/fnsfis1ZgOBbPytE+poOonPXax9bgdboUOMiC5LEYuO3FnBtyszGVURIGskMUX+iNOQGGNNvSKbZlpJM1wsZMhpsiIXrrdmy6nc5OTTFOPGYP+apB9Lpotqot9JpyJdVTrqTXBfNJDCiI1h2tiCFWP4Z4/WgOBQYBh3TNMOzBJHabFYvdQ+XoyVRPWkx29MWE+4klaOMRFUYFKAQYhKEjEUZMZKjrhhPvO5hwZQPB7nVEqmoJl3XBbwTx6kFqmi5g0i/vZN49a1l6x1MsXL7uc9NIAgwzVzzBvLuERbSGy3/1AEMnzcTq8OO02kn4S7h8/gJe/c3L/PaVV7ly6TKsZmk005gxYwbvvvMuK25fTiadJd2tiolX/pCFK9Yxd+VT6jMvXy6gs4Yxy64jHM/jN3xEelYpAEj2Hae+l6SSpOAs3zPcTwyUhpHpMxBPKIMupAKblXK/wcPBQvfy02XS0RzlpS8ABkkrbc5FeTERZmsyw8WRAAHDrCw8dakz2HQVLdy9cpXq7P6/AMPRvjVa3++zZ6AVGD57Xo6vV5sjho/e/zsNNbUKGHSrgavYjtVho7vLzPJUiq2SS87F2ZIVu8Y4L6TSysJxazbG7mSYF1IJHkonGO9yqxqF2dBw2ux4zQ6i2W70nDCN3mL7Kf4Mk5ZSM+UKkgMnNO/Sj04q6VBgiNcPJ6wW8lGkep+Nwx/DKcBguKkeN12ltHpOvIL0sAuagWHEF0YMYlgTVaPZD1nST7XDSYocdWWN2oUbVh+50r5ceNUPmHnPY8y8az2L73yahdJ1LH0FnzNm37WWuavXKXrpohWPM+snd+DPd0e32vFbder71vDsk0+zffMW5syajc0i9GKdadOm8Zc//Zn/ueUXhMNRynv34+LrfsGCFU8xd9XT6vMkYpl1y2oyAwfjcPlJxHIkagcREFe2mnHKiCdRNxKx8IzXjyHafzSx2sGqQG04SjA0KRAX0ejT2ZbIszEf49nyMDuVD0OCw32cD32+ORNji1wvyST3JtP0dtuwOKxKG8qu2VUaqbpnJW//8c+KYXU4MBxfN9vx8W1ageH4OI9H/hbNwCBFzTtuvQ2XyGdrmrLsFJvFsN3M9BI360tzqqFJwEGE9PYkC96+0tewMx1iT1J0+FMsDgYpl1qFJvUKQ0UejkCY7k0X0WfSMnpNuQrxge47+QryQy9QO/yjFTHIoiYGO4n64cQahhd2vg2jyPQehNsfVYVi3eWnatyliE+ECPx1GTddAUP8C2oM8XpJNQmASdQwGnF7i9XKLnsEid5n40mWYrW7sTpKGDBuKvN+cQ9zVhd6BxaseJoFK48MDHNXP6FAYeGKAsV03vJHGDB5BrrhxW8xSMXiXH/td3j5xZd44N77GNvUxDnnnMO9996rIr4f//Am3N4APfoP59If3Mm8lU8zZ9Uziom05FePMHzqPByRBM6SsBLZE6ltSY0la0cqoTzlXCdqsvVSsG8kWTuEcLordptb1YySRhHXBH3sSKUUE21jaVRRmHekk4dpJX2arrpZTHtSCZ7L5lhY4idqN1NsGNg1h5IKFze6H934A/b/vUC/bQWGI9+ux8JvW4HhWDgLX/YxtADDvgP86c0/0LdXFQ6tWKl0eixOxa6pdnVmhVBUExkVMWzPlvBSIq4iBsk3SwF6T1IYSgl+kckyyFHg4Tv0QqesxeWidOh4+lwoxeer6T31SvpMvpyuo6cqCe6jBgyiv3QYMMQbRpLrPRCvP4xbs+AKhBUwiEdEz6lX0XX8DMW+KYj5HYmyKkqwIxD/Y1k8Y/I5tSPJ9B1GsLw3dncQ3WbgSuZoWnAVS5Y/yuUrRKvoKeaskqayIwOD9BpI+mfRisKCPnP141xy0y+IpkuVTITP6WbEkGFs3biJN3/3O/7w+zf53e9+x4cffqh6Gq7/znVohoua4ROYc/O9zFv57MfAcPENvyDbtS9uh49QeVdC9cOJ1o4jXSMRwhDiDVKTke7zMQhtVZrckn3PxumP4rS6VF9FN4+NB2IJlRbakgsrP+dtUm/KCTDEPnc8n0+yI5Xl/mSSgY5ipaWliWSKIc2QxXQtLVPpsYN797VGDF/2vX6U3r8VGI7SRB7rbyPUR2mekqapn/30pzjsNpVS8lmdyuwlZO/MbK+L59M5tos1Yyak+OhbmusN0hH9QjLKlkyUNfkMF3vdxMW32LArZpIUtOO9B1J17mIFDNVTr6L35MV0Hz+DWEOT6meIyo5dsWKaNZKa8/qfVQj+vNdkJ69opVIHaGgk0m8U0fqRZPsOxhNMquKzO5yicvxMZR5UOfXKAjBINPAvRAwCDPLZsnjG6saQqh1JqtcA3NG8kqJw2AwCyQxDJk5nwY/vZMntj6rFfuZdTzF35XoWrnwSaTATCqkUmkX9dN4qiRSeYJ40oa1cq/SMZkqH8qrHmf8/qxk6biJOzaOUa8tzWW756U957bVXeff999h3YD/79+7lg7f/xlVXLMZmOBgwYSILbhM5jAIgzb7tIWqaLsTjjREOpklU9yPYbwzR2gmkFDAMJdxvBJmaUcqMp6R/E8F+jcS69sWueVQ60GW3M86jsSkV4/myIJuk4TGVRLqany6PsCkbUed+i8iyp6UYnWBLuuDitjWTYkM6z2Kvl6Qu8to27BYDw6bh0qx899pr+fv7H6iOS7kOW/8d+zPQCgzH/jk6Kke4v/mG3Lt3L6+9/jqVfapxWm3KJ8Bq2NENjb66lf9JRNmWEnqiME3CasjPO5IZpYcjxWmJHm4IuummaVgcDqXcGuysUZLpRo/xc6icehWVU66iauqV9Dh/HuF+45UEd7R2lFJbPVzh9PNA4LNej4iXQD9J+Ywmrna/YwjXjSBdOxxXtEtB/iFRRs9z5tBz2rfpOWWpAidJC6nPP2KTW8E7QoAnUj+WaN1YkjWNxLrV4CyJKykK8RJw2BzE41kaho3jvIXXMktSSgIAy9ezYPmTqrdg9qp1zFq1ljmrnmCeqJ+uEGrp48xa9QSXrZbxOHNXPsYVtz/Ipd/+Ka54OTajmBKfiwvPmcD2Hdv43Z/+oDqEObCft3/3e+ZfOgO718eQadNZsPJBBSyirDp60XeJZLri9ERIdK0j1VdAcCxR6e+ol7TbSIL9R5LvM4ZM37G4BzXh7zeMULgMT7FDLeRBl84Nfo/ydN6QD7AlneZ/w3l2pGI8XRZkY1Y2BQWPcJFO2SGObqmkMvARKYwViQT9DHGO07DYJYWk4zJb6VpRwa5du5DrTv61XIdH5aJufZMvbQZageFLm9pj640PHDignLLk8e8ffsiPf/4zPLqhLBZFQltYRpniIma47Dyay7AjmWB7WnT4g8rsfXtKqKsptmQKTW8rUjEGuJwYuo7NasNnNXD7k3Rpmk7ltCvpNfUqpbTae/IVRAecU5DgVvWBgpLpoeDwWQDwea99DAyS5lHAIIv4SFK1w/EkuqM5PPiz3el13lx6iqvcvwUM4h0haSSpL4wlJsAg+fkedThCKay6yI6L0Uwhf647vETLetK36ULOW3I9s//nXuaveFTJU8xd9XghWpBU0/L1LLxzvaKzLlixlvkrhL20jnmr1rJg5WPM/OXdVIw5Ty3QTs1Gn+7duWvlCl55/RXe/eBdUUPk9d27mXzeeXhiSRpnL1b/T0Dh0h/+itKG4Vi9EULZHqSrB5OolYhHgKFJMZCkHiO9H2nFSGrCP2A0oV798RlhnBaDYoeVrg4ny7N5RABvUzakNgJvlOR5JRJnq1i9Zgqbhe0KFKLsTIXZng6yLVPCmnyKuR4XeXMxVt1Q/R5Oi4ZXN/j2ddfy7rvvItedgII8tv479megFRiO/XN0VI5QbshDx4uv/S+D6uoJWHTsVgEGNz6zjRqbhevjEjWk2ZESVkpAOXgVogjxa4iprui12Szn+3wEbDbsVulnsOPUg+Qaz6PH1KUFXwapM0xZTGrIhYcAg3gMfxocPg8EPuv1SMNIZIicQ7IZGIRiKsDgy1SiO71Eu1RTdf48lUr6d4FBPrMADLKoNqkag9h+BnLd0TwBJRyowMEq8yby43Z0p4dURXf6TriQ866+XqWHFi1/mAUr1jB/xVrmrXiKecufYcHKtSxcsVZJZixa/iQLpDlt1RPMWPVrGq++AU8gqEAn6Q8x+5Lp7N79Am/96Q+K4rnj+WcZNXQI4fJKxi75QeF9bnuQwRdMxxtOYYSzxHoNIFE7QqXtIg1jFBgITTdRP1RpVAk4lAwo9DCEUz3wdXZhl74Pt4XznF7WlFWoc/1caZDn8lJvSiNAsCEn0UICSSsWOp6jCiykI35LNsSNqQj1ug3p4ha5FU13Kl/qmqoqtu7aqSTDpVGtFRiOyq38H3mTVmD4j0zzV/8hn+ogBf76wfusuv12Yg43Lqkz6D50m5Ow1UKT28kjiVShlyFdwk7ZGaZFZz/FdiW0F2NTOsPlwRB53aZsIC2aHY/FT6z/2XSffDlVYtgzTYBhCfnGKYUdrNrlF8znxYBejSOmdv65UKz6DEQNVIChVgqpYwpAUTscf74K3ekj1aOWqvPn/z9FDJKiksKzYiQ1Rzip2mEkeg+gJN8Vpz+IZjgxbPZCusRqwyUuaTYLdq+fZNdK6kefy4WLr2PRrfexYMVjzFm9nlmrn2bmXWuYu1qihPUsWv6UGvOWC4V1LVN/toIetQMwNKECOxjYt5aHH7ifV197hfffe4/1v36I2t5VZPqezUXfvY0rVjzBBVdcT7KiF253CcGKPsQEFKRJr2G0GjJXYtspwJCuGUl4wGi8A4R6O5iAO46vyMCuW/C5irmxxM+mfIYXkn42lvl4VuoM2aiirW4oFzpqhM3ZGFuyUlfIsDmdZ0u6gmdCWS50uQjbrNg0EWj0YuhOgk4XN//oJv7y/rvsb96UyDX4WRHDodfmV3+ntB6BzEArMPz/8DoQa5S/H4Dfv/46548chcfqQNe82HQPdk2n3GZhmd/Pw+VZNmekf0HSBpJSkIghqbphhcJ4cyRGH0PDYZMOVwe+YjeBHt3petH8AjCIac/UJVSMmV4AhlpJ1fzzYv9ZkcHnvRaTxU6ljlqAYbTqZYjXDiNQ1hvd5SPTq+H/EDF8AgyFQneh7iDpmGSfAcS6VOGL57F7Qui6W9F1XTYBh2LcUrOx2nG5/KS69KL3yHMZt/g6Zt12D/NWP8bMux9l9l2igPqEihYkahDBPYki5v/qYcbNXITNGcRpcZCLxFiyaAF79uziT3/8E6tuv41UKkm3weOZ8ZO7mXnTcnoMakT3BAnF88R7D1YRQkFLqiAbooBB0W9HqCJ6sH8jof7DSXbpjUvzqhqTXzPT02Hh4UyQHdkIv0n4eSntZ3c6yO6ENDameCGVYWsqybpEnOXRCNeHgswqCXBBSQkjvD7SUmz+ByXVYniw6F4cupPB9fW8tHsXHx4QMceDH6cxvwgY5G9b/331M9AKDF/9OfhKjmDvAdj74YesefB+0pGo4rLrmqe50clCP4fBD7NJnskn2ZksWDduyUixMaFE9XakY9wfTzLEqaP9o2jtNrvwFTlxp6NUnDdL1RiqpixTqaQeE2aqfLfqQZCc/WGppH/nuTCQhJ+frBlFona0EumTukO8bjglXfpiuP1kqwrA0EPoqofVGD79WZ8GKekIFoqqjKgMxU6SnoaRRFRKRhbYocSrBhKq6IsnVo7hCavUia5puDXRoBI5cvHXdmC4AkRKe9B9cCNjZy9i5s9XcPmKR5i//FHmCktppZjsrEPqDouWP8607/+MSNdqJavt1e0MG9ifNY8+wssvvcx111yN0+ujbvzFzL/lHs6eOAN3LI5REibavR5pXlPH36xNJT/LcUtUJt9Dup4D9cNJ1w0lWJJG1x2YjWJilmImeQJsEDvXdEQ5r72UjCr59WeyOR6K5/hRMM4lJV7GuDTqnFZKnRbl8GZzWujssqIbAgx25PoRSXDpb6nqVsEtP/kpf/3zexw4UACGFoA4/IJveb3l8fDftz7/z89AKzD85+f8mPjE/QfFGGw/f/rDb7liwTzFtHFYXc2Lmo2AYWWy18mjzTTV7ckom4SppHLNYeXh8HQ6yzivA6vDSqCTC2+RA81rUD5+OpXS/TxlGVJ8rjp/rgKGhNBWa0b8H4FB5CoaC8BQI8Ag8g6jiNUOI9StFsPjPyRi+Ofi86eB4dPaSWphlQYwBQ6iPCqAMJJw/UhCDaMIq6J0ATTiAkxVQ4l0qcGXKkPzB7E5dKU2a9dsOC023BZNGRu5NCfJSJKyvsM4+6I5TL7hl8xe+RgzVj+uGErCVJq7cg2X3bqKgRddgs3uw27VyMSjXH3lUp5e/xRTJk7EG47ReMkizrn8esJdeqJ7HQTzZYRrGlXqq9Cg1/ydFPjKdxij6jtSXwjXjyDbowGPzY/ZrnOWp4gyi4UfRMqVuY5oHm1OZ1iXSXNzooSLQ04GeRxU2J0EdRduVVexoVutyvvbJWKMIo5nsakmR5dIa9scGDYzTt1C17Iy5s+6nN+98bvWiOGYuOv/9YNoBYZ/fa6Ou7+UHdq+vR+xdfMm+vYWTrsdaVgTWW67ZiXjtPGdYJjtCaktBNiQDbFN0gpZ0U+KsDGbZLHHRYlTFkI3vmIHhlFE+fBzlU5Rr6nXFFzdJl1OvGFsQYpBFt3m/oX/l0ehYMbrJpCtGUW2RqS3hxMVCmv9MHy96tB8AVISMVwwX9FVK6cso/uEy9RnSxeziMcJpz/cMELVJlpqFoUUVYECKw10MhRANIOB6DFFpJ5R36RALqoa7aQ4PYpon2GU9ByAL51H8/oQ+q+92SLTa7YQsFjwFxUp8x9vKEmye2+qRp5L06LvMOcX93L5SmmSk96HRznv6h/gzlQokULpLRg5dCg/vuEHDBhwNoku3Rh90TR6NQxBc5fgjiaJVjVQ0jBKiQkW0m9SmG/2cq4ZqaKqWM0ognUXkqwfTSCVUfRiOcYSq41RxcXclyvlmXyWu3JZroxGGOfz0NOlETbMiOeG0JodVqmpOFB0XTFpsuq4LBpuq8iSF6IkuxLMM3BIR7yqu2hE/CHmzZ7Lu397R8mJK/eo4+5OOv6+UCswHH/n9N/+Ru+99x6//OUvCQQC2IRlpBf0893iS+yyc1tCKKohtmZKFG99k6o1RBGv358E/GRc4lPgxmt24tCLSNcPo+rChcq4p3LatdRMXkp6gGgmyW676Yh6RZ9XW2h5PVw/nnDdeCVTkakdpjwZxJIzVj+CYK9aBQzp6gYl4Cd9DJVTl9FjwmUk65uI10ruvUULSR4/nUpSInOSpmoekp4R+qqMwm58lAKMFuA4/DFZPYB412p8iRwiyyHsHJE4l9qD22xWPxs2G7puYHf7KEmXk6sdSsN5M5n47VuYf/vDzPvpnfQe0USx9JbYbGSiMQbU1JPK5MlXVlFd3x93IILhDROpqFY6TuLKFhYWUjNoCZtKIoVYrfQwjFX9HuHaicR7DUL3OjHbLQhFOdHZYHowxG3laZaW+Blrs1BpNSsgE40mkUuR2oHDKswz8VYQqm7h2pCfu5VXMPH8C5gzcxbnjJ9ALpPBadjV37k0Q9mXSj9DpCTIitvv4MBHYisoRYd/+xJt/Q//4RloBYb/8IQfix8nkcOrr77K1KlTlWibTfyhNQOvRcftsjAyYuexdBzJPW/ORtiQLzh2bcnGuTMaobtbFgsnLqtEDMWEetZSff58qv8/9t7DvYpqfQP9G+7z3Ht+R5O9Z3bf6b3SS3oPUkJvgvQmKopiw4IK2BDbsfeCChbUYwNFUBEV0kOR3mtC+nvP+82ezc4m9MQkMHmelTVlzZo138z+3rW+evNSpM5ZgqxZD3tiJjGsNUM0tGTIl7IfSZFIwUiJDEpPZs0R7UYk5oxCfO9sWF3BSPBZMaTN1oAh1gMM8blj4FsYbVSKmL8SBGjF03qJyxshQHSuOj5/BOKZ3yBzsDjFuWN7QGG4btWNQIVhJ8ywEXjNgbCYyZwVmG122EIjEd69HxIKhqNoyhwMGjMODpcLBBHmMnDZXbDbXAiLjEVoVByut7vhjO+OuMwbEMusdQxxUUC/hTMlmtu5YxGbxzSe4xGXPRZBsT1hsTCHRiDMJgsizC4MDQnFcPP/oZvpOkQGXCcgZjJbJRChWXVoZsgKVwFa+GzWibHxuHPe7WC03r+3bsPunbtQVVGJH9eswfx5tyM2MgpqoAkEBxuTGwWakZmahqMHD7UaXbUz/iau9TEZwHCtfwGe52c8np9++gmZmZlQhHnRicuO660KQoMCcHdkEP6KiZVgegyXUBwfI85u/02IR4HTIroJgoNiCYQzsTcyb7oDaUzaM/cJZM5ahN6jZknMJOoELgUIzmqbMwTx2QOQmF8kIqnwgkkIz5+EBMr8e6bB5gxCUloBMqfcI6BEPQdXDDEF2oohPpeJeLRCPwg6ydGDmvcRhS2jtXrKmZSg+oqBtR4l9uxaC7xHMdRoxOYw8N4QRPfPR3ByGpTQRFlBKGSwCplmIBzmAFhN18OqBEKhP4E9BO7wKERERsJu1cR5VGrT+ZDmsQ6FWfMcsETEIDIlC/GMjpo7Eok5zEcxWhIMcZ8lKXcUknJGIiFzGCL63gBXbG9Y7C6xnrIHBsBucUINsCBKURAd8C8E2FSYbDYEWuwwqS7ooCCBEqkzsVrRq0cP3DV/Pr797zcSy4nhVZifmrki6KPQUF+Pvbt348XnXxDwsPNZPSsNp9WGt157HUxbaqwYOj/TMYCh87+jdh8hVwz8YZ84cQKvv/46wkPpaEWRgF3kyoqFobnNeCkiHH/GRWFLHEMiEBgisCEpEeOcNgQFqiKeoIWSEhqNrBtvkRSfqXMeR8asReg3/lZE5DLx/KUBg+ghPBY3UbkjEZTUH6GRCUjqm43EnOEIz5+A0IKbxIQ1pEcfWB0udE8rRPaUe5E+e4kowPtNnKcFxcvhvanr0LyCowroA0Gl7CiEUxQlKS+ZE3mslHCJQspIpFTgar4NZP6i8M4dpcV/0hXSIiajqExz4Islg2aojpyhSMgcgrjUQsT1TIc7IgEWm0sym9kU+j+wMG6VFqmWohoHGbFikhWGrCqoszBb4AxUYbO7EZ7cE9Gp2Qjtk4mgbmkITkhDSFwvhMR1Q3BcMkJikxESkwxXeBys7kioNK21OkRh7Aq8Hs5AE2yKDSazDSaTGarFJHoHRbXIe3cyUCDFX0ogYiODMGHcSLz+yqv4c9MfOLBvHxrq6jTmTpGQborqqfktHT1yBC889xxiIiJhoQmvrDYU5GRkorbmtMTsYjsW/unbF1O3+4/BuIFQwAAG40OQHybzChMc/v77b9x51wJQkRj0f2a4AyywmyxwmwIxwKXi/RgCQ5IEUGPoBIbJYEC9SJMCpsBUFTNMjmBkjZmJzJkPI2X2Ui0vwk13XAEwaM5wAgyxfWAzO+FyhiOyWypispm2kky7CLZuybDYHEjsk4OcyfcgdeZjoChJAvnRaY1K2PyxCKdMngxelLYjEJE3DJF5RVKH0wqpQDPxFCafOwoxVOLmMJfBKMQzRzJFSgzFnTMc0VlDEZkxBBHpgxDZvxCRfXMR0ScH4b2yEN4zHWHdUxGa3A+hiX3gju0Jd1Qy7O5woRXFdXohELtMmj6CfhEEC87WGXKEOgkyV1oFOWxO2IMjoARHIsAVjgBbCMy2EFjI+K1W2CwWKXbWohNgIDvqBkywUSFsYq3pC1SLDYrNBjOjoAYGwh1ogjvAhPigYEwYOgSvvbAMf/3+E/bu3oYTx0/IyqDZE1rF92fTjGY0eYow96ZmHD96FOPGjIXT7vDkGlfBLG4/fPe9BNPTQYB+Dfr2xda+9za224cCBjC0D127XK/8gTLQGctvv2/CsKJhcP/7OjgDA+A0UQlph8tiwkS3E6tjk7ExKR4bu0egPD4OD4WHIkm1QmFYDMmN7EDqkBuROf1BpM5+HOnMzzD1Lm12XkARzGWsGjyiHvoP2JxhIiOnaMQVk4zo/rlIyiqEPSpanKsi4/sh+6a7kTFrsaxW+jPCqyeIHs1PaYZKk1c6xcXnFCExZwiScwZLic8agNj0AsSk5CKqTxYieqQjLCkFwbF9EBTdHa6oRNjDYqEGR0FxR8DsCofJGYZAhuR2BMPiCILFrhXV5gSLYnMI4zbbg6BYnbBwZq7SkoeJjii7Z5Yzm8b4afFj5szdU3Qi2l4AACAASURBVMRCjIydjoQK7KoNdpX+Jg4wO5qqqLCIgxlXHdRfaACgg4B4ZQdqgGAxqzApVphoXCBtA0EA4fEQi4qc/v3w1OJHsenXDdi/ZxdOHTuK5vp6NDc0eJm3zsh9P3AdFFiTubMNo6h+tXo1YsRHRlNYU18ydfJkAQbJY+1ZqV4sIOjtfO9tbLcPBQxgaB+6drle+WPmioGl7nQ9PvvsC/ToHQ934L9ETvxvi0tiKkUpAbjf4cCPsVH4pVsYymOi8GR0JHpZbTCbVTgDLRKFtEfuMGRMexAUJREYsmbei6hCWs+cP4taa6ChiZM0MInNHYqQ7n2gOhnGIwCq1SqOZEGhMbDb3BJC2uqOQ+ro25A5e8lZwBCdMQxhKQMR0isXQcnpcMf2hSuiO+xBcVBdZPQuKA4nlP+FdFBtnIU7YbM4YFcdMmun6IeiHr2IGMgUCGtgIOymM8Um+wGiR6AugWIZ1RwImzkALuV6BJkD4DYRdDVwoP2/FrlVi956Zp/6G1Vm/xaV4ECRkg1O5pwOVKV/m/p/Ag5cWaiKBSothwjSND/2AAxXCmbFin9bnGLxZLWaYQ/4P4SoFgzOKcSHKz7Azv27ceDUcZxCE04DqG8EmhgUtUGLitoaKPBDJyA0+q0a2Lb65CkU5OXDTh0JTV4VFaHBwTiwd598Z3KtsWLolLzCAIZO+Vo6dlCcmVEU8PyzzyI8OFjMLLXAccz6piDJZMU9UfHYGJuMkoRYvBoXjl52KlE5M7WCaUMTUvKRPX0haK6aNvcxZM66H7GDJ4m8vjXmrx+jyWg8Q2eIv8NYMcOMKGQy+/FigcRziak3ICgsEXTICwqwICRAQUiAiuAAVZihqjgQn9wffdIGILlPDiJie8LhDIPN5oLD5oDNYoNVtcGmWmHntmKBhc5bwlBVEX1YaE2jm2hy1s5zNNuUmTvvozFr7lPBqitZyfzIBIURcoavsK0m1hH/ELY3s2+tjfTnEfnYlABJbqPQGkjk/FRQ04rIAtVigUMNQHDAvxB23f8h+DotdSZzHqjKv4X2IjpSVKjsn7WiSM5oC7Opee5Jc1IlwCTWTiEuNx598CEcP3wUMoPnjJ8MnjN5mSg0oYHJdRqbRC9w8sQJ/PH7Jrz3zrt45ulleOett1FWUiqJhHy/WH3VwEnGkiVLEOxyC31IB5rgvvbKq15gYFvjr/NRwACGzvdOOn5EnoxvtDB54L774bY7NLm0x5nJfb2CXuYAPB0Vht8Sk/B1VBIy7WYEWgLhkGitCqJ6pCJr6r3iy5B+82Jkzl6IhKFTLwgM9HXQQGG0J/bPaND5jGaZCbn0MShCaEomTJHRuN7GXAKUw1OBaobZokIlg1fsUC1OmC1BMFuCYbG6YbM4ZUZOhkxZN80uNeZNhq+BgM7AqQAmkyUYEBzUAJPUFIUIEAiT1Zg799mf2+ZAsNOFiJBQMdeMj4qROiosAqHuILhsdrkf2/M+cm9FlTSrvJdd5b3+DTOBxeKEJVCBPfB62E0BMCsWsRYyU9fAuExUVqsOmFQ3TApBTlNUc3wyRkUV2X5UVBS6deuGHj16INStAzzFUVYEO9348N33UVlahroarg9aKoHJ1ClWPHjwID5a8REmTbwJCXFxCAkKxohhw7H68y9w9PARSSLkz9y5WqDOivXGjRtFnETzVT67zWJF0eDBXr2W/7Ud//EbIyAFDGAwvoOzKMAfK00QmfGNM8LJE2+SH7XMfsXr1YJ/OwPQ0/7/4tWIGGyISsMNNjv+5QiAk7N2kwJ3dHdk3HQXCAppjLI6ZyGSR8y8IDBIkhyxFhqjAUL+MCTmDEZCWj6iuqfAGZeE60KC8S8rmaUCWkypqhmKRRFgIPMRJqQwsxyz09mgyGqASliNsYuNvR840JxSBwYy8aS4eAzIzcfkCRNx1+3zsfTRx/D6y6/g809W4acf1mDLH39KusrD+w/g5JFjqD1VLTmNmb6SMpjG2jo01TWgua4BTbX1aDhdh5rjJ3Fw735hxr+t/wWfr1yFV178DxYtfBBTJk5ESp8eCAoKgao6BLicFD0pZgSodvx/1hD82xkFa3g8XPE94OyWAmf3NNgjE2HhqscHcAbdMFD8Curr6oRBnz59Gof3H0RSXAL4nHz+sP9Fgv3045XYvf1vnDx2XGbwuqiI9eHDh/Haa6+hX79+sNvsYkXVt3dvvPryKzh6+LCk6OT3IZ7MfpN+fj8sBAeuRNL69dcAy7OScTudkrJUvjMjo9tZv7/OcMAAhs7wFjrhGMgchFE0NePX9RtQNGiwd5brNjvw/7isuM7+Lwy6PgCvRvZFIUNB2Bk6gXJvE6zB0UifcDsy5iwW7+Os2QvRY/QchF3AwY3moOGF4xBRSC9lWv8MQUiP/gh0hsKk0MLFKsllKF+n6CjkeguCr7ciKMAGLX81ZfaamMY7S6UJqEozUG3G6rDZERkegcK8fMycPgNLFy/B++++i59/WoedO3aISaUwvCYGlOLySau9jFA/7q0paqFA3sMovcf16ymIZz+emkHlPEyVfgDcPl1dja1lxdj852Z8vGIlJoweq4mRFAUhsUnoP+Qm5E66CwUzFiBn9t3ImHMf8uY+gF43jIUziGahmgiLq4E+PXsJMOiMl7N/NDZh+ZNPCyg4LTZZBRLsqsrKcfzIUWHk/AzZtri4GBMmTABFUCyhoaGYM2s2KkrLvOM+Qx8Jn9riC9a/Hfl+/gcSBFanVfMCp5jLbrXhlVdekRUJ2xh/nY8CBjB0vnfSKUbkOwnULEy+RE5mlsxkw663i1XMdRYy4QBkWxxIdljgtpphIvM1BcBkcyNr4jykzWY2N+ZlWIje4+Yi7AIhMQQYCjRgiBs4BrG5Q6DGdse/rIxBFARVdcMqoZ2D4VBD4VDDYFPDYLXQBDQUCsVdIo9XEO52IzE6GiOHDME9d87HG6+8jJ/WrhVbfDJynTmfYXIeRq4zdgICCdFWRe/XU8v9PQBx+tQpVJYWo6y0DH9s+guLH35YfBxMZgURPfojd/J8ZM1+BBlzHkLK3IfRe+4jSLl5EfqPmY2gqG5QzZoYiWKv8NBQWekRGHQmTWDgaoXiLorKuHKYMHacAAOP6zN8in5yc3Nhs9kQHByMwYMHY/UXqyVXOMfb1OABQKFNs+bg5snM5r2X3xe86qOPERYULCsyAgNNakeMGCErCgEtv/bGbsdTwACGjn8HnXIELXihiJYa8NGHH6Jfn74IpcL3ehtcJhf+X6cdJksAnOb/Q1hAIAIYK8d8veReTh09C+mzHkLGnEXImvMA+k24DeHiYHZuc1XxPqY5a+EYJBfdhNTxs5E6Zhp6DxqPlEE3ImXkJPS7cToyJ9+C3BnzkTdzAbKnzUe/CXMQN2Q8XBExongdO2oUtvy+Eag7DTTUCwiQl1G8QSbIP9YXKm35cvzvpc+oWTMZz9bSElSUlKF0cylefvZZWTEEqhaE9kwTc1+K5NJuXoSUmx9FXwk3shg5U+9GSFKKiMw03Qh9I1Rs+Hm991nlecnQGxoxY8o0WflRF9G/dx9UFJdiz987ZaWwbds2TJ06FSkpKRIe5auvvhKnR1E+c2XjWd0IQNQ3yL6+ouI9yOT5LP5/+3btRnRYhNyXSnGWsLAwHDp0SK7xb2/sdzwFDGDo+HfQKUfAn7cXHMhAmSu6ukYsSnp1TxQbfPd1LvzL6oZJ5crh3wi9jjl/bXCYr4PZ4kD3QRORNvNBZMx5GNlzHkDqpDsQdgFgkFwL9DHIG4XwvFGIGTgRvcffhuwZC5E740FkzH5QZsypcx9B6tzHkHLzYvSf8whS5j6E/jcvRESPfuLkduO48Ti4dy8aa0+LiKehqZlWl8K4dAbmz6hb22/Ll9Na/zxGZnrq5ElUlZSisqQClcVlePeVVxAZ5JIoq8G9MpA27U6kziXIPoTM2Y8ibdZSpM9cgvwZCxHRNwcWG5Xrmr+AVbVgxQcfoqamxgt8wsAbm/DFyk9FkU6dRHR4JH5Z9zN2VG0TyyLdj0V3duT+8ePHRQF9YN9+7N+7F/v27AW3Dx04KMrnUydOgDoM0lR/Pn+aUe+S0qevjE+spcwK3G43Vq1a1SqQ+F9v7P/zFDCA4Z+neae/IwHBFxhoukgmQYU0Gdjyl5choU8y3OYgqKYguAKoV/g3ggIDJAGMw0RgsCExbwQyZjyA9DkPI+vmB5E+9S6ES/jtc68YGMk0MXek5FqOKhiHsMIJCBs4FQmj56HvlAeQNv0RZMxYjPTpS5A+bSkyZjyOrBlLkT3rMeTMegQxvbLEySwnJwf79uxGY0O9mF8SFBo9lCcD458+Y9cZWmt1W76s1vrnMQGGEyewtaQUFSXl2FZeiRVvvYUeCXEItDoQ3DsLadPvQurcB5A550Fkz3oEWTMfR86spcifvhBxWUNgd4VoZrMek9snlz4us32dYVOURHCgaSrNVAkMtKD64J13saNqqzB3joOF15w8eVIsih577DEUDSlCz+49xLooJipatm8oHIDZM2di2VNPY80PPwh48Bvh9f5/jXX1mD19htdiSjGZ4LDbcef8O40Vgz+xOsm+AQyd5EV0pWGQaTz77LPo2bMnbHQw89rua6EWzOp1CLRakJhWKKKOfgxLMXcRUqbfDYa10H0WLqb2jZUUVzgW8YMmIXHoLHQfeTN6j70N/SfMR9qkBRLNNWvafYjvPwAWWzCS4+Ow5+9tAnBnQIHeWi3/zsWs9eMtW7fc09vodcuzZ+/p7XxrtiIzPXniOLaW/oXysmKUlZXi4xXvIbVvL5gsNoT2SEf25LtEx5A+5zGkznlMy5A3YyEybroD0RnDYXeFayEwPJ7S8269FYcPHfYyal2ExnsPKCiERVHEMunJJUuxvbJKgEAfMS2JfvzxR4wcORJ9+vRBr1690Ld3H/Tv2w/pqWly/fix43Dr3FvwyMOL8J///Adr1qzBsWPHRHzF5/F9xtOnqvHs08vgtju9ZsC0/MrNzJJQ3L5tW9vWx2XU/xwFDGD452h91dyJM0qKGJ555hn06tlLbNMlbj/t/83MYnY9AiwKYvrmCDD0n7MIfW9+GGkz75XsbRcDCHob0Tnk6WEsRkkqz/DccWCJyBunhd0unIC4gZOQWDQNUb1zYXWEwm23YVtFqRgUiQhJqN8VgKFEgOGzlR8hPzsdZpVZ2tKQNeF2ZM14QBIgpcx4AH0m343kkXOQeMMEhPYdALsrrAUwDCsain1798pT64xarxfed7+Yn9L34o5b52FbRSWOHm1pmcT97du3o6qqClurtkpobZqp1p2u9bGw4irkzCpD79+fuZ84egzfff1fBDk0YKB+gxZjDM+9d9fuFiDify33jb9/ngIGMPzzNO/ydyQDYGGCH4ZYpkLaYbV5ZoMKrNYABCoKwpNTkTvlbqTOeQR9bn4YGbPvl9DbOtO/mNoLDLkjZbURlTsKkcyaxlzGPoURT3k8tEcmLM5QCT/x27of0djYpOkWhOqdGxiqSjejvKwU5WVl+PrzT1E0oEBCbgfF9UXvoqnoPWYukkfOQmzRVEQOnKBlbcsZgcj+N8AZFNECGCj6IWP3ZbR8ZwT1FR98IApql9WO8aPHoqq8AgcOHJC2JBOv0dvKu/Z4Pnutt8isRd5IKy7tW2A733v5bh85cBAlf21GclyCWCZRjEUHPybw+emHtee8Tu+jy/9guuADGMDQBV9aZxiyMIymJtRU1+DN19+QRCwOC+P9qLBZAiQTHAPP5Uy6S4CBK4bMOQsRXTjm8kRJntDbVEpLZjUqplspEX1zobg0YPh0xQeor6336kuASwOGi6GzzrxYX+jPt62+zWtIy5PHj6OqdIsGDKXl+O7L1Rg7bIjEPrKHJyE6vUhSjUbm0yOczn/MJjcS8bnDEZM2GK7gSA0YPDoGt9OFLVu2SN/sX78P77vlr80SNoMe13lZ2WKyunv3bmnL8/q79db+wMD+pLQEBr29/mx6X7t3/I2tZRUYNWy4jFG8s00Kwv+XhvWzT1aeFxguRFPjfPtQwACG9qHrNdUr4/N/8O576JGUrAGD+TphPI6wZORMvBOpsx9B37mLBBhiBlxZBjem2NSBobU6KrUASlA4LP8L//3i00+h7tRpr3VVa8DQkS+KjFRnnicEGEpQXlouZe03X2Py2JFCR2dEImLTh3gAVU8WxGxyw5GQOwJxmcMQFBp9ZsXmMQn979dfazGQPGa5+v0YyoLexwQGvrOyLcWyutAV1RwTt2nVtHfvXlRWVKBkS7EACuuqiooWoiX6ubA9C3UZvgBBfcW2iioBn4X33KuBl8SGUgUYPvlwRUe+AuPe56CAAQznIIxx+OIpQKenk0ePYWBBoVjGOMzXayaR7njkTrhTnNzaDhi0AHuMp9Raic4aCFNwOKwWBfffcTtOHz+liT3kcc5eMVz8U7Z9S51RsxZgKClFeWmFAMO6777BzInjxHrIFZYg+Zo10ZuefnQ4YvOGI575qXNHIzgiXmO6nhUDTVZffPFFVFdXe8FHB6H62lokJyZJ+4SYOGz4aR3ow0Amzja0LuL+hx9+iPvvvx+TJ03CyOHDQb3FyOEjJETKHfPm4fElS8Vj/LvvvpPVCcVRvJZ98I/PRV1UVVkFtpZX4KXnXxDLJC1AoRnhwaH4bOWqties0eMVU8AAhismodEBvYjra06jaOBg8Yx2ScpK5jOOagEMGTcvxJWuGBhLibkVzlXi8otgDo0QYJgydgyqDx/vMsBQWVLmAYYKbFjzPW6depPkiHaGxiE6dZDnmbli8OSkzhvhAcfxCIlK9M7GaQhAS7F77r5blMo6AJFhC+OvrcWAggIBnbioaHz52RcCBNQZ8Tz9EtatW4c777wTkyZNwo3jx0vSnTGjRmPUiJESRI8gMWxIEUYMG4bZs2aJIcLatWvFaY334x9XEHv27JHVAoP1ffTeB96YSRQn0Vx2LRP3GH+djgIGMHS6V9I1BsQ5oS5Vl6xeDY0YN3oMGNbZbg6UyKQBagiyx9+mpde8+RGkz3kAUVcoStKAgeDQeonPHwZrZJyIkgrSUnD8wCFxytDG23lWDGTAOsNmzRWDBgxlonz+9ae1uGPWTBHNOUNjEJ06wAMM9AEZiVjJPU09C3NMj0NITDctjLhZSwBkMZsxbvx4HDh4CE104BAnRc1RsaGuHjcxFpLHye3tN97E1spKHD92DGhuQnNTI5oaGiSFJ81oDx04IDmeGUdqW1UVKssp7ipFaTHFS39JKSnegpKSYhw+TG/mBnGIrK09je3btqGqtFzKyhUfeSLWmgUgosLCUbqluGt88NfYKA1guMZeeFs8rg4KOjDIDLG5GdOmTNFSOTKLmGrBdaoDGWNmSFiM/nMeE2CIGHBpyueLsVzybcM8y87oZNisFsSFBmP/7t3i20Xe2NSsu7idoYI+iz5Xfabl2Vv+15zdouUR//a+wHDyOB3cSlBRSnPVLfht/Trcdes8yezmCo1CVP/c8yrtgxN6wGp1SBY4ZyDTgprRLzUVe/YekEQ7tCjSY0PV19Zh3q23aaEpQkKxfNkyVJWV4vD+/Wg4XSOFHuONdbVoYqmvQ7Mw+wYIyjQxzlTDWcdA+rI0ae2OHTmEyvIyVJVo5c1XXzsTytysIDE+Acc8Afz8aeO735KKxt4/QQEDGP4JKl9l9/AHBv6IOSO97ZZbtKQskq9YRYDFidQRU5Ex62H8c8AwEu74XnDYHWDY6vItxQwRJF7PzV0IGH7/dT3um3+XAIMjOAKR/XLOCwyhyX1gszrhYHRbDzAEh4di+46dXmDQwaHmVDXuvfseAQbmV1j00EPYWl6Gndu2Yt+undi/excO7NmNg3v34NC+vTi0fx8OHdiPwwcP4MghhsI4hKNHDuHYkcM4fvQIThw7ipPHj+HUCZbjqDl1EtWnTmDX3ztQUVYqwLC1pAyPPPiQiLsksZFqQWF+PhoZc8kj4jpXfZX9fLrE4xjA0CVeU+caZKvA0NSM++65F2EhoSIXp506gaFf0U3I1IFh9gOIoJnlJeZ8vpT2sbkjEdotBVa7XYLQffPlV6itaxKT1cbGurMIeS5mpB8/6wKfA3obvfY51eqm3k6vz7di+HPjr3j4nvtgYcpPdxgi+mafl27h3fvDanNJSHIdGFSbFZs2/SnGWE31Dag5eQpHDx3Gnp27cB+BwawgxB2E22+5VVYMlWUMycFAfizFsnqpZGA/31JWoq0CKsqxlaWyAturKrFja5WUv7dtxc7t28C6qqIc7HNraRm2lpZj9PARXj0IQ58vuPMuT3DD8wczbJWYxsF2pYABDO1K3quz89aAgWKKRxctQmRYuBcYTBYXet8wHlmzHkbqnMVIm3k/ItsZGKJzRyO8d5bka2Ze5pdfeBE1pxu00BiNtZ3mhejgwJoAwbSZjJVUWVaC8vJibP7jdyx+4CFZMRAYwvtknhcYInulweoIgs1kFXGSTVVgVs1YtXIVThw8hkN792PXth1iHVReXIIH771flM/0Rp46cRIIABQnCRDowFBSIvs8pheChr5dWVoq1/A6/Vqe07fZVs6VlOLXn36W5EeSItWswOVw4ovPPte8qDvNWzEGolPAAAadEkZ90RQ4FzA8vngJoiIiJVEOvVvNVhe6549G1syHkDZnMVKm3yvpOi9lBXCpbWmtFNW/AKrdLeky711wD05V16FRlKqdR/msE1sHCEYp9QWGkr/+wBOPPOYFhrDe5weGqD6ZsLlCYTfZ4DRZQGBQVDMeX7IEW4s15S8tg1gIDIseeFAUwEzbOmrocJnZawzdAw6eVQKZP1cMrGVbgIFAUCZMXz+nX6sBh9aWqwUe52rh8UWPgZ7WTKnKb4P6hYP792t6D50YRt1pKGAAQ6d5FV1nIK0BA3UMTz3xBKIjI7WcxCYFJtWJpJwRyJqhAUO/yQsQlU9zyzPiJG+QPHo2t0GJzB+H6PRBsLhCRWwxbvQ4HDt+Cg00oWzuXMCggwJrRq31VT6XFW/G8sefEGDgs4T2yjg/3fplw+YOh81kh8NkgWoywWJRcMucOSjZ+IdXAUxFcPmWEjz20CIJT8F0p3mZWdrMXlYMFCcVo+SvP/H7Lxvw0w/f47+rv8CnH32EFe++i/fefAPvvvE63nvjDXz03rv48tNV+G3dOpRv3oxKgoanVHE14Snrvl+DzP6pmhiJVlOKRSKzepP+dJ1P/5oZqQEM18yrbrsHbR0YgGeeelpCM9tNTPGpSCrOhMyhGjDMfgy9J85HZDsDQ0TeeMRlDYUtKELiAfXt3ReHjhxHA202OxkwUISk6xmqmY+hmJ7PjK66BRUlW/DisuWwqw6ozhAE90xrCQx+IBqbkgd7cBQsJpsooC1mE1TVhPFjRqP4142oKi71lvLNxVi44B44GL7EpCAmLAIzp07B7OnTMHPqVEy9aSImjB2LMSOGY/iQwRhUWIDC7GzkpKUhKyUFmf37I6NfP9kfmJeH0UOHYuGCBfjuyy9RWVyMrQSEkhJsKyvDn7/+illTpiHE4fL6MDDK6tof1pwJq9F2n6bRUxtRwACGNiLktdwNZ7xcMTAUd0x0tJhKMqxzoMWBxPQBKJy2ANkzH0D3sbchpGAiEnLGIj53rNjgRxeMRWTBKEQVjEJ0/khPGQ1ZSeRfRp03FgnZw2ELjYOqWBHidIrJalNzA5q9GRnOvC3fWbv/9plWbbPl3z/3dWCoqT6FSlH4Uum7ReT4r7zwAoKdbthtToQm9/P4bjBWEssooVtkwUhEFoxATOZAWELiYDE54AxUYFcCYVYCUHhDIX7fuEkyta1f+xOeX7Yc0ydNRj9GxSUweMJTOK1WMBQ2U34yNapN0QLd8bzVbIbdxJStZnCFER0ahrQ+fTF84GDMmTYDjz7wIN59/Q38tu5nVBZryubK4hL89etGMbmNCgmDXfwrtLzUI4uG4eSx42KRJIH52oa8Ri9tSAEDGNqQmNdqVzrDY1z+uDjNuUz5X6wik9WJ4PieSCm6EYXT70JS0TSE5k1AbC4DwI2RYHDhBaNFIR3tiYEUx8B4PqKmS97OG4PEnBFwMQ+yaofNZMLv69eBFklNlwgMfK62/NPp5FvrwHC6phqVZcWeoiltX3/5ZUSHR8BhsSI8sQ9ixONbd+wbjWiCacFIKbHZRVBDE2ExuzRgMAdCtQQiLjEBc2+dh2mTpmBgfiF6JncD9QqU82tFy/pG8Y43A5wnfDpDVxAYQpxuZPRNweyp0/Hko4vx9iuvY9WHH+Hb1V9h/ZofsXnjJlRuKUFVcZmsSio2F+OzFZ9g+k2TER0aDjtNaKlbCDQj1BWEn75fg4baOskfLb4VbUlko682oYABDG1Cxmu7E525vf3220hISBAzSNWswmJxINDqhiU0HhG9MhGTNhDxOcMQUThCSnjhSIQXjJQZcCxn+jnjtJXElQBDPvsZgZCEPlAtTHdpxgdvvYmG+lpoRqst35Uvk25tu2XrK9trrX+ddgSGqrJiT9GUve+88Qa6JySJU1hoXG/E5o1HbN44TxnrCYcxGrH5oxGfWwRrRBJUxQkHVwwEBiVAEilFhEZIkhz6DzAUhaYAViWuFc2KuUoICwpGREiYFIp6CBoEBVotDSocgBeXP4c1336HLZv+EA9tRktloTK75M+/sO6HNfjkgxV4eunjmD5pCjL6pyLY4dJWJQQY+laYFFF611bXiGe15I72hM+4MsoaV7c1BQxgaGuKXoP96czt66+/Ro8ePWA1UURhhdVsharYYVLsUO0hsLojEByViJC0XMQWFCEqrwhR+cPB1QKtiWLyxmvlSoChYBzickcionsaVKtLRCIP3X8famuqNT2D3/tpjVn7HvNrfkW7vv3q2zrtTtfUYGt5iadoVj8fvf8+0vr1FwYdHNcL0fnjtZI3DjF5jFLLQIIMKjgaCflDUFLS+gAAIABJREFU4IhOhEVxwE5gMAXCZlFgVRQ4zLRSsojOpUdyN0yZNBmLH3kU77z5Fr7+8kus+/FHbFj3M375eT3Wr1uH555ZjojQMLnGZrGK3ii9f6oESRw9bAQmjhuPSTdOwISx4zCiaCgKcvKQlZaOfr16IykuAaHuIAEzEVN5RFUEmtnTZ2L/3n2yUmhkFFZPRNYrIqpxcbtQwACGdiHrtdUpmRwZXEVFBdLT0zVgMFlgN1lhV6ywkTGJrFqFXbVCcYfDHdsNcSk5SMgZgpi84YgoHIXQAWMQylwD1C3knbFcuhRxUmQeZ9KjENMvB6qNDErBuFGjUFtTg4ams0VDOoM+V32hN+l73aW09b2O27Wna7C1gn4Mxags5cqhFJ+vXIkBeflixeOK6YYI5mIopAhO18eMQGzBSMQVjERi3g0Iik2E1WIXYOBKicBAJXSY3SURUT/6cAU2//kX/t6+HQy9fVpm7lTKexLvkDxNzdizaxfuvmsB7FYbrKoq2d4oZqJIiyan1EVQHMWVBVcbmghKy96nv2euRLhC4DkCxX0L7saOrdsEFHg//fmbcGZbP3a++kI0Ns63DQUMYGgbOl7zvRAYGJVzxowZCHK44VRsUK83ieWL3UzRBrdZAuE0OWBTnLDbQxEW3xNx6QWIzi9CSOFQhA0YIZnaaLoa5bG8uRRgCJOVx2gkpA2QTG6Uk3dPTNKY4Nl56r0M6lzM6Hwv1v+a87XlOf/2vvsMOLetkn4GmkUSfQa++fJLcIZO8Y8rKh6R2YMQm1eEuNzBiMsZiKj0fIT2yYCrez/YY+OhOFywmixilURAtKhmqIoJN0+dhq1VVZJfgfkSGPX0fH9ss3nzZtx6yy2IioyEymit1Elw1eFZeWgRXAk8WuGKhAYHsq+ocDucyMnMwoL5d+Lb/36DQ/sPgN7X/E6EFp4gjGLh5gMUvjQ51/b5xm6caxsKGMDQNnS8pnvRf8BkOMwaNnzIMDg92dysJhNsihk2hXWgVkQGboFDscNqccHmjkRYcl/EZeYjLm+wrBgICpG5tFK6tJVDWP44SfmZlDUYVjFZtcpY9u7ay8ChZ/3pYz9XfdYFPgf8r/E51eqmf3vf/bra09ixtUJWDJpVUinWfvcdpt40SdJg2l3BCIrvBndMEuyh0bAyGZEzGKrNBcXihMlmg2qxaGKkALMw8ACzCWZzIJYsWiSgwPdzIVDgwDmu2tpa7N+/HyUlJVj/8894/9338MTSpRLGYtb0Gbhx3HjJzTBi2HCMHTVaAijeNf9OLHvyKXy6cqVEXN25428cPngQp6urvYpmgo7cwwCGVr+RznLQAIbO8ia68Dg4C9QLVw1kCE8sWaolg7FYYVXJqFgCYVVNUC0KVMWsyaEDLXCYKbJwwukOR3hSH4RlDRPLJG3FcGnAEF54I5j/uXvuUNhDomFRtVzUP3z7gxZ+2o/Ovsy5tW2/5i12/du3ONnKjn973/262lrs3FapAUPJFvEs/mXdOtw6Z66I4aizsVFMpNrhVBkg0ApXoAp3oIKgALM2o1dUOAMUsUpSzGYodiscbgfWrvnem0BHf0+tDM97iOMigDDpDgv1AbU1p8EIsMeOHBEx1OGDh3Bw/wEJyX3owEFw/9jhI5KitO50rQcIGGlVi+qqK5p5f1klUGrlKb50uJht70CNjXajgAEM7Ubaa7dj/viZ9GXnzp147bXXMHjwYFgsFiiKIrmgKX+myEENNGtWKx7zSFrL2LjSCApFZFJPJKfmITm7CPG59Ioeh6j8iYiiAjZvpFZyRyCGyWrymeZyBOKoyC4chYi8YYjNGwJnbA9Y1SA4zXYsf2Y5ajqZg5vvF1JfVyfRTbWwE8USyG7Tb7/i7vnzYTGZYGUoc4WWQpTbm2EJDIQaGCDHuSoTmb7HBJU5MZioJykpCbQUO3nypKwCfO9nbBsUOB8FDGA4H3WMc5dFAQIDZ5ysuYIgY6LMesGCBYgIDxdzSTIyys5Ze61XqKBWVJgtKgJUK1R3OILieyMmpRAJOUx8z6Q0YxGVPwaR9IOgXX+Bts9jcjx/NCIKNJAITuwLiyUY9kAbZkydhpqms6OrXtYDtsNFBIZdO7b7xB8qwZY//wAtqiiKo5MZwYHKZIKDXaUfAgEhEA4LFb+aXwLBtTAvH++98w727dsnIiG+B+PPoMClUMAAhkuhltH2oihARqSLIyhT1osut37s4UcQGxkt1ja+oCAWLYoqyk7VYoVisSPQ4kSgPQSOiARE90xDfMYgxOaOQlyB5jkdlTcWkfk3SokomAjGSmIEV1rrhPfMgKqGwBZoQ/++fVDX3Hmiq/oTsqG+Hnt3/u2JXKoFsisv3oKljz4qjJ+JdwgEMZEREqbi4YX3g34ODGERGRriWU0wQJ2Kl158ESeOHRNg1gHa/37GvkGB81HAAIbzUcc4d1kU0FcMvNhfZsxzTBt5YN9+PLroEURHRonYg6KPM8UsqTllX1WhqhRDacXsDIUtqhsiemUgMWMQknKGIyGXq4nRiMsdgzgG0csbjbi8YWKyarOFwkK5u9WCI8cPXdbz/BMXERiYJEePTqpHLV32xOMCDN0SEvD044+jvJjmrFreBEYvfW7Z0+iemKitvOhUGGjG6s8+B7O06QDN2vgzKHApFDCA4VKoZbRtGwrQn4DMqrEJu/7eiQcXPoC4mBjQmYoOWZoVE0VMjPmjmbraFRNYOHNWKG4yW6BYnbAHR0i+45geaUjql4Ok9MFIyi5CUs5gdE/Lh8MRAtv1ChyqijU/dd7E81TwMluansOAeQ0IDs8+/RSCHHb0TE7GC8uf8eZCYDuCxPtvv4X0/v09egjNs/mrL1aDeZ2NP4MCl0sBAxgul3LGdZdNAX0mSzEHVxQUMW3duhUPPPAAkpOS4bY5xBGOtvia0tUsOR7sZjOcZpOk7HSYAjXfCOop/ic+UQIVqGYrFGsIVFc4rOFRcIZHwapY4TRTl2HCE08/cdljbu8LSYvD+/dpjN+TMIfg8OKzyxEeHIRe3ZJlWwCjhKsGLWwGw2IPLMgXHQRFcdTZrPr4E9TXdl6xWXvT0uj/yilgAMOV09Do4TIooIuYCBLUQbCmaeT2bdux5LGl6N83BSHuENitDlgUWtlohWabdnpSM+yGp3CfQdoYwdPpiRhKBbZZZURQBS6J+2PGuAnjLmOk/8wlDA9x9OBBL8PXEt+U4JUXX0BsZAR6JCXh+WfOrBi4WuCqoXTzXxg/epR4JetJcF57+RXUnDr1zwzcuMtVSQEDGK7K19o1HkoHB11Byv2mxiY01jdh354DePWVNzB40FDExCTCTYcuq0uCxFkUp8QEspjtUExWWEwMu0EbfxuCZFURAIsSKIXe1s5As6wY4hPivA5evFdn+mtqasTxw4cEGAgKzJDGVcFrL72ExNgY9EhKxHPLlnlFTTpwsM2d825DZGioN2Lqww88KL4Gnen5jLF0LQoYwNC13tc5R6szWb32b6gf1+srPa/30941TV1//PFH3HPPPcjNzUVSYiIiw8PhZOhoVVNY08RV31ZVVfwlWDN8AxXYjNejl23bton4Sl+ltPf4L7r/piZUHz8m2dP0tJlk/m+88jKoeGZZ/tSTLVYUGjiUih6iR1KyJx6VInGR9u7e41U+6yK7ix7LJYao+Kf79f92jf22p4ABDG1P0w7p0f/H6T+Itj7v31977VPERMbGcujQIXz/3XdYungJbhw3DlkZGejdsyeSEhKQEBsnFk5RUVFgiYmJQWhwiACDpqvQ7Pzfe+896au9xnvZ/TY1oebECS/j13QIJXjrtVdFv5AQE4Onli45c96zqiA4rFyxAun9UzwRTS1I6dcfWyur0NykBTc0gMH/12DsX4gCBjBciEJd5Lw/Q/Ifdluf9++vvfZ9gUEAoqFRwi0wXzDDMPy56Q98+cVqvPXGG3ju2Wfx9NNPY9myZXjppZcwZ9ZsuJ0uMJAeI32y3H777TKTZr/tNebL67cJtadOYWu5JkIiMFCH8O6bb6Bfr56IiQjH4kWLvMDAc2xTXlKM39avx5AbbhBg4DNyNfXrhg1aOAuPgv/yxnRpkU//qXv4f9vGfttTwACGtqdph/To/6P0H0Rbn/fvrz33ycR9y/nuxXYS36exERt//Q0xUVECCLTWYcnIyPAquzsTODAUdV11NbZXMvmNBgpk/jRHTe3bFxGhIVj0wEIPMGgZ3io81klsN2XiRAmHrQaYZJX0xmuv4dTJU15x0vlo1pXO+X/Xxn77UMAAhvahq9FrB1GATE5n+Mw3QHETc0AQFChScrlc2LNnj1ec1EHDPPu2zc2or6nG31u3igOb6A/KSvHhu+8gI6U/QlxO3H/33RowiDmr5h2ti5zuW7AAMeGR2qpBtWDerbfi4MGD3lXR2Tc0jhgUODcFDGA4N22MM52QAnpkznPWHsUpwYGz8AV33gmXjTmOtcT3DOa3atUqYZjSptM8YzMaTtdg1/btZ4ChtBQfffA+cjLS4bJZseCO20U5ra8odFBg/fwzyyXvBJ+TSvfc7GwJYti5nrHTENsYyAUoYADDBQhknO5cFDgnIHji+3O0umiE3tVffv6F5DPWch0zvIaKu+++W9rQMqnz/DWjsfY09u7cKYH0GO6CDH/VRytQmJsjQfPmzZ3bMiSGOLlpuoaP3v8AKX36aisGRUVYSKgELtQVz53nOY2RdAUKGMDQFd6SMUYvBS4EDDzPP4IDcwEwV0C3hCQ4dHGSqiI7KwuMTdQsqwrPBR1dMQdCXS3279kNgoJmilqCzz7+2OPZbMLNM2dgyx+bvHoG3xXDD998i6y0DM2XwRN36rNPP5XotrporaMf0bh/16GAAQxd512dd6T6LFmvz9u4lZP6dXrt30Q/3lp9KW1bu769jhEYaL00Yex4OK12LdCcoiIiJAw7t+3Q4jUxkUwnsdtvrK/DoQP7vMDAWElfrFyJoTfcIDkYZkyZjI0b1nuAoaWO4fdffkVBTq48o55e88knn8SJEye8+pTO8pxXOg7/783Yb3sKGMDQ9jTtkB79f2yXOogLXe9/3nff/16+5zpym8BAcdLrL78qyeupfKajW5DdiQ/ffV9WFJJhrJMAQ3NjPY4dOSzB8ySCamkJvv78c4wqKhJgmHTjeKz/cW2rK4bSzVtwQ36hOLmpzMOsqJh32204cuSIAQz+H6ixf0EKGMBwQRJ1jQb+DPhSR32h6/3P++7738v3XEdua8DQjG0VlQgPZs4CTQHN1cPcWbM7HTAw9+ipE8fFN0EXE3331Ve4cdQoAYZxo0Zi7XfftgoMBJIhNwyUZxRvb9WCyZMnG8Dg/3Ea+xdFAQMYLopMRqMuSQEqHBh7qbYOuZlZkjGO4EBFdGrffqg+eUrLSexZMXToM1In0tyE09UnUVl+Rsew5ptvMOXGGwUYRg4twn9XrxZgoA5C00NQpFSKjRt+wYDcfC0shidEyORJk3D48GGv+W6HPp9x8y5FAQMYutTrMgZ7SRTwAENzfSMefehhSSlKnwZGIY0MDcfvv20Uk1auajrFX3MTak9XY8fWKmwtLxfG//OaNZg9dSpsZhMGDxiA1Z+ukuOMrvrLz+vw0fvvS5a3GVOmIj46RkuXynzaZgW33HKLrBgMk9VO8Xa71CAMYOhSr8sY7CVRwAcYOKMmKNgVi+gZQlxuLHvqKU2c5Om0YwGCK4ZG1NfWYM/Ov4X5c0Wwcf16zJszB5bAQPTsloy5s2bi3gV3Ye7sWbhxzGjkZ2chNjJSwm7z2ahHISgoJrOEBamurpYVwyXRzWh8zVPAAIZr/hO4iglAYKACuqERNSdOoldyd41xBprFSmnEsOForG/QTFt1E9cOIwcV5Q2orzuNA5LJTUvGs/n333HPHXfAajLBZbMhPCQYYUFuSVWqJzFi7Q0UaFJAq6T0lFT88ccfEh7EWDF02Evtsjc2gKHLvjpj4BdDAYkw2tgoAHHLzXOhMmYSldCqBcmJSdi+dRuYJIftxK/hYjptlzYEhkbQZPXIoYMSQI8xkMo2b8ajDzwgKU6Z6tQLAAotj84UVbZVWS2kpaZixYcf4tTJk4Z+oV3e1dXfqQEMV/87vqafkLNl3fv366+/Fsapm3Myr8P7776LZgJDY5OUjiOWJkpqbmzAiWNHRaEslkklJXh6yRIEO5xeqyrJP0EnNlXz5JbcE1YrevbsKdFjv/nmG/Ff0C3COu6ZjDt3VQoYwNBV35wx7ouiAJkjwYHhL44dO4aYyCgtR4OiIsjlwszpMwQQ6AgnYqeL6rU9GmnAwFVDzckT2FahKZ+rSkvx4jPPIC4yqgUwuBxOdO/WHUVFRZg/fz5ef/11rF27VuIjMYe2/twcacfqTtqDVkaf7U0BAxjam8JG/x1KAYICGSNXDdyeNmWqZHtjoDkWJrXZv3eftlroaOuk5iYRJ9XWnMKOqiqvB/Rbr7yCvt17tACGO+bdjl82bEBpaSl2794NKpn1Z9Sfmc+tlw59CcbNuxwFDGDocq/MGPCVUGDVJytFnERQoOVObHQMVn/+uawWKE7yZapXcp9zXaszatb80/cZCZZipOqTJ7B3NwPplYkH9FZmaPvgAxRm57QAhheee07TjXhAT+/vXPc1jhsUuBQKGMBwKdQy2nZ5CjDrW0xUtIADldAhQcHg7JuiJCkenYQOEG35wF4Q8ACCfg/W1adOYd+eXaiiCKm8TDK5iQNbSQm++eILjB42vAUwLF/2DOpq67yrIQMY2vJNGX0ZwGB8A9cUBZoaGrziJFr12CwWZKanY//evWK6SibtW9qSOGTevmBAvQeD3DFxUFVVJSrLy1BRVopyyeBWLLkXKoqLsWHtWsyeNr0FMCx5bDFOnjgpwKD32ZZjNfq6tilgAMO1/f6vuaenuOjLL74QU09aJ7EwL3RGWhpuveUWrFixAtu2bRP7/7aehesMvK6uTkJV7NixA5WVlSgvL0d5WRnKS4sFFAgMergLpu8kMMyaOq0FMNx91wLs37dP3l9bj/Oa+yiMBz6LAgYwnEUS48DVTAGuGI4dOYrE+ASN0ZpV2M0qHIoFIQ4XIsPCkRgbj7ysHMyfdzvefO11bNzwK44eOqxZL3mU2aSRvrIgYxbmLNFctTwQjNEkVk6sGa+prh7HjxzF3p27sL2yClXlzO1chsrSclSUlqGipBRVpWXYWlqOTb/8io/f+wCL7l+IUUXD0D0+0Wuuqns3T5syBRUVFcaK4Wr+WDvw2Qxg6EDiG7fuAAo0NeN0dTXuuWuBNzwGgUEvepA9h8WKIIcT4UEhiAwNkzhE2RmZmDp5Ch5+8CG8+fob+O6bb1G8ebOIoWprTqO5vgFoIBA0g/GZak9W49ihw9i3aw+2V1ShqoxgUI7y4hL89fsmrPn2O6x49308+9Qy3HvnAkwcMw7ZqemIj4hGRFAIQuxOOFUrHBwfQ3koKpSAQCiBJtBZb/u2bQJOup9GB1DTuOVVSgEDGK7SF2s8VusU4My+sb5eAujZLAyop0rsJAKDzaRADTB5AcNqoqexFo1V2ikqnFab5HNgHmm33SFpQxnSOyIkFAkxsejTo6dkUivIyUNhbh7ys3OQl5WNrLR0pPTph+4JSYgOi4Db7gTjNbGPYIcLLqtdCgP8EZSYN4KFns6MBqvnrOZ+Ylw8PnjvPclCp69aWn9a46hBgcujgAEMl0c346ouSgECA5np0aNHMXDADaAXsc70WWtMWAs9YWHcIYbQ8BQCBcGDRcRPBA39WKBZAxjVcgZYhLFr/euMnX3pYEQmr9+b5/X7qIFnYh/poiOeZ/uYiEgse/IpHDtyBE0e81pdd9FFX4kx7E5IAQMYOuFLuZwh6XJuoz7j1NUaLRqbNasjKoA3bNiAObNmISoiAk6LzTtT15iwNmPnDF5j3lpUVgKB3XRG9OQFBh73AIvO7MnotVWHBjQ8TuauAwC3mYuaYMRz0t58BpS0tto+ASInIxOffLgC1SdOavoLHwe21p71aj12Ob8P45pLo4ABDJdGr07b+mplAm39XASGhqYm1DXUi6cwTUZrTp3CurU/Ysmjj2HMiFFIiosXMU+w0w23zaExbw9A6MxaZ/raqoLMW18Z6IzdfCbgnQcMuBLQmb+Ah2cVQPAQ8ZHFAofNJoWWUkEuN6IjozCsaCjefettHNy7TyLFUpFNJbo4xV2D4NBpf4RX0cAMYLhKXmZbM9Crtb/6pkbUNzZIodJWwkg0NKKhrh7NjJfU0Ij66tOSDvTzlavwzJNP487bbsfYkaORkZqGpIREYdYRYeGICAtDWEgoQoNDpFDXwBIWxBIs2xHBoaJ/YB0eHCqKbCYJig6PQGxEFJLjE5DRPxXDBhdh2uQpuGfB3Vi+bBlWfPAhft3wCw4dOCiOdxxbc12DFA0YGg1guEp+u53xMQxg6Ixv5TLGdLUy8rZ+rtrGBjShGQ1NjVK88nnJ3eAxMRWzU08uh8ZmMTclYND8tL6+XvQTf//9NzZv3oz169fju+++w+rVq8FwGytXfIxPVnyETz7UymefrMLXq7/E9//9Fj//+BP+/H0TtlVUYf/uPZIjoomWTB6TVjT53p/bnoivHI+0Yd2sARjbGquFy/ilGJdcDAUMYLgYKhltDAoYFDAocA1RwACGa+hlG49qUMCggEGBi6GAAQwXQ6Uu0OZCIhf/R7hQ+0s579+3//6l9NVaW9/+Wjvflsd878Xttuz7n+zrn3wO/3v577f1c/v3b+y3PQUMYGh7mnZIjxf68fkP6kLtL+W8f9/++5fSl39b/76479+mLff979eWff+Tff2Tz+F/L//9tnxu/76N/fahgAEM7UNXo1eDAgYFDAp0WQoYwNBlX50xcIMCBgUMCrQPBQxgaB+6Gr0aFDAoYFCgy1LAAIYu++qubOA027+ScmV376RXM92mFA9xfIcpp84dbsO36eVu67J4Xq9v+9aX269xnUGBS6WAAQyXSrFO2t6XgXD7Qn++oNBEXy40tyjnPe/nWOV/L/+xdKV9bx4FPbcCaenZbvZkd+Pz6FFNfesrfU7fvlrbvtL+r5br/b83Y7/tKWAAQ9vTtEN69P/RX2gQ52X8aG6xmjgLOK5WYGhqlmQ83gQ7Aghaoh3xQuZ5z7P7M279+JXU7JPXs2YMJ2/IDs/xK+n7arr2Qt+2cf7KKWAAw5XTsFP04P/Dv9CgfIGB201kSJ5CWDjv+asWGJpQX1sr8Ym2b92GyvJylGwpxp+bNuGX9Rvw49q1+O7bb/Hl6tX4dNUqrPnhBxw6eAhcSTT7gIb/u7jofa5IGptw4vhxbPr9d7nP1199hZLiYtRU13hB6aL783tPV8t1F/q2jfNXTgEDGK6chp2mB98ffmuD8j1/Odv6LNn/2va4l/89/qn9/Xv34cXnn8fM6TMwdfJkTBh/I0aPHIWiwUMwoKAQOVnZSEtJQe+evTBx/I0CGvoK40rH2NTQiL27d+O55csxZtQopKemISMtHTdNmIB33n4b+/fv94qwrvReXfX61r4141jbU8AAhranaafs0VcswW2Z4XKWe1GFM2LOZhvR2NAg253yIa90UM3Anp278MjDi5CbnY2YqGhYVVWKhQl9mEmNORU8JTcrGxvW/ezVQcgy63LH0NyMIwcPYfnTyyRDm4V5GSR/g3a/vn364I033sCpU6cEHMjYjT+DAu1FAQMY2ouynaxfHRh27tyJJUuW4PElSy+hLMHSxYuxdPESiSB66ODBTvZ0bTScZuB0dQ3KS8vw/bff4flnn0NBXj5U5lPwAIOehId1XmY2fmlDYCj+8y+k9esPJgfy5m1gzgZmklNUTJgwAaWlpQYwtNHrNro5NwUMYDg3ba6qMxQDERz++OMPREVFISQo+OKLO0iSxoQEBWHOrNmoqqy8qmjjfRiapDY2avkPGptw/OgxvPj8C4iKiBTG7J8GtC2BgSuyn9f+CIfFJqCg53tmYiBJ+2lWkJeXhx9++EF0Dd4xGxsGBdqBAgYwtANRO2OXukz5yJEj+OCDD/DEE09g4oQJiI6K8syItcxjGiNSQFEGi9NmR1pKKm6fNw/Lly/Hmh/W4Pjx4+36iPpYW6sv5sa+112ovW9bbmt+DKwJEk2S2a0gN0+jh56qkzN4swIRJf28XruGFkxX8EeR3m/rN0iSH292N9OZd8JVy6BBg/Dzzz8bK4YroLNx6cVRwACGi6PTVdWKDPDYsWMoKSnByy+/jMjwCG1G7EleL+DAJPeKij49e+GF557Hrr934uTJk5KoRhhoO1LEn1n77l/otr5tL2ac523fDEmsM2rYCJm1i0iHoOABBiqiN6xf77UWutDYznu+uRk7qrZh0vgJPjmgtXvxfTDN54IFC7Bv3z5Z+V3Ms533fsZJgwLnoYABDOchztV8ipnIKF7atnUrCvMLRNGpy88lf7Enh/GQgYOw8dffREmti6Pamyn5M2vf/Qu9E9+2FzPO87ZvbhZgGD2cwHBm9s5trhjaGhhqT1Xjpx/WYOzIUQhyOAWY+U4iQkIxa8ZM/P777wLM9HHguzD+DAq0FwUMYGgvynbyfslYWPbs2SOmkVbVAruiFV2UwZpMkbb8FHVc68BAub9eqG+g5VJbrhiY5rP65CmUbN6Cd99+B4sefAiPLXpE8j9XVlTg9OnTXqe3iwG9Tv4JGsPrxBQwgKETv5z2HBoZCxn93r17MWbUaD9RksYAuXIYPWIkykpKtcBKnhg+FxqX3rfvbFy/xveYvq2f02uOSz/nX/uf0/dZ60WfUftfq++znZjsnscBTHQNTc34a9MfGDN8pKwY9BUV69aAQe+XtX6vS6n13M/UbdScqsbB/Qdw+OBBsZSij4NuWXYx/fu38acJaX2xY9Pfy7lq9uN7P71vvdbv47vP9vrz6NfrfZzrPsbxf44CBjD8c7TuVHfSf4zoMw9LAAAfmUlEQVR79xAYRoloxFdcIszPrAgwlJeWXtLY9R+8L/PVO+CP35cB6EzDv/Zt539O39fb8D6+2/q+bzt9LHo71voxvZ1/Tcc1AYYRGjAQKHUaeZXPPjoG9sk+/O+v9+t7b32bIj39GoKReFF7lODSn+4/Qh8Sv6L3Ie08IKdv+57jti8w+I5Pb8dj/NPH4tuex873p9+T7fTr9GN6rffB8/r9ue1f2N7463gKGMDQ8e/gskfAH9vFFv+b8Dr+CC8GGLQVw7nv5d+3/sP3HRvFINXV1aitrfUyHzJFtvVtp4+Lx32ZCI/zTz/Psev30bf1fdb69uHDh1FRUYHy8nIcOHBAnpnndIbsf2/f/QsBg7+OQR+bPm7fvlrb5rhZeE4fs95OP67v87zer36dzlT1a/Vr9PP+NenHtr7HSYdDhw4JjaqqqoRG+n3YlvfX6a6Pxb/27Y/X6vu8vqamRpzyeB/9uD5u7tfV1XnBQX8O//5992Uwxr92p4ABDO1O4va5ge+P5WK2/UfBa/jDbA9gYL+7du3C22+/jblz56KgoAD9+/dHz549pc7Pz8fMmTPF/JWWUTrD8K3JJMiwaJ75xRdfYMWKFXj99dfx3HPP4fHHH8fChQtx++23Y9asWZg6dSo2btwoDIZ9MHQE244cORJ9+vRB9+7dpfTq1QsDBw6U+x48eFDuez7anQ0MtBIyS1FN5rOUzxxzcXExnnzySTz00EPnLYsWLcJnn30mjPHPP//El19+iU8++URo9sILL+Cpp54C29x9991CQz7j0qVLQebtSyeCHWnEvmiG/Morr+DZZ5/F4sWLhUa33XYbpk+fjokTJwo48jsgYyaNXnrpJQwdOhS9e/eWd0M69e3bFyNGjBBrNYoZzwXevnTjePjsbLtp0yYsW7ZM7pednY1+/frJO+D7Hzx4MO644w4ZJx0tN2/ejNzcXNx7771ewGI/vn23tu3/LRv7bU8BAxjanqZdokf+4PiD1oBhtGaV5Ktc9YhNxvwvTpCvjuGsh2NU6oZGUHFKGfmOqq1YeO99SOnTF1HhEQhyueByOpGdlYX09HSoqipOXMFONyJCwtCnR0/Mv+12bKuoRHN9o/RBJzPK2dd8/4Mw35joaMRERSEyIgKRYeEIDwlFGB30XG6wnyCnC199/gWa6urxzddfY+CAG8QpzWm1SRgLh2qFNdAsynU6kEWFRWBg4QBUlJVpoT58Zu4tnq8ZLURJuuJZnM8UVca2/uefvYysoakRq7/8UsAvODgYocHaGEPdwQgPCkFYWBh4PCgoCJGRkcL0yaDJuOPi4sSnJCoyEpHh4YgIDUNYcAhC3UEIcbrhdjgF6AiAvszy448/Fse3uNhYeWaaHvPa8OAQoVGo041gh0usnNat/VFoTEe6zLR0RIaGwWV3iPmtFn5DEXrRdyUmIhLTJk9ByV+b0cz366GRb00mLqW+QRTm8+beih7J3RAVFi7+LwwhwhIfqz2bw2ZHsNsNPmNSQiKyMjLBY2PGjJFnYt98NuOv4ylgAEPHv4MOGUGrwMCwD56iy9O9wHCeURIYyDxWrfgYeVnZwszsHiun5MQkYfCc/VOss2rVKrjtDrHuUQNMcFis0r4wNw8/r/kRaGjyeh8zwukLzz2HYUVDEewO0pzMzJp/hT5O1mqgGZ+vXIU3X30Nqf36w261itOemN3yeQIVOBULbIHabJ9A4bLZMWTQYPFu1mlBxtTizx8YfOnTCjDUNzTgZE01tmzZgtdfew39+vSVZ6VewmZSoJjNCA0NxezZs7Fy5UoR29BZ8MMPP8TUKVOQEBcPxWSCajZLWAx5RrMKO0FaUWV2/9tvv3mZKJlyWVmZrIAY4M/tdMJmsZ4Jp6Fo1/J69vXTD2ux4r33helzn7S3BJq9llZ8Z1wRMSQHzwc5XJgzYxYO7jsTvM8fGLj//TffYmB+Idx2JwjG9PdwWu24c97t2LLpTwkMeGDffvz1x5+46475cNrt8pw2i0WAgas4vV8DGFp8gR22YwBDh5G+Y2+sM8MWKwZfxue/YjjfcJua8M4bb6Ffr95exkDmYFet+GzlKtTWaGaWFGFQz3DHrbd5AEhjQGRIZCj52Tko/nMzGusbZBXCuu50LQ7u348nH39cZsRkkMIwPTWZLq8fVDgA3ROS4HK6MHzoUCy87z7cecd89O7eU5gdmSML72O+PlBmyQx18Z8XXhSmpIswWjzmJQKDztz4nHzmW26ei2CXWxTWnMFTNETxDGlAsQvb8b7Uv5w4cQKb//xTLMRoOux9xnMAg8zUPeIb9sf4Vffdc6+sMkgP/Xr9uUmniePGI9jpgstqx+hhI/DQ/Qsx/7Z56N29hyYeCzTJO9MV7GqgSc69+frr3lWK/oy8P7cpDhoxdJjQVb8nwYaOeru270BTXYO8T82TvFEsrL79739lBUgAJEhQnMTvUS8t3oGx0yEUMIChQ8je8TdtS2D4ae2PyEpLFwYowd/EO9gsQeYOM19BY5OXEZIZrv/xJ2nLGSuZD2f8ZCoUm8ydNRsNtXWeiKVakhyuSIo3b5bw075MT2NEFumLPhhFAwfhpx9/Eg9tKrkb6urBMNqFOXnCuHgvMj2Kk3it3WrD0CFFwpx1erR4M5cDDJ5YS99/+y0S4xMkMuuN48aDll1UtJKZ6iCkM1dhto1NaKirk+B9bqdLxinPdw5g0Bm0zkwZ+bayvEJ8K2Sl5FkleIGBJraqBfm5uTJzrz9di8b6egFeXkdg5UqB9JFVBOmjWGRVMXfOzUJTnUa8N7c5/ocffhhhISFCT221oQq4PLX0cRw/fASgeJA+MA0N3ii0fM41338vq0DFZBY9BPsy/joPBQxg6Dzv4opGojMIvb5QZ/qP/FzK55aipBKJB6T3rV/LH/OxI0cxeeJNWkhqzt7pJEcxkmrBg/fej+oTJ4Uh6NeSqRw9eEjEF2RCIq/38SrOSEkFgYaMhLoGZk4jY6E9P1cANBPVZ7Rarcrsf9yo0agqK0dTs8a09Pvx2s9WfaqJrySM9ZnrGX+oe3I3Eenoz6Rfx/ps5XNLc9WcrCysW7dOmL3M/mmR09CA7775Fj27dxf9ynPLnxUakFa+fbe2TXPVP37fhF7de2ghOPisDE3iiZlERbEuSvK/ntcSQIcOHiJiJ51GvFaupyhq8BCZsdedPu1l0nxGgsQXqz4VuvL9+b+TsaNGi9WSDkas+TwMz8GIr/7vhNffPvdWHNizF811ZwCBEwTej+Osr60DaUOwotKbqyY+00XR6UIft3H+iilgAMMVk7BzdHAWo7jAsNieP/DLAQadMZAZMoEMmaDkKuBsk4HmPGKod954Uxy1RAfhERVwWCeOHEVsRFSL8NI6I4uLisbTTz4lgHAxwMD7kZl9+dnnaKytE2DQ81frjObk8eNw2h0evUNLYKASlJZROj186XhhYMjGup/WybV8Lq50fvjmW/Tv0xfUrfz3q69llcCVAotv361ttycwmEwmATG+Mxb/+1eUlCI2MloAXXuHZ+g0+IaBZwESvwHqN4YNG3YWXQkMIa4g8P0fP3xUVkLyDTRSf6QVigmpd+jfV7NaYuwujov9+o/Nf/8Cn7Zxug0oYABDGxCxM3RxqT8etr8SYOC1DKo3feo0UXhSTMPgcmTwWj4BBas//Qy1NTUi0qFMXWeQRw4cFGskrip0QNBrysDn3Xqbd6VA5sxy7hWDpmP4+ovVaKZugs8FrfAZOQMlU4qOjJTZqX4f1pzpdktKEjl5awzpQsCQnZmFn9dp0U4541296jP0kdm+gueXP4sTx45pIrSmJtQ3ns2Mz3pn7bhiUBRFTHr5rZ4FUk1NqCwpA1dr/qsF0mnQgBuwYcOGFgyb9KJvCE1b/VcMvIbvliKpwtx8vPryK/h7+3ahB/NdUJREMd/p6mpQ3/Daa6/Jt2QAQ2fgJNoYDGDoPO/iikZyFpO5QG+XBgwMiXFGOUimQIbLoG4MwCdJbPzENFQ8L3viSaz+7HN8/ulnYoXz/vvv45133sFLz7+I5PhE0S/4MmpuE1RumjDRR4x0flES5fBUKBMYaK7a2NyERg8wCEB4ZqCx0TFiCeN7P4qSuGKg78FZ9LsIUVJudg5orkonrg/efx99uvcUoDNfH4BePXpi819/CTDUNdSj8WJmwu0IDFarFb/88stZz6k/97bySmT0T/XoGc6IzEivQTcM9F7Ld68X+oJMnjzZu1qk2Eunr66vEIBQFFBvQsupxx55BL//tlHyamt6jjOe0ALiF6DTBT5r43QbUcAAhjYiZEd3o4sIWOszQp2B8wenMwC9XUtg8PgxtGLxw1hJ/iExdMZAk8t+ffuencSGClOahFrtYkJJpuCiP4OncP9cheGlyWw4Tl9GQSY0f/58EVNRocqZraZ81lJu0n+BM3xaweuF74Rj5QH6QXBm671GUWXcSYkaMLAdadLi7zzKZ/ZDK6pvv/oar/7nJbHeITP07X/GlGk4uGefAJbEQWrR+dk7vD8dxHr06AGLoqX21PujNdbwoqES6ZYgzT/9OWWPwN3YJLmp9WtY68pn+o8QyPXvwP/u2yurkN4/RRg7V36+fVCUpIOK3Nez2uT7obNhdESktNdFUL7XtrbttNgwbHCR6DWOHToi36sYCxhRY/1fS4ftG8DQYaRv2xvrTJQ1gYEJebZt2yY29QwJsWPHDglHoTPcKwEGnblQBJCclHwWMHDWqAQEYuyIUbh17lzcftttmHfbbaAXLmvun7vME+9dip50YOP9OiMwkJFOGDsOyXEJHt1KS4ZKfwmCBsNpU8x1oT8+Z1cCBr4fflsTx98ofiG+1lCtAYJ+jN8HQYQTh9nTZ4iOh98sv13SwPjreAoYwNDx76BNRsAfqV7+//auxa2qKov/I9N9ZJiJwmhjYWajKb56TBnmNGqoMWWjE2oKkk1GKT7QHpbBjDM9NMlHKTUhziiWKSCiotZnNuOEWoAiSgIi8XDN/NY+69x9DxeQ8XK56L7fd75z7r1nv9Y+Z/32Xnvt3wIgpKWl0eCYwQQTQu/evSkuLo5pF2ALb7YWH3F/W/sY8BLjBQ40Y5AKg1IBi6y3etQGLHnxMZqHCQE298aGBjWS10xRsm4Q6AwSOSgIHAAx1DFcgQHtjO7bjxdaxZvHlgFmJL9w0ZC7YujwgeIbDhikf3Den1/Azwl2aqvnRpvNOWah8j9clPGMwAyIBWzs75B+l+fLnLtPAgYYuk/2QS0ZLxWUKHbSpqSk0B19+vBIHnZ03knr9TLVQnFRES/+QdkqYEA8hgCmJMuzSAHDd351lbTgQroPm6MAIpoCAKDArAKvlIbL9byQjLI6c6A9MmvwAwbLPBIOpiRQcsx8ZgYlzpxF8KZCncQjSxQgRsYJU6fR+YqzbZpxRLho5/XNGJqDYEryKBdZrT8DmZLQPzL7bGps5Jgdf1q4kEaNjGUqFOw+x3PBz4Zl+lOyUe7F2MOCjYZ4VqKiopgHSgYCIg9z7j4JGGDoPtkHtWRRuiBUGzJkiK2sobBxwL4ecWsvmj/3eeYjkvtVoB4HMGgKLmHadAI1hf6RtDt37qTRo0bZZcloGQoAo+XXVqRT7aUaO5aDnodcw3CAhVnkKYAjI0cBu3AFhtEjRtK+L/bwDt/nnp3JvE0AAhwCXLJ5L/PtNbxIDeWHD9rr/FwvMMD7SvYxSPmdWmMYEWt7JUlf4uwEBtQdoI1nB7PTutpaAjhcqa+nA/uLaGV6Ok2eNIliR4wk8FwBBDCjgizUoME3o+Bn0+slECvCyy2QXJxyMt+7XgIGGLpexiEpQZQqmDkHDBjgN4Ln0SsoKtxemvjYBEVUZ7lyggV14oQJre5HGrzQAJJL1dV+bcDLi+PEiRP024kTWwEDl+dyc4jKi+erWgGDvmgK9SjupSChg1snlI6AAsoJV2DA4nNRfiGbibB/4eFxD7B5RNoPJQhzCbx1BvaP5n0EaJf0lZ9QLUrx65kxhBIYsFickZHBzLZFRUW8roW+ElCvrq6m/Px8ZprFOsyDY8byOgScEiAfOQAMcKUFwyvWKyAb8+l+CRhg6P4+CEoNRNmArjk6OjqAogdBmpvmJc6xgQEvcun3pexaiRdUXlYebbo8NDAqmt5+czV7u+iVlLLq6upo/rz57GGkp4dCxAEW02+OHlN7ErQM2gKGn2pq6OChQwQaariAipJBefbicxiZkgAMBwoKWZ5NVxoIs4KYXw1ic5J4KLG7JjbhebxM+Y1RtrRLEwlfop09ARhQT4A3aM979erFtBjYBS2mIHk+5Hylto725O0meGmB6dV+zqzZLDymAAzgXcIzaT7dLwEDDN3fB0GpgbyEWBDGjIF3IlvKHkobx6CBd/ILym6diOrV2Ej7Cwro9ogI/l8pdLXoDHfJRx/+DeXv3cd7GPRKoiwoN7zE2du20fBhwzg90sBkJcoQCiD1pUVUU/0T01uzmyW7lOpupVfZlHS5vp527dpFj098nGYnJtIPZ87wIjk4gBBvmoFhIdxVFY2Gnz3f46XdO3fZgIf6MfjgjBlHc4vtrip2bj67Pbx4rmJat/iip6GxGLm2XKVjCO3JEdyUDPX0jzz0MAMDexw1NfM6QuKsPzIduNzH9WTGUg/d6vXSyvSVVH9ZgZ5VST/ZHCkpUes2AFf0m2bWm/TEE3So+KBdT9VOtb8EdQX1OZuSbNoQy63X5SGP20MloOyG/C1HACkfbdXdVX3PgSqf9zHoG9xQVnMLvYj+8HrZZXl7Tg6blFjeKANyt85w1YWMqs5VsllKuQ171cY4a8YQGxvLC9Com/l0vwQMMHR/HwSlBqKoCwoKeI0BLyz7wmMHqttD0f2j6PVVr/kI6pqama4AfEa8Y1nbnIQXFwuCCIYDqgLnKA4vr4x6EU8gKSmJIiMjyeVycbwFjJYVYZ2HTSigw2ZCNVBqw23T4j/CGUobfEs7tucyoV2/vpE0b+7z9MPp0/yfUCiAPmHhghSlTGzFp7iEAER5O/5JLQ2NvMsZaRj8LPoF7LLlfQysaH2bsKAA740ZTN8cOUpkUYeLHBmQmprpyKHDFD9pMgMSFLVazMeCvpuYKym/gMvkNjW3UFFhIY0bM5bNcAxiFleR8BUhXsIXu/KsNFcZzEAPAdpy1KGk+CANHXwPj6qVglb1RZ9AQe8vKLTZZ1nhIlaCFQ8DsxYQCXI6rT/xHfWF/d9fNoqLCukRD4P3MTABor+MJjw6ntsFihJwQeF+5JO66GWK6NWLAeypqdPocPFBJuWTeBqqf6UMxX21Kn2lotDweMkFUkOPlyIiIighIcHefxOUF8Jkcl0SMMBwXeILn8Si0EDfDGKz2yN68wsIUIBSXLFsGY/cQUeAkeXPdfUc3Oa+e+7lxVJ7wdTlYaroGTNm0NfWzt1AwIDfcKBc0CUgWhrcYr0AJPZTtxTaLS4aPOhuemPlKsrf8xWBkwdKHhQXUP4HCvdT5jsZ9OC4cYTNbYg/ffBAsaWAlBKCIsImu5kznm0NDNZGt/Xvvk911ZdYwQqY4Iy0FyrPU1S//q0oMaAw7xpwJ336yVaCUoVyFjk247qxkfZ+uYft45CPExiGDrmX/pGbS80/N9rlAoTA9YQgRchfSOxw5hmV201x4x+jb459bQMf0qBPGuuv8IY5mPCEXoSVvAWE9w8bRls2bVb8UwATq31oI9Kf+b6UHnngoVagwsBwi4s2fbTRNzDAAjJYbP838gcwHT/6NQMS7152gApiXHy6LZtdj7muTHDYQmmLl/AGRoAOvJDmJCYSvN5AeyE8VwIiABSU9+ILL9hyVPLwUExMDGVnZ9uyD5+36uatiQGGG6TvMYoXZb17926OLnYbArG43fTroUPpaEkJ1dXUMF/Nv058R59s3sKmIjE5KZOFm/n8QUmxb98+flHFbqyLSS8LihT25ry8PIqPj6c+ffqweyzAgRWSRamN/LE4+9zMWWxeWvzKqxyv4PG4OMIsIfKOvvR0wu/pqy++ZB4dKL3LtbV04vi3tHtXHi1fusw2sTDwWFxHygvIzbTRG9atZ9NPPTaUNbfQj2fOMFMrYjmARA+K3S+ty82sq1Oe+B1t/HADgxQ2BmKWVHK4hHJzciglKZmi+vbjtiCtPmNAnrOfS6Scv3/OVNbwqsEekfKyMgY4RELTwQHpQTMNuu+E6dPpow1ZlL93L0eSAxh+ti2b5ibOJvQbQoc664poa09OnkKIj4DR/8WqC1RXo2SEWcji1FfYXMgyEfloZ8g6e+s23j0NhY1YF6dLT9FXX+6hVctXcJQ49BNASS87ss8d9NS06bQx6yM6VFzMMzzId+WKdO43JReXisYWP5U+3rSZTpeW2rMHLqv+ChXm59OI4cP5mUT7MFsAVcnSpUvZzVpAWX/WzHX3SMAAQ/fIPeilQlnLgV2kn2V/SlMmTeJROILFzPrDTEpfvoKWLUnja4RghJICcCDqF2YYY0aNprTFiwl2brykkh/O+kf/XWYNAAeYsRYtWkSxI1UUNX2EjXJEqfKGOA983N2sTEaNHElLl6Sx2QajSjGt/OffJwkA8sDYsQQTjKTXz9wGS2Fjs92cxNlU9sOPbK56/9332PyCcKCYOenp9GtEEsOs6pmnn2aiOSx+Y9YF5k8JtIP1EihcPR2irSHQDO6D99bJkyepuUXNOnK359I9MTF+MxzsJ5H0Yt5DGNI3Xnudo9QNR6Cj227jeyAjyEc/kBZ9hVCZAJaiwv104vhxpiOH+QrgqmTuK0fKQ364xixn+tSpPJMCgEJGWCsR+bYlJ4DZ3YMG0fNz5jD4AhhQ7+j+/Wns6DEUN348DfzlAAY9DETmzp5DGWveoY1ZWbRh/Ye0+vU32FSIOqAMUKJg5vTnjEyOP41nCs+S81nTnztzHToJGGAInaxDWhIUbHHRAR7VPTl5MsfixcuIl5KVjsdLkX378sLx1Ph4SluyhHbk5lLluUpeNOxMZWWmAjDBDtacz3PoldRUenLKFLp/+HCO1dw7IoI84P/xeHmGAAWFIDlLXl1MO7ZvZ1I1KBs2QWCNAPGjS0/RXzIyKXl+UttHUhIlawdI2hCcB3l9vHkLvZjygn9a7V5Op+W9YvlyJtQDa2hqaiotSEqiBfOTKGWeOnDNv+F35MPfk2lBUjLBdn7q9Clmd21qbuKIbGvWrOH7MOtA2kDtQIyJ9R+sU23Q7+EyVN7I31lXRKg7VnKEAJ5vvbnaTwa2PLT8UN+U5GSepb380kssHzDfZm/dSguSrfx12Whp9XairO++/ZaB5ZMtH1PC9Ke4/ojPDRZVtBPuz2CtBVAgXCmcHrArGsACRloMUt5e/RYV5hcww2pnnjVzb2gkYIAhNHIOeSnwOIJyrP3pEi8KfpadTX9b+1d+ITHSg1vrunXrOAYzyNUQkxmKXWYKnamwzBrkjDzgRYTA9Tk5OZSVlUVr165lv/fMzEwepaI+MJ9UX7jIYKBs0soTSBanYeqoqjxPFWXlvqO8nDdWwe0TB4BIP86fq1S285arVH3hAp0tr/ClRT6O+yUfnLGQDsoQ+OjzfWVldLasnM7ZRwXnhzwlXzmj3CsNDbwnAwyvCBgEX/6z5eV8+LXBbk8Zlf9YRherqqjC0a5WbXO041xFBStVhBBF2aA20dumtwvXqCfSoB4MnFjsbrnKZiFuQztyQd2k/lWVlbyGgDUNzMwOHzxElXBV/bmRd9TjN3i6AXA+eO89nhH8xerzzRs3cRAjgBkGLng+UQfzCT8JGGAIvz4JSo2U94jyAMJLq0bjaqERI0WYfvCRKbwAwv8znRdAkDPywrXzQFn8n6WU2HOIF3nVQiorCj+PIl8EN1YgUCKaySyg2QFmL2vmYSseK6ZDICWEPAIe7DllKS49PfvBWtSm+u8tVxXlN2i/0U4szFsumwJ0dhvsdGqGhL5iWbRVF7QJh51O2qi8utBedj3Vnhxnmzg952PV3ZYz3IFb7x3wS8/lQhZWedpZfoOsVTvUgr+Sve9+vs/yZuJ2QI7SHq3e5jI8JGCAITz6ISi18H+ZW4hdLmG75b0AUB6WYtV82f3StKOYOroPINDRPfb/UAhSFgAEihzfLUXqu/bV2a67pGvvbPnZw49e0snZrkN76a3/JI2twERBt3HmIEE8W1DAYIcZDVAP5C31Y9ldQ5/Y9bHS2vLqZFrJB+Vfa9lqT4Kqs32t1UO1x7d3QeqmlyXp5Dc5d6pPgvKmmEw6koABho4k1EP+78zLZe5tY5ZgAYKRT3jLp4e8kj26mgYYenT3+SpvlFl4KzPTP8HrH99Tb666SgIGGLpKsiHO1yie4CkeI8vwlmWIX62bsjgDDDdlt5tGGwkYCRgJtC0BAwxty8b8YyRgJGAkcFNKwADDDdLtHZk/nM3s6P7O/O/M2/m9M3k573Xmhe/Oe4L53VleMPMOZV6hbIezLOf3YLbbmbf53jUSMMDQNXINea4dvXzOCnV0f2f+d+bt/N6ZvALdq+cX6P9g/qaXhetg5h3KvELZDmdZzu/Bbrczf/M9+BIwwBB8mZocjQSMBIwEerQEDDD06O4zlTcSMBIwEgi+BAwwBF+mJkcjASMBI4EeLQEDDD26+0zljQSMBIwEgi8BAwzBl+kNmSMWEPGRc3uNlMXG9u5x/idphHhPvkt5+nf92pmP87t+r+SFe5y/y3dnevne0f+B8nSm7SgP+V8/63lIGfpvuFd4quR3uQ//tfXRy2jvPkmv3y+/XetZ6oc89GtJr+d9LXWRdObcdRIwwNB1sjU5GwkYCRgJ9EgJ/BdUNxOvGixiqAAAAABJRU5ErkJggg==;" vertex="1" parent="1">
          <mxGeometry x="361.93" y="91.2" width="176.13" height="140" as="geometry" />
        </mxCell>
      </root>
    </mxGraphModel>
  </diagram>
</mxfile>
